<ttFont>
    <TTGlyph name=".notdef" xMin="77" yMin="0" xMax="476" yMax="1264">
      <contour>
        <pt x="77" y="1264" on="1"/>
        <pt x="476" y="1264" on="1"/>
        <pt x="476" y="0" on="1"/>
        <pt x="77" y="0" on="1"/>
      </contour>
      <contour>
        <pt x="468" y="8" on="1"/>
        <pt x="468" y="1256" on="1"/>
        <pt x="85" y="1256" on="1"/>
        <pt x="85" y="8" on="1"/>
      </contour>
    </TTGlyph>
    <TTGlyph name="A" xMin="0" yMin="-184" xMax="1640" yMax="1679">
      <contour>
        <pt x="852" y="1679" on="1"/>
        <pt x="859" y="1679" on="0"/>
        <pt x="877" y="1645" on="0"/>
        <pt x="894" y="1600" on="0"/>
        <pt x="909" y="1555" on="0"/>
        <pt x="913" y="1544" on="1"/>
        <pt x="935" y="1479" on="0"/>
        <pt x="989" y="1315" on="0"/>
        <pt x="1050" y="1129" on="0"/>
        <pt x="1117" y="928" on="0"/>
        <pt x="1184" y="727" on="0"/>
        <pt x="1250" y="531" on="0"/>
        <pt x="1310" y="354" on="0"/>
        <pt x="1363" y="205" on="0"/>
        <pt x="1384" y="150" on="1"/>
        <pt x="1408" y="85" on="0"/>
        <pt x="1454" y="7" on="0"/>
        <pt x="1506" y="-39" on="0"/>
        <pt x="1569" y="-61" on="0"/>
        <pt x="1610" y="-70" on="1"/>
        <pt x="1640" y="-76" on="0"/>
        <pt x="1640" y="-92" on="1"/>
        <pt x="1640" y="-103" on="0"/>
        <pt x="1618" y="-111" on="0"/>
        <pt x="1604" y="-111" on="1"/>
        <pt x="1582" y="-111" on="0"/>
        <pt x="1514" y="-109" on="0"/>
        <pt x="1470" y="-109" on="1"/>
        <pt x="1435" y="-109" on="0"/>
        <pt x="1354" y="-112" on="0"/>
        <pt x="1311" y="-115" on="1"/>
        <pt x="1244" y="-120" on="0"/>
        <pt x="1130" y="-143" on="0"/>
        <pt x="1038" y="-166" on="0"/>
        <pt x="969" y="-184" on="0"/>
        <pt x="948" y="-184" on="1"/>
        <pt x="937" y="-184" on="0"/>
        <pt x="924" y="-173" on="0"/>
        <pt x="924" y="-164" on="1"/>
        <pt x="924" y="-151" on="0"/>
        <pt x="938" y="-135" on="0"/>
        <pt x="958" y="-129" on="1"/>
        <pt x="966" y="-127" on="0"/>
        <pt x="996" y="-119" on="0"/>
        <pt x="1032" y="-109" on="0"/>
        <pt x="1071" y="-96" on="0"/>
        <pt x="1087" y="-88" on="1"/>
        <pt x="1107" y="-77" on="0"/>
        <pt x="1139" y="-41" on="0"/>
        <pt x="1139" y="-4" on="1"/>
        <pt x="1139" y="4" on="0"/>
        <pt x="1136" y="32" on="0"/>
        <pt x="1133" y="43" on="1"/>
        <pt x="1115" y="113" on="0"/>
        <pt x="1077" y="257" on="0"/>
        <pt x="1039" y="387" on="0"/>
        <pt x="1005" y="497" on="0"/>
        <pt x="991" y="532" on="1"/>
        <pt x="968" y="590" on="0"/>
        <pt x="908" y="651" on="0"/>
        <pt x="872" y="668" on="1"/>
        <pt x="862" y="672" on="0"/>
        <pt x="816" y="690" on="0"/>
        <pt x="753" y="711" on="0"/>
        <pt x="681" y="735" on="0"/>
        <pt x="611" y="758" on="0"/>
        <pt x="550" y="777" on="0"/>
        <pt x="530" y="784" on="1"/>
        <pt x="506" y="707" on="0"/>
        <pt x="459" y="556" on="0"/>
        <pt x="420" y="429" on="0"/>
        <pt x="391" y="333" on="0"/>
        <pt x="385" y="311" on="1"/>
        <pt x="377" y="285" on="0"/>
        <pt x="371" y="243" on="0"/>
        <pt x="371" y="227" on="1"/>
        <pt x="371" y="198" on="0"/>
        <pt x="388" y="159" on="0"/>
        <pt x="416" y="132" on="0"/>
        <pt x="453" y="113" on="0"/>
        <pt x="473" y="104" on="1"/>
        <pt x="490" y="96" on="0"/>
        <pt x="516" y="77" on="0"/>
        <pt x="516" y="63" on="1"/>
        <pt x="516" y="54" on="0"/>
        <pt x="501" y="41" on="0"/>
        <pt x="485" y="41" on="1"/>
        <pt x="468" y="41" on="0"/>
        <pt x="416" y="57" on="0"/>
        <pt x="353" y="81" on="0"/>
        <pt x="283" y="108" on="0"/>
        <pt x="248" y="119" on="1"/>
        <pt x="220" y="127" on="0"/>
        <pt x="160" y="140" on="0"/>
        <pt x="104" y="148" on="0"/>
        <pt x="59" y="153" on="0"/>
        <pt x="47" y="154" on="1"/>
        <pt x="22" y="156" on="0"/>
        <pt x="0" y="166" on="0"/>
        <pt x="0" y="180" on="1"/>
        <pt x="0" y="190" on="0"/>
        <pt x="13" y="203" on="0"/>
        <pt x="29" y="203" on="1"/>
        <pt x="35" y="203" on="0"/>
        <pt x="66" y="201" on="0"/>
        <pt x="86" y="201" on="1"/>
        <pt x="134" y="201" on="0"/>
        <pt x="198" y="213" on="0"/>
        <pt x="242" y="239" on="0"/>
        <pt x="271" y="278" on="0"/>
        <pt x="283" y="305" on="1"/>
        <pt x="295" y="331" on="0"/>
        <pt x="329" y="418" on="0"/>
        <pt x="368" y="521" on="0"/>
        <pt x="408" y="632" on="0"/>
        <pt x="443" y="731" on="0"/>
        <pt x="469" y="808" on="0"/>
        <pt x="475" y="827" on="1"/>
        <pt x="483" y="853" on="0"/>
        <pt x="512" y="944" on="0"/>
        <pt x="548" y="1056" on="0"/>
        <pt x="585" y="1177" on="0"/>
        <pt x="616" y="1288" on="0"/>
        <pt x="635" y="1379" on="0"/>
        <pt x="635" y="1405" on="1"/>
        <pt x="635" y="1425" on="0"/>
        <pt x="613" y="1452" on="0"/>
        <pt x="588" y="1452" on="1"/>
        <pt x="566" y="1452" on="0"/>
        <pt x="511" y="1446" on="0"/>
        <pt x="455" y="1440" on="0"/>
        <pt x="402" y="1434" on="0"/>
        <pt x="383" y="1434" on="1"/>
        <pt x="346" y="1434" on="0"/>
        <pt x="346" y="1460" on="1"/>
        <pt x="346" y="1484" on="0"/>
        <pt x="381" y="1487" on="1"/>
        <pt x="405" y="1488" on="0"/>
        <pt x="466" y="1496" on="0"/>
        <pt x="534" y="1510" on="0"/>
        <pt x="603" y="1531" on="0"/>
        <pt x="635" y="1546" on="1"/>
        <pt x="686" y="1569" on="0"/>
        <pt x="758" y="1617" on="0"/>
        <pt x="809" y="1655" on="0"/>
        <pt x="842" y="1679" on="0"/>
      </contour>
      <contour>
        <pt x="547" y="838" on="1"/>
        <pt x="578" y="827" on="0"/>
        <pt x="675" y="794" on="0"/>
        <pt x="775" y="763" on="0"/>
        <pt x="860" y="741" on="0"/>
        <pt x="879" y="741" on="1"/>
        <pt x="891" y="741" on="0"/>
        <pt x="909" y="758" on="0"/>
        <pt x="909" y="776" on="1"/>
        <pt x="909" y="791" on="0"/>
        <pt x="891" y="870" on="0"/>
        <pt x="864" y="971" on="0"/>
        <pt x="832" y="1082" on="0"/>
        <pt x="804" y="1176" on="0"/>
        <pt x="785" y="1239" on="0"/>
        <pt x="784" y="1243" on="1"/>
        <pt x="780" y="1255" on="0"/>
        <pt x="767" y="1300" on="0"/>
        <pt x="752" y="1344" on="0"/>
        <pt x="737" y="1376" on="0"/>
        <pt x="733" y="1376" on="1"/>
        <pt x="729" y="1376" on="0"/>
        <pt x="716" y="1354" on="0"/>
        <pt x="702" y="1323" on="0"/>
        <pt x="688" y="1287" on="0"/>
        <pt x="684" y="1272" on="1"/>
      </contour>
    </TTGlyph>
    <TTGlyph name="AE" xMin="0" yMin="-328" xMax="2400" yMax="1735">
      <contour>
        <pt x="1995" y="1735" on="1"/>
        <pt x="1999" y="1735" on="0"/>
        <pt x="2009" y="1733" on="0"/>
        <pt x="2018" y="1723" on="0"/>
        <pt x="2023" y="1702" on="0"/>
        <pt x="2023" y="1683" on="1"/>
        <pt x="2023" y="1649" on="0"/>
        <pt x="2015" y="1555" on="0"/>
        <pt x="2001" y="1452" on="0"/>
        <pt x="1984" y="1351" on="0"/>
        <pt x="1966" y="1271" on="0"/>
        <pt x="1950" y="1221" on="0"/>
        <pt x="1944" y="1221" on="1"/>
        <pt x="1937" y="1221" on="0"/>
        <pt x="1935" y="1239" on="0"/>
        <pt x="1935" y="1251" on="1"/>
        <pt x="1935" y="1270" on="0"/>
        <pt x="1936" y="1299" on="0"/>
        <pt x="1938" y="1330" on="0"/>
        <pt x="1939" y="1369" on="0"/>
        <pt x="1939" y="1399" on="1"/>
        <pt x="1939" y="1424" on="0"/>
        <pt x="1935" y="1477" on="0"/>
        <pt x="1926" y="1524" on="0"/>
        <pt x="1910" y="1563" on="0"/>
        <pt x="1898" y="1575" on="1"/>
        <pt x="1889" y="1584" on="0"/>
        <pt x="1855" y="1593" on="0"/>
        <pt x="1833" y="1593" on="1"/>
        <pt x="1811" y="1593" on="0"/>
        <pt x="1761" y="1586" on="0"/>
        <pt x="1712" y="1577" on="0"/>
        <pt x="1670" y="1568" on="0"/>
        <pt x="1655" y="1565" on="1"/>
        <pt x="1641" y="1562" on="0"/>
        <pt x="1599" y="1551" on="0"/>
        <pt x="1553" y="1537" on="0"/>
        <pt x="1509" y="1523" on="0"/>
        <pt x="1493" y="1516" on="1"/>
        <pt x="1465" y="1503" on="0"/>
        <pt x="1444" y="1471" on="0"/>
        <pt x="1444" y="1442" on="1"/>
        <pt x="1444" y="1427" on="0"/>
        <pt x="1449" y="1366" on="0"/>
        <pt x="1457" y="1288" on="0"/>
        <pt x="1467" y="1200" on="0"/>
        <pt x="1473" y="1157" on="1"/>
        <pt x="1474" y="1148" on="0"/>
        <pt x="1480" y="1106" on="0"/>
        <pt x="1489" y="1051" on="0"/>
        <pt x="1499" y="988" on="0"/>
        <pt x="1509" y="928" on="0"/>
        <pt x="1517" y="876" on="0"/>
        <pt x="1520" y="860" on="1"/>
        <pt x="1522" y="851" on="0"/>
        <pt x="1535" y="842" on="0"/>
        <pt x="1550" y="842" on="1"/>
        <pt x="1569" y="842" on="0"/>
        <pt x="1635" y="849" on="0"/>
        <pt x="1706" y="864" on="0"/>
        <pt x="1772" y="890" on="0"/>
        <pt x="1792" y="909" on="1"/>
        <pt x="1810" y="925" on="0"/>
        <pt x="1836" y="972" on="0"/>
        <pt x="1854" y="1023" on="0"/>
        <pt x="1868" y="1073" on="0"/>
        <pt x="1880" y="1112" on="0"/>
        <pt x="1893" y="1137" on="0"/>
        <pt x="1901" y="1137" on="1"/>
        <pt x="1909" y="1137" on="0"/>
        <pt x="1917" y="1119" on="0"/>
        <pt x="1917" y="1098" on="1"/>
        <pt x="1917" y="1070" on="0"/>
        <pt x="1907" y="985" on="0"/>
        <pt x="1907" y="926" on="1"/>
        <pt x="1907" y="863" on="0"/>
        <pt x="1921" y="755" on="0"/>
        <pt x="1938" y="663" on="0"/>
        <pt x="1952" y="585" on="0"/>
        <pt x="1952" y="553" on="1"/>
        <pt x="1952" y="528" on="0"/>
        <pt x="1933" y="528" on="1"/>
        <pt x="1919" y="528" on="0"/>
        <pt x="1900" y="571" on="0"/>
        <pt x="1884" y="634" on="0"/>
        <pt x="1865" y="706" on="0"/>
        <pt x="1851" y="735" on="1"/>
        <pt x="1837" y="764" on="0"/>
        <pt x="1791" y="788" on="0"/>
        <pt x="1759" y="788" on="1"/>
        <pt x="1736" y="788" on="0"/>
        <pt x="1680" y="783" on="0"/>
        <pt x="1625" y="774" on="0"/>
        <pt x="1576" y="763" on="0"/>
        <pt x="1561" y="758" on="1"/>
        <pt x="1550" y="753" on="0"/>
        <pt x="1542" y="741" on="0"/>
        <pt x="1542" y="727" on="1"/>
        <pt x="1542" y="709" on="0"/>
        <pt x="1549" y="650" on="0"/>
        <pt x="1559" y="583" on="0"/>
        <pt x="1570" y="514" on="0"/>
        <pt x="1575" y="485" on="1"/>
        <pt x="1577" y="473" on="0"/>
        <pt x="1589" y="409" on="0"/>
        <pt x="1606" y="326" on="0"/>
        <pt x="1628" y="234" on="0"/>
        <pt x="1653" y="155" on="0"/>
        <pt x="1679" y="99" on="0"/>
        <pt x="1692" y="94" on="1"/>
        <pt x="1698" y="91" on="0"/>
        <pt x="1715" y="90" on="0"/>
        <pt x="1724" y="90" on="1"/>
        <pt x="1751" y="90" on="0"/>
        <pt x="1825" y="105" on="0"/>
        <pt x="1909" y="131" on="0"/>
        <pt x="1998" y="168" on="0"/>
        <pt x="2079" y="212" on="0"/>
        <pt x="2147" y="261" on="0"/>
        <pt x="2169" y="287" on="1"/>
        <pt x="2203" y="327" on="0"/>
        <pt x="2243" y="432" on="0"/>
        <pt x="2265" y="533" on="0"/>
        <pt x="2272" y="615" on="0"/>
        <pt x="2273" y="633" on="1"/>
        <pt x="2274" y="674" on="0"/>
        <pt x="2290" y="698" on="0"/>
        <pt x="2302" y="698" on="1"/>
        <pt x="2326" y="698" on="0"/>
        <pt x="2329" y="655" on="1"/>
        <pt x="2330" y="641" on="0"/>
        <pt x="2333" y="591" on="0"/>
        <pt x="2337" y="530" on="0"/>
        <pt x="2342" y="464" on="0"/>
        <pt x="2345" y="434" on="1"/>
        <pt x="2350" y="379" on="0"/>
        <pt x="2369" y="284" on="0"/>
        <pt x="2387" y="212" on="0"/>
        <pt x="2400" y="164" on="0"/>
        <pt x="2400" y="156" on="1"/>
        <pt x="2400" y="149" on="0"/>
        <pt x="2367" y="139" on="0"/>
        <pt x="2313" y="131" on="0"/>
        <pt x="2246" y="123" on="0"/>
        <pt x="2212" y="117" on="1"/>
        <pt x="2110" y="99" on="0"/>
        <pt x="1930" y="57" on="0"/>
        <pt x="1767" y="9" on="0"/>
        <pt x="1619" y="-44" on="0"/>
        <pt x="1548" y="-74" on="1"/>
        <pt x="1520" y="-86" on="0"/>
        <pt x="1442" y="-127" on="0"/>
        <pt x="1354" y="-175" on="0"/>
        <pt x="1263" y="-224" on="0"/>
        <pt x="1182" y="-264" on="0"/>
        <pt x="1118" y="-289" on="0"/>
        <pt x="1100" y="-289" on="1"/>
        <pt x="1092" y="-289" on="0"/>
        <pt x="1079" y="-281" on="0"/>
        <pt x="1079" y="-270" on="1"/>
        <pt x="1079" y="-253" on="0"/>
        <pt x="1122" y="-227" on="0"/>
        <pt x="1186" y="-192" on="0"/>
        <pt x="1257" y="-139" on="0"/>
        <pt x="1286" y="-94" on="1"/>
        <pt x="1306" y="-62" on="0"/>
        <pt x="1323" y="46" on="0"/>
        <pt x="1323" y="111" on="1"/>
        <pt x="1323" y="145" on="0"/>
        <pt x="1318" y="242" on="0"/>
        <pt x="1309" y="341" on="0"/>
        <pt x="1299" y="430" on="0"/>
        <pt x="1294" y="457" on="1"/>
        <pt x="1289" y="486" on="0"/>
        <pt x="1255" y="502" on="0"/>
        <pt x="1229" y="502" on="1"/>
        <pt x="1208" y="502" on="0"/>
        <pt x="1159" y="500" on="0"/>
        <pt x="1110" y="497" on="0"/>
        <pt x="1066" y="493" on="0"/>
        <pt x="1051" y="492" on="1"/>
        <pt x="999" y="486" on="0"/>
        <pt x="929" y="477" on="0"/>
        <pt x="882" y="467" on="0"/>
        <pt x="854" y="453" on="0"/>
        <pt x="844" y="442" on="1"/>
        <pt x="829" y="426" on="0"/>
        <pt x="785" y="349" on="0"/>
        <pt x="740" y="258" on="0"/>
        <pt x="699" y="169" on="0"/>
        <pt x="686" y="141" on="1"/>
        <pt x="677" y="123" on="0"/>
        <pt x="651" y="68" on="0"/>
        <pt x="623" y="3" on="0"/>
        <pt x="594" y="-66" on="0"/>
        <pt x="571" y="-131" on="0"/>
        <pt x="557" y="-187" on="0"/>
        <pt x="557" y="-205" on="1"/>
        <pt x="557" y="-240" on="0"/>
        <pt x="627" y="-264" on="0"/>
        <pt x="698" y="-266" on="1"/>
        <pt x="729" y="-266" on="0"/>
        <pt x="752" y="-280" on="0"/>
        <pt x="752" y="-293" on="1"/>
        <pt x="752" y="-305" on="0"/>
        <pt x="733" y="-322" on="0"/>
        <pt x="702" y="-322" on="1"/>
        <pt x="687" y="-322" on="0"/>
        <pt x="624" y="-315" on="0"/>
        <pt x="538" y="-306" on="0"/>
        <pt x="437" y="-299" on="0"/>
        <pt x="383" y="-299" on="1"/>
        <pt x="335" y="-299" on="0"/>
        <pt x="230" y="-308" on="0"/>
        <pt x="136" y="-319" on="0"/>
        <pt x="61" y="-328" on="0"/>
        <pt x="43" y="-328" on="1"/>
        <pt x="0" y="-328" on="0"/>
        <pt x="0" y="-305" on="1"/>
        <pt x="0" y="-294" on="0"/>
        <pt x="16" y="-281" on="0"/>
        <pt x="41" y="-276" on="1"/>
        <pt x="56" y="-273" on="0"/>
        <pt x="141" y="-262" on="0"/>
        <pt x="251" y="-232" on="0"/>
        <pt x="368" y="-178" on="0"/>
        <pt x="414" y="-133" on="1"/>
        <pt x="474" y="-73" on="0"/>
        <pt x="595" y="124" on="0"/>
        <pt x="715" y="366" on="0"/>
        <pt x="835" y="636" on="0"/>
        <pt x="895" y="770" on="1"/>
        <pt x="946" y="884" on="0"/>
        <pt x="1022" y="1078" on="0"/>
        <pt x="1074" y="1231" on="0"/>
        <pt x="1100" y="1340" on="0"/>
        <pt x="1100" y="1370" on="1"/>
        <pt x="1100" y="1395" on="0"/>
        <pt x="1077" y="1419" on="0"/>
        <pt x="1051" y="1425" on="1"/>
        <pt x="1030" y="1430" on="0"/>
        <pt x="975" y="1438" on="0"/>
        <pt x="916" y="1445" on="0"/>
        <pt x="859" y="1451" on="0"/>
        <pt x="836" y="1454" on="1"/>
        <pt x="817" y="1456" on="0"/>
        <pt x="795" y="1462" on="0"/>
        <pt x="783" y="1468" on="0"/>
        <pt x="780" y="1475" on="0"/>
        <pt x="780" y="1479" on="1"/>
        <pt x="780" y="1488" on="0"/>
        <pt x="808" y="1497" on="0"/>
        <pt x="846" y="1497" on="1"/>
        <pt x="877" y="1497" on="0"/>
        <pt x="984" y="1501" on="0"/>
        <pt x="1118" y="1512" on="0"/>
        <pt x="1271" y="1531" on="0"/>
        <pt x="1348" y="1546" on="1"/>
        <pt x="1484" y="1572" on="0"/>
        <pt x="1707" y="1638" on="0"/>
        <pt x="1873" y="1696" on="0"/>
        <pt x="1977" y="1735" on="0"/>
      </contour>
      <contour>
        <pt x="1212" y="1376" on="1"/>
        <pt x="1207" y="1376" on="0"/>
        <pt x="1181" y="1312" on="0"/>
        <pt x="1136" y="1192" on="0"/>
        <pt x="1068" y="1019" on="0"/>
        <pt x="1020" y="909" on="1"/>
        <pt x="1014" y="897" on="0"/>
        <pt x="990" y="840" on="0"/>
        <pt x="961" y="769" on="0"/>
        <pt x="929" y="691" on="0"/>
        <pt x="904" y="624" on="0"/>
        <pt x="887" y="577" on="0"/>
        <pt x="887" y="571" on="1"/>
        <pt x="887" y="563" on="0"/>
        <pt x="898" y="559" on="0"/>
        <pt x="909" y="559" on="1"/>
        <pt x="961" y="559" on="0"/>
        <pt x="1028" y="561" on="0"/>
        <pt x="1063" y="563" on="1"/>
        <pt x="1108" y="565" on="0"/>
        <pt x="1188" y="569" on="0"/>
        <pt x="1217" y="575" on="1"/>
        <pt x="1238" y="580" on="0"/>
        <pt x="1262" y="596" on="0"/>
        <pt x="1274" y="622" on="0"/>
        <pt x="1276" y="657" on="0"/>
        <pt x="1276" y="680" on="1"/>
        <pt x="1276" y="714" on="0"/>
        <pt x="1272" y="801" on="0"/>
        <pt x="1267" y="888" on="0"/>
        <pt x="1261" y="965" on="0"/>
        <pt x="1260" y="989" on="1"/>
        <pt x="1254" y="1070" on="0"/>
        <pt x="1242" y="1211" on="0"/>
        <pt x="1230" y="1316" on="0"/>
        <pt x="1218" y="1376" on="0"/>
      </contour>
    </TTGlyph>
    <TTGlyph name="Aacute" xMin="0" yMin="-184" xMax="1640" yMax="2173">
      <component glyphName="A" x="0" y="0" flags="0x204"/>
      <component glyphName="acute" x="545" y="221" flags="0x4"/>
    </TTGlyph>
    <TTGlyph name="Acircumflex" xMin="0" yMin="-184" xMax="1640" yMax="2169">
      <component glyphName="A" x="0" y="0" flags="0x204"/>
      <component glyphName="circumflex" x="283" y="369" flags="0x4"/>
    </TTGlyph>
    <TTGlyph name="Adieresis" xMin="0" yMin="-184" xMax="1640" yMax="2085">
      <component glyphName="A" x="0" y="0" flags="0x204"/>
      <component glyphName="dieresis.case" x="360" y="252" flags="0x4"/>
    </TTGlyph>
    <TTGlyph name="Agrave" xMin="0" yMin="-184" xMax="1640" yMax="2121">
      <component glyphName="A" x="0" y="0" flags="0x204"/>
      <component glyphName="grave" x="213" y="186" flags="0x4"/>
    </TTGlyph>
    <TTGlyph name="Aring" xMin="0" yMin="-184" xMax="1640" yMax="2255">
      <component glyphName="A" x="0" y="0" flags="0x204"/>
      <component glyphName="ring" x="430" y="27" flags="0x4"/>
    </TTGlyph>
    <TTGlyph name="Atilde" xMin="0" yMin="-184" xMax="1640" yMax="2083">
      <component glyphName="A" x="0" y="0" flags="0x204"/>
      <component glyphName="tilde" x="283" y="283" flags="0x4"/>
    </TTGlyph>
    <TTGlyph name="B" xMin="2" yMin="-299" xMax="1376" yMax="1749">
      <contour>
        <pt x="836" y="1749" on="1"/>
        <pt x="899" y="1749" on="0"/>
        <pt x="1030" y="1719" on="0"/>
        <pt x="1136" y="1645" on="0"/>
        <pt x="1204" y="1519" on="0"/>
        <pt x="1204" y="1423" on="1"/>
        <pt x="1204" y="1348" on="0"/>
        <pt x="1159" y="1228" on="0"/>
        <pt x="1087" y="1134" on="0"/>
        <pt x="997" y="1063" on="0"/>
        <pt x="907" y="1013" on="0"/>
        <pt x="826" y="980" on="0"/>
        <pt x="799" y="971" on="1"/>
        <pt x="840" y="971" on="0"/>
        <pt x="957" y="952" on="0"/>
        <pt x="1086" y="906" on="0"/>
        <pt x="1212" y="828" on="0"/>
        <pt x="1313" y="708" on="0"/>
        <pt x="1376" y="543" on="0"/>
        <pt x="1376" y="434" on="1"/>
        <pt x="1376" y="338" on="0"/>
        <pt x="1334" y="186" on="0"/>
        <pt x="1262" y="68" on="0"/>
        <pt x="1168" y="-18" on="0"/>
        <pt x="1064" y="-76" on="0"/>
        <pt x="957" y="-108" on="0"/>
        <pt x="909" y="-113" on="1"/>
        <pt x="857" y="-119" on="0"/>
        <pt x="767" y="-123" on="0"/>
        <pt x="729" y="-123" on="1"/>
        <pt x="667" y="-123" on="0"/>
        <pt x="565" y="-117" on="0"/>
        <pt x="514" y="-117" on="1"/>
        <pt x="448" y="-117" on="0"/>
        <pt x="332" y="-144" on="0"/>
        <pt x="234" y="-184" on="0"/>
        <pt x="153" y="-232" on="0"/>
        <pt x="88" y="-272" on="0"/>
        <pt x="41" y="-299" on="0"/>
        <pt x="25" y="-299" on="1"/>
        <pt x="2" y="-299" on="0"/>
        <pt x="2" y="-274" on="1"/>
        <pt x="2" y="-255" on="0"/>
        <pt x="43" y="-217" on="0"/>
        <pt x="107" y="-175" on="0"/>
        <pt x="184" y="-129" on="0"/>
        <pt x="219" y="-102" on="1"/>
        <pt x="241" y="-85" on="0"/>
        <pt x="278" y="-45" on="0"/>
        <pt x="307" y="6" on="0"/>
        <pt x="326" y="73" on="0"/>
        <pt x="332" y="117" on="1"/>
        <pt x="340" y="179" on="0"/>
        <pt x="346" y="363" on="0"/>
        <pt x="346" y="477" on="1"/>
        <pt x="346" y="537" on="0"/>
        <pt x="348" y="705" on="0"/>
        <pt x="348" y="799" on="1"/>
        <pt x="348" y="896" on="0"/>
        <pt x="344" y="1098" on="0"/>
        <pt x="331" y="1281" on="0"/>
        <pt x="308" y="1431" on="0"/>
        <pt x="289" y="1475" on="1"/>
        <pt x="272" y="1514" on="0"/>
        <pt x="225" y="1569" on="0"/>
        <pt x="166" y="1606" on="0"/>
        <pt x="99" y="1628" on="0"/>
        <pt x="63" y="1634" on="1"/>
        <pt x="37" y="1639" on="0"/>
        <pt x="20" y="1652" on="0"/>
        <pt x="20" y="1661" on="1"/>
        <pt x="20" y="1670" on="0"/>
        <pt x="35" y="1677" on="0"/>
        <pt x="47" y="1677" on="1"/>
        <pt x="65" y="1677" on="0"/>
        <pt x="105" y="1672" on="0"/>
        <pt x="158" y="1666" on="0"/>
        <pt x="224" y="1661" on="0"/>
        <pt x="268" y="1661" on="1"/>
        <pt x="359" y="1661" on="0"/>
        <pt x="500" y="1688" on="0"/>
        <pt x="627" y="1721" on="0"/>
        <pt x="756" y="1749" on="0"/>
      </contour>
      <contour>
        <pt x="494" y="1638" on="1"/>
        <pt x="497" y="1593" on="0"/>
        <pt x="503" y="1487" on="0"/>
        <pt x="511" y="1374" on="0"/>
        <pt x="518" y="1259" on="0"/>
        <pt x="522" y="1206" on="1"/>
        <pt x="530" y="1081" on="0"/>
        <pt x="539" y="952" on="1"/>
        <pt x="655" y="960" on="0"/>
        <pt x="747" y="1002" on="1"/>
        <pt x="786" y="1020" on="0"/>
        <pt x="861" y="1074" on="0"/>
        <pt x="920" y="1152" on="0"/>
        <pt x="956" y="1257" on="0"/>
        <pt x="956" y="1325" on="1"/>
        <pt x="956" y="1423" on="0"/>
        <pt x="908" y="1553" on="0"/>
        <pt x="828" y="1631" on="0"/>
        <pt x="722" y="1663" on="0"/>
        <pt x="664" y="1663" on="1"/>
        <pt x="616" y="1663" on="0"/>
        <pt x="529" y="1649" on="0"/>
      </contour>
      <contour>
        <pt x="543" y="879" on="1"/>
        <pt x="546" y="823" on="0"/>
        <pt x="555" y="683" on="0"/>
        <pt x="565" y="537" on="0"/>
        <pt x="576" y="392" on="0"/>
        <pt x="585" y="268" on="0"/>
        <pt x="593" y="173" on="0"/>
        <pt x="596" y="150" on="1"/>
        <pt x="601" y="100" on="0"/>
        <pt x="628" y="16" on="0"/>
        <pt x="676" y="-44" on="0"/>
        <pt x="748" y="-78" on="0"/>
        <pt x="799" y="-78" on="1"/>
        <pt x="869" y="-78" on="0"/>
        <pt x="988" y="-21" on="0"/>
        <pt x="1075" y="99" on="0"/>
        <pt x="1124" y="282" on="0"/>
        <pt x="1124" y="408" on="1"/>
        <pt x="1124" y="530" on="0"/>
        <pt x="1063" y="717" on="0"/>
        <pt x="955" y="844" on="0"/>
        <pt x="808" y="909" on="0"/>
        <pt x="721" y="909" on="1"/>
        <pt x="667" y="909" on="0"/>
        <pt x="569" y="891" on="0"/>
      </contour>
    </TTGlyph>
    <TTGlyph name="C" xMin="10" yMin="-209" xMax="1499" yMax="1731">
      <contour>
        <pt x="1329" y="1731" on="1"/>
        <pt x="1343" y="1731" on="0"/>
        <pt x="1350" y="1703" on="0"/>
        <pt x="1350" y="1681" on="1"/>
        <pt x="1350" y="1669" on="0"/>
        <pt x="1346" y="1597" on="0"/>
        <pt x="1346" y="1544" on="1"/>
        <pt x="1346" y="1451" on="0"/>
        <pt x="1361" y="1314" on="0"/>
        <pt x="1381" y="1213" on="0"/>
        <pt x="1403" y="1143" on="0"/>
        <pt x="1411" y="1118" on="1"/>
        <pt x="1417" y="1098" on="0"/>
        <pt x="1436" y="1041" on="0"/>
        <pt x="1436" y="1022" on="1"/>
        <pt x="1436" y="1006" on="0"/>
        <pt x="1423" y="1006" on="1"/>
        <pt x="1412" y="1007" on="0"/>
        <pt x="1382" y="1034" on="0"/>
        <pt x="1349" y="1072" on="0"/>
        <pt x="1318" y="1114" on="0"/>
        <pt x="1307" y="1130" on="1"/>
        <pt x="1262" y="1190" on="0"/>
        <pt x="1166" y="1284" on="0"/>
        <pt x="1049" y="1350" on="0"/>
        <pt x="906" y="1384" on="0"/>
        <pt x="815" y="1384" on="1"/>
        <pt x="711" y="1384" on="0"/>
        <pt x="529" y="1303" on="0"/>
        <pt x="394" y="1137" on="0"/>
        <pt x="315" y="886" on="0"/>
        <pt x="315" y="717" on="1"/>
        <pt x="315" y="561" on="0"/>
        <pt x="370" y="318" on="0"/>
        <pt x="462" y="137" on="0"/>
        <pt x="583" y="12" on="0"/>
        <pt x="716" y="-66" on="0"/>
        <pt x="852" y="-100" on="0"/>
        <pt x="913" y="-100" on="1"/>
        <pt x="1007" y="-100" on="0"/>
        <pt x="1153" y="-54" on="0"/>
        <pt x="1265" y="23" on="0"/>
        <pt x="1345" y="123" on="0"/>
        <pt x="1399" y="232" on="0"/>
        <pt x="1431" y="341" on="0"/>
        <pt x="1438" y="389" on="1"/>
        <pt x="1442" y="419" on="0"/>
        <pt x="1447" y="480" on="0"/>
        <pt x="1452" y="530" on="0"/>
        <pt x="1461" y="561" on="0"/>
        <pt x="1470" y="561" on="1"/>
        <pt x="1499" y="561" on="0"/>
        <pt x="1499" y="459" on="1"/>
        <pt x="1499" y="433" on="0"/>
        <pt x="1492" y="349" on="0"/>
        <pt x="1469" y="245" on="0"/>
        <pt x="1427" y="130" on="0"/>
        <pt x="1358" y="17" on="0"/>
        <pt x="1259" y="-85" on="0"/>
        <pt x="1121" y="-163" on="0"/>
        <pt x="940" y="-209" on="0"/>
        <pt x="825" y="-209" on="1"/>
        <pt x="728" y="-209" on="0"/>
        <pt x="531" y="-169" on="0"/>
        <pt x="350" y="-86" on="0"/>
        <pt x="193" y="43" on="0"/>
        <pt x="77" y="222" on="0"/>
        <pt x="10" y="453" on="0"/>
        <pt x="10" y="596" on="1"/>
        <pt x="10" y="767" on="0"/>
        <pt x="82" y="1025" on="0"/>
        <pt x="204" y="1213" on="0"/>
        <pt x="363" y="1336" on="0"/>
        <pt x="538" y="1410" on="0"/>
        <pt x="717" y="1440" on="0"/>
        <pt x="797" y="1440" on="1"/>
        <pt x="857" y="1440" on="0"/>
        <pt x="956" y="1430" on="0"/>
        <pt x="1039" y="1419" on="0"/>
        <pt x="1108" y="1409" on="0"/>
        <pt x="1137" y="1409" on="1"/>
        <pt x="1188" y="1409" on="0"/>
        <pt x="1256" y="1452" on="0"/>
        <pt x="1272" y="1513" on="1"/>
        <pt x="1282" y="1555" on="0"/>
        <pt x="1291" y="1633" on="0"/>
        <pt x="1300" y="1694" on="0"/>
        <pt x="1314" y="1731" on="0"/>
      </contour>
    </TTGlyph>
    <TTGlyph name="Ccedilla" xMin="10" yMin="-842" xMax="1499" yMax="1731">
      <contour>
        <pt x="1329" y="1731" on="1"/>
        <pt x="1343" y="1731" on="0"/>
        <pt x="1350" y="1703" on="0"/>
        <pt x="1350" y="1681" on="1"/>
        <pt x="1350" y="1669" on="0"/>
        <pt x="1346" y="1597" on="0"/>
        <pt x="1346" y="1544" on="1"/>
        <pt x="1346" y="1451" on="0"/>
        <pt x="1361" y="1314" on="0"/>
        <pt x="1381" y="1213" on="0"/>
        <pt x="1403" y="1143" on="0"/>
        <pt x="1411" y="1118" on="1"/>
        <pt x="1417" y="1098" on="0"/>
        <pt x="1436" y="1041" on="0"/>
        <pt x="1436" y="1022" on="1"/>
        <pt x="1436" y="1006" on="0"/>
        <pt x="1423" y="1006" on="1"/>
        <pt x="1412" y="1007" on="0"/>
        <pt x="1382" y="1034" on="0"/>
        <pt x="1349" y="1072" on="0"/>
        <pt x="1318" y="1114" on="0"/>
        <pt x="1307" y="1130" on="1"/>
        <pt x="1262" y="1190" on="0"/>
        <pt x="1166" y="1284" on="0"/>
        <pt x="1049" y="1350" on="0"/>
        <pt x="906" y="1384" on="0"/>
        <pt x="815" y="1384" on="1"/>
        <pt x="711" y="1384" on="0"/>
        <pt x="529" y="1303" on="0"/>
        <pt x="394" y="1137" on="0"/>
        <pt x="315" y="886" on="0"/>
        <pt x="315" y="717" on="1"/>
        <pt x="315" y="561" on="0"/>
        <pt x="370" y="318" on="0"/>
        <pt x="462" y="137" on="0"/>
        <pt x="583" y="12" on="0"/>
        <pt x="716" y="-66" on="0"/>
        <pt x="852" y="-100" on="0"/>
        <pt x="913" y="-100" on="1"/>
        <pt x="1007" y="-100" on="0"/>
        <pt x="1153" y="-54" on="0"/>
        <pt x="1265" y="23" on="0"/>
        <pt x="1345" y="123" on="0"/>
        <pt x="1399" y="232" on="0"/>
        <pt x="1431" y="341" on="0"/>
        <pt x="1438" y="389" on="1"/>
        <pt x="1442" y="419" on="0"/>
        <pt x="1447" y="480" on="0"/>
        <pt x="1452" y="530" on="0"/>
        <pt x="1461" y="561" on="0"/>
        <pt x="1470" y="561" on="1"/>
        <pt x="1499" y="561" on="0"/>
        <pt x="1499" y="459" on="1"/>
        <pt x="1499" y="434" on="0"/>
        <pt x="1492" y="353" on="0"/>
        <pt x="1471" y="253" on="0"/>
        <pt x="1432" y="142" on="0"/>
        <pt x="1368" y="33" on="0"/>
        <pt x="1277" y="-68" on="0"/>
        <pt x="1150" y="-149" on="0"/>
        <pt x="985" y="-201" on="0"/>
        <pt x="879" y="-207" on="1"/>
        <pt x="876" y="-222" on="0"/>
        <pt x="869" y="-262" on="0"/>
        <pt x="861" y="-301" on="0"/>
        <pt x="856" y="-335" on="0"/>
        <pt x="856" y="-344" on="1"/>
        <pt x="856" y="-347" on="0"/>
        <pt x="874" y="-352" on="0"/>
        <pt x="904" y="-361" on="0"/>
        <pt x="944" y="-375" on="0"/>
        <pt x="967" y="-387" on="1"/>
        <pt x="1025" y="-416" on="0"/>
        <pt x="1094" y="-520" on="0"/>
        <pt x="1094" y="-598" on="1"/>
        <pt x="1094" y="-637" on="0"/>
        <pt x="1066" y="-723" on="0"/>
        <pt x="1006" y="-795" on="0"/>
        <pt x="912" y="-842" on="0"/>
        <pt x="846" y="-842" on="1"/>
        <pt x="785" y="-842" on="0"/>
        <pt x="700" y="-797" on="0"/>
        <pt x="647" y="-733" on="0"/>
        <pt x="623" y="-664" on="0"/>
        <pt x="623" y="-639" on="1"/>
        <pt x="623" y="-631" on="0"/>
        <pt x="627" y="-610" on="0"/>
        <pt x="635" y="-610" on="1"/>
        <pt x="644" y="-610" on="0"/>
        <pt x="667" y="-651" on="0"/>
        <pt x="704" y="-700" on="0"/>
        <pt x="762" y="-741" on="0"/>
        <pt x="807" y="-741" on="1"/>
        <pt x="863" y="-741" on="0"/>
        <pt x="924" y="-676" on="0"/>
        <pt x="924" y="-625" on="1"/>
        <pt x="924" y="-587" on="0"/>
        <pt x="901" y="-535" on="0"/>
        <pt x="865" y="-501" on="0"/>
        <pt x="825" y="-482" on="0"/>
        <pt x="789" y="-470" on="0"/>
        <pt x="766" y="-463" on="0"/>
        <pt x="766" y="-457" on="1"/>
        <pt x="766" y="-451" on="0"/>
        <pt x="779" y="-407" on="0"/>
        <pt x="796" y="-349" on="0"/>
        <pt x="815" y="-287" on="0"/>
        <pt x="821" y="-262" on="1"/>
        <pt x="834" y="-209" on="1"/>
        <pt x="825" y="-209" on="1"/>
        <pt x="728" y="-209" on="0"/>
        <pt x="531" y="-169" on="0"/>
        <pt x="350" y="-86" on="0"/>
        <pt x="193" y="43" on="0"/>
        <pt x="77" y="222" on="0"/>
        <pt x="10" y="453" on="0"/>
        <pt x="10" y="596" on="1"/>
        <pt x="10" y="767" on="0"/>
        <pt x="82" y="1025" on="0"/>
        <pt x="204" y="1213" on="0"/>
        <pt x="363" y="1336" on="0"/>
        <pt x="538" y="1410" on="0"/>
        <pt x="717" y="1440" on="0"/>
        <pt x="797" y="1440" on="1"/>
        <pt x="857" y="1440" on="0"/>
        <pt x="956" y="1430" on="0"/>
        <pt x="1039" y="1419" on="0"/>
        <pt x="1108" y="1409" on="0"/>
        <pt x="1137" y="1409" on="1"/>
        <pt x="1188" y="1409" on="0"/>
        <pt x="1256" y="1452" on="0"/>
        <pt x="1272" y="1513" on="1"/>
        <pt x="1282" y="1555" on="0"/>
        <pt x="1291" y="1633" on="0"/>
        <pt x="1300" y="1694" on="0"/>
        <pt x="1314" y="1731" on="0"/>
      </contour>
    </TTGlyph>
    <TTGlyph name="D" xMin="0" yMin="-342" xMax="1456" yMax="1368">
      <contour>
        <pt x="883" y="1368" on="1"/>
        <pt x="987" y="1368" on="0"/>
        <pt x="1153" y="1320" on="0"/>
        <pt x="1281" y="1236" on="0"/>
        <pt x="1371" y="1121" on="0"/>
        <pt x="1429" y="986" on="0"/>
        <pt x="1456" y="836" on="0"/>
        <pt x="1456" y="760" on="1"/>
        <pt x="1456" y="665" on="0"/>
        <pt x="1418" y="483" on="0"/>
        <pt x="1334" y="324" on="0"/>
        <pt x="1199" y="196" on="0"/>
        <pt x="1102" y="154" on="1"/>
        <pt x="1048" y="130" on="0"/>
        <pt x="946" y="98" on="0"/>
        <pt x="845" y="73" on="0"/>
        <pt x="741" y="49" on="0"/>
        <pt x="630" y="18" on="0"/>
        <pt x="510" y="-26" on="0"/>
        <pt x="442" y="-59" on="1"/>
        <pt x="334" y="-112" on="0"/>
        <pt x="190" y="-213" on="0"/>
        <pt x="95" y="-293" on="0"/>
        <pt x="39" y="-342" on="0"/>
        <pt x="20" y="-342" on="1"/>
        <pt x="0" y="-342" on="0"/>
        <pt x="0" y="-322" on="1"/>
        <pt x="0" y="-309" on="0"/>
        <pt x="33" y="-278" on="0"/>
        <pt x="87" y="-233" on="0"/>
        <pt x="153" y="-169" on="0"/>
        <pt x="186" y="-123" on="1"/>
        <pt x="230" y="-63" on="0"/>
        <pt x="288" y="85" on="0"/>
        <pt x="297" y="170" on="1"/>
        <pt x="299" y="192" on="0"/>
        <pt x="304" y="265" on="0"/>
        <pt x="307" y="358" on="0"/>
        <pt x="309" y="467" on="0"/>
        <pt x="309" y="526" on="1"/>
        <pt x="309" y="618" on="0"/>
        <pt x="303" y="811" on="0"/>
        <pt x="290" y="983" on="0"/>
        <pt x="268" y="1120" on="0"/>
        <pt x="252" y="1157" on="1"/>
        <pt x="238" y="1189" on="0"/>
        <pt x="197" y="1231" on="0"/>
        <pt x="154" y="1259" on="0"/>
        <pt x="111" y="1276" on="0"/>
        <pt x="76" y="1289" on="0"/>
        <pt x="55" y="1302" on="0"/>
        <pt x="55" y="1311" on="1"/>
        <pt x="55" y="1327" on="0"/>
        <pt x="82" y="1327" on="1"/>
        <pt x="100" y="1327" on="0"/>
        <pt x="143" y="1322" on="0"/>
        <pt x="199" y="1316" on="0"/>
        <pt x="269" y="1311" on="0"/>
        <pt x="315" y="1311" on="1"/>
        <pt x="389" y="1311" on="0"/>
        <pt x="539" y="1329" on="0"/>
        <pt x="684" y="1350" on="0"/>
        <pt x="821" y="1368" on="0"/>
      </contour>
      <contour>
        <pt x="737" y="1300" on="1"/>
        <pt x="632" y="1300" on="0"/>
        <pt x="510" y="1254" on="0"/>
        <pt x="498" y="1217" on="1"/>
        <pt x="490" y="1192" on="0"/>
        <pt x="481" y="1092" on="0"/>
        <pt x="481" y="1026" on="1"/>
        <pt x="481" y="951" on="0"/>
        <pt x="488" y="774" on="0"/>
        <pt x="499" y="605" on="0"/>
        <pt x="512" y="458" on="0"/>
        <pt x="518" y="412" on="1"/>
        <pt x="524" y="365" on="0"/>
        <pt x="541" y="293" on="0"/>
        <pt x="560" y="237" on="0"/>
        <pt x="584" y="195" on="0"/>
        <pt x="598" y="178" on="1"/>
        <pt x="613" y="160" on="0"/>
        <pt x="655" y="134" on="0"/>
        <pt x="702" y="118" on="0"/>
        <pt x="751" y="111" on="0"/>
        <pt x="774" y="111" on="1"/>
        <pt x="851" y="111" on="0"/>
        <pt x="970" y="168" on="0"/>
        <pt x="1059" y="263" on="0"/>
        <pt x="1121" y="388" on="0"/>
        <pt x="1159" y="526" on="0"/>
        <pt x="1176" y="667" on="0"/>
        <pt x="1176" y="731" on="1"/>
        <pt x="1176" y="840" on="0"/>
        <pt x="1135" y="1009" on="0"/>
        <pt x="1067" y="1136" on="0"/>
        <pt x="978" y="1222" on="0"/>
        <pt x="880" y="1276" on="0"/>
        <pt x="781" y="1300" on="0"/>
      </contour>
    </TTGlyph>
    <TTGlyph name="E" xMin="20" yMin="-215" xMax="1141" yMax="1642">
      <contour>
        <pt x="1004" y="1642" on="1"/>
        <pt x="1019" y="1642" on="0"/>
        <pt x="1030" y="1628" on="0"/>
        <pt x="1030" y="1614" on="1"/>
        <pt x="1030" y="1596" on="0"/>
        <pt x="1025" y="1550" on="0"/>
        <pt x="1019" y="1481" on="0"/>
        <pt x="1014" y="1384" on="0"/>
        <pt x="1014" y="1315" on="1"/>
        <pt x="1014" y="1302" on="0"/>
        <pt x="1006" y="1282" on="0"/>
        <pt x="995" y="1282" on="1"/>
        <pt x="979" y="1282" on="0"/>
        <pt x="973" y="1315" on="1"/>
        <pt x="968" y="1336" on="0"/>
        <pt x="961" y="1401" on="0"/>
        <pt x="954" y="1448" on="1"/>
        <pt x="949" y="1486" on="0"/>
        <pt x="926" y="1528" on="0"/>
        <pt x="893" y="1548" on="0"/>
        <pt x="855" y="1552" on="0"/>
        <pt x="836" y="1552" on="1"/>
        <pt x="797" y="1552" on="0"/>
        <pt x="696" y="1545" on="0"/>
        <pt x="600" y="1536" on="0"/>
        <pt x="523" y="1526" on="0"/>
        <pt x="508" y="1522" on="1"/>
        <pt x="476" y="1514" on="0"/>
        <pt x="461" y="1477" on="0"/>
        <pt x="461" y="1452" on="1"/>
        <pt x="461" y="1430" on="0"/>
        <pt x="463" y="1347" on="0"/>
        <pt x="467" y="1240" on="0"/>
        <pt x="473" y="1117" on="0"/>
        <pt x="478" y="993" on="0"/>
        <pt x="483" y="877" on="0"/>
        <pt x="485" y="831" on="1"/>
        <pt x="507" y="828" on="0"/>
        <pt x="564" y="823" on="0"/>
        <pt x="592" y="823" on="1"/>
        <pt x="625" y="823" on="0"/>
        <pt x="670" y="832" on="0"/>
        <pt x="701" y="848" on="0"/>
        <pt x="719" y="871" on="0"/>
        <pt x="725" y="885" on="1"/>
        <pt x="731" y="900" on="0"/>
        <pt x="736" y="928" on="0"/>
        <pt x="739" y="946" on="1"/>
        <pt x="742" y="965" on="0"/>
        <pt x="754" y="977" on="0"/>
        <pt x="760" y="977" on="1"/>
        <pt x="774" y="977" on="0"/>
        <pt x="774" y="952" on="1"/>
        <pt x="774" y="930" on="0"/>
        <pt x="769" y="866" on="0"/>
        <pt x="763" y="796" on="0"/>
        <pt x="758" y="724" on="0"/>
        <pt x="758" y="694" on="1"/>
        <pt x="758" y="667" on="0"/>
        <pt x="759" y="613" on="0"/>
        <pt x="761" y="567" on="0"/>
        <pt x="762" y="531" on="0"/>
        <pt x="762" y="522" on="1"/>
        <pt x="762" y="508" on="0"/>
        <pt x="751" y="483" on="0"/>
        <pt x="737" y="483" on="1"/>
        <pt x="714" y="483" on="0"/>
        <pt x="711" y="524" on="1"/>
        <pt x="710" y="534" on="0"/>
        <pt x="709" y="570" on="0"/>
        <pt x="707" y="610" on="0"/>
        <pt x="702" y="650" on="0"/>
        <pt x="698" y="664" on="1"/>
        <pt x="693" y="681" on="0"/>
        <pt x="667" y="714" on="0"/>
        <pt x="639" y="723" on="1"/>
        <pt x="627" y="727" on="0"/>
        <pt x="592" y="733" on="0"/>
        <pt x="551" y="737" on="0"/>
        <pt x="508" y="740" on="0"/>
        <pt x="489" y="741" on="1"/>
        <pt x="492" y="691" on="0"/>
        <pt x="501" y="544" on="0"/>
        <pt x="512" y="381" on="0"/>
        <pt x="524" y="215" on="0"/>
        <pt x="534" y="77" on="0"/>
        <pt x="541" y="-18" on="0"/>
        <pt x="543" y="-29" on="1"/>
        <pt x="547" y="-70" on="0"/>
        <pt x="581" y="-108" on="0"/>
        <pt x="618" y="-113" on="1"/>
        <pt x="658" y="-119" on="0"/>
        <pt x="715" y="-119" on="1"/>
        <pt x="791" y="-119" on="0"/>
        <pt x="907" y="-103" on="0"/>
        <pt x="993" y="-63" on="0"/>
        <pt x="1053" y="4" on="0"/>
        <pt x="1073" y="55" on="1"/>
        <pt x="1084" y="82" on="0"/>
        <pt x="1099" y="135" on="0"/>
        <pt x="1110" y="177" on="0"/>
        <pt x="1120" y="203" on="0"/>
        <pt x="1126" y="203" on="1"/>
        <pt x="1134" y="203" on="0"/>
        <pt x="1141" y="166" on="0"/>
        <pt x="1141" y="141" on="1"/>
        <pt x="1141" y="105" on="0"/>
        <pt x="1134" y="18" on="0"/>
        <pt x="1122" y="-66" on="0"/>
        <pt x="1107" y="-138" on="0"/>
        <pt x="1100" y="-158" on="1"/>
        <pt x="1087" y="-190" on="0"/>
        <pt x="1043" y="-215" on="0"/>
        <pt x="1006" y="-215" on="1"/>
        <pt x="974" y="-215" on="0"/>
        <pt x="864" y="-204" on="0"/>
        <pt x="721" y="-189" on="0"/>
        <pt x="556" y="-173" on="0"/>
        <pt x="469" y="-168" on="1"/>
        <pt x="402" y="-164" on="0"/>
        <pt x="281" y="-160" on="0"/>
        <pt x="181" y="-158" on="0"/>
        <pt x="107" y="-158" on="0"/>
        <pt x="86" y="-158" on="1"/>
        <pt x="58" y="-158" on="0"/>
        <pt x="41" y="-143" on="0"/>
        <pt x="41" y="-131" on="1"/>
        <pt x="41" y="-116" on="0"/>
        <pt x="63" y="-104" on="0"/>
        <pt x="80" y="-104" on="1"/>
        <pt x="91" y="-104" on="0"/>
        <pt x="144" y="-109" on="0"/>
        <pt x="182" y="-109" on="1"/>
        <pt x="195" y="-109" on="0"/>
        <pt x="222" y="-108" on="0"/>
        <pt x="238" y="-106" on="1"/>
        <pt x="274" y="-105" on="0"/>
        <pt x="313" y="-82" on="0"/>
        <pt x="331" y="-51" on="0"/>
        <pt x="334" y="-17" on="0"/>
        <pt x="334" y="-4" on="1"/>
        <pt x="332" y="93" on="0"/>
        <pt x="315" y="314" on="0"/>
        <pt x="296" y="524" on="0"/>
        <pt x="277" y="700" on="0"/>
        <pt x="272" y="752" on="1"/>
        <pt x="269" y="786" on="0"/>
        <pt x="259" y="881" on="0"/>
        <pt x="246" y="989" on="0"/>
        <pt x="231" y="1102" on="0"/>
        <pt x="216" y="1209" on="0"/>
        <pt x="201" y="1301" on="0"/>
        <pt x="195" y="1333" on="1"/>
        <pt x="187" y="1372" on="0"/>
        <pt x="168" y="1428" on="0"/>
        <pt x="146" y="1470" on="0"/>
        <pt x="121" y="1500" on="0"/>
        <pt x="106" y="1511" on="1"/>
        <pt x="95" y="1520" on="0"/>
        <pt x="65" y="1537" on="0"/>
        <pt x="38" y="1553" on="0"/>
        <pt x="20" y="1568" on="0"/>
        <pt x="20" y="1577" on="1"/>
        <pt x="20" y="1593" on="0"/>
        <pt x="47" y="1593" on="1"/>
        <pt x="61" y="1593" on="0"/>
        <pt x="111" y="1586" on="0"/>
        <pt x="186" y="1578" on="0"/>
        <pt x="289" y="1571" on="0"/>
        <pt x="356" y="1571" on="1"/>
        <pt x="408" y="1571" on="0"/>
        <pt x="538" y="1582" on="0"/>
        <pt x="675" y="1597" on="0"/>
        <pt x="809" y="1616" on="0"/>
        <pt x="919" y="1631" on="0"/>
        <pt x="994" y="1642" on="0"/>
      </contour>
    </TTGlyph>
    <TTGlyph name="Eacute" xMin="20" yMin="-215" xMax="1141" yMax="2151">
      <component glyphName="E" x="0" y="0" flags="0x204"/>
      <component glyphName="acute" x="432" y="199" flags="0x4"/>
    </TTGlyph>
    <TTGlyph name="Ecircumflex" xMin="20" yMin="-215" xMax="1141" yMax="2210">
      <component glyphName="E" x="0" y="0" flags="0x204"/>
      <component glyphName="circumflex" x="84" y="410" flags="0x4"/>
    </TTGlyph>
    <TTGlyph name="Edieresis" xMin="20" yMin="-215" xMax="1141" yMax="2028">
      <component glyphName="E" x="0" y="0" flags="0x204"/>
      <component glyphName="dieresis.case" x="154" y="195" flags="0x4"/>
    </TTGlyph>
    <TTGlyph name="Egrave" xMin="20" yMin="-215" xMax="1141" yMax="2136">
      <component glyphName="E" x="0" y="0" flags="0x204"/>
      <component glyphName="grave" x="70" y="201" flags="0x4"/>
    </TTGlyph>
    <TTGlyph name="Eth" xMin="0" yMin="-432" xMax="1518" yMax="1221">
      <contour>
        <pt x="414" y="1180" on="1"/>
        <pt x="471" y="1184" on="0"/>
        <pt x="569" y="1198" on="0"/>
        <pt x="660" y="1212" on="0"/>
        <pt x="750" y="1221" on="0"/>
        <pt x="801" y="1221" on="1"/>
        <pt x="885" y="1221" on="0"/>
        <pt x="1057" y="1193" on="0"/>
        <pt x="1216" y="1129" on="0"/>
        <pt x="1355" y="1028" on="0"/>
        <pt x="1458" y="881" on="0"/>
        <pt x="1518" y="686" on="0"/>
        <pt x="1518" y="561" on="1"/>
        <pt x="1518" y="442" on="0"/>
        <pt x="1455" y="246" on="0"/>
        <pt x="1344" y="89" on="0"/>
        <pt x="1195" y="-30" on="0"/>
        <pt x="1108" y="-72" on="1"/>
        <pt x="1000" y="-123" on="0"/>
        <pt x="802" y="-175" on="0"/>
        <pt x="622" y="-205" on="0"/>
        <pt x="457" y="-228" on="0"/>
        <pt x="381" y="-250" on="1"/>
        <pt x="305" y="-272" on="0"/>
        <pt x="182" y="-335" on="0"/>
        <pt x="89" y="-392" on="0"/>
        <pt x="29" y="-432" on="0"/>
        <pt x="16" y="-432" on="1"/>
        <pt x="0" y="-432" on="0"/>
        <pt x="0" y="-418" on="1"/>
        <pt x="0" y="-403" on="0"/>
        <pt x="54" y="-362" on="0"/>
        <pt x="131" y="-305" on="0"/>
        <pt x="216" y="-232" on="0"/>
        <pt x="248" y="-186" on="1"/>
        <pt x="273" y="-149" on="0"/>
        <pt x="303" y="-15" on="0"/>
        <pt x="318" y="149" on="0"/>
        <pt x="322" y="329" on="0"/>
        <pt x="322" y="414" on="1"/>
        <pt x="286" y="408" on="0"/>
        <pt x="212" y="397" on="0"/>
        <pt x="144" y="388" on="0"/>
        <pt x="86" y="383" on="0"/>
        <pt x="66" y="383" on="1"/>
        <pt x="56" y="383" on="0"/>
        <pt x="33" y="397" on="0"/>
        <pt x="33" y="414" on="1"/>
        <pt x="33" y="434" on="0"/>
        <pt x="58" y="449" on="0"/>
        <pt x="72" y="451" on="1"/>
        <pt x="178" y="460" on="0"/>
        <pt x="324" y="481" on="1"/>
        <pt x="326" y="538" on="0"/>
        <pt x="330" y="690" on="0"/>
        <pt x="330" y="768" on="1"/>
        <pt x="330" y="831" on="0"/>
        <pt x="327" y="950" on="0"/>
        <pt x="322" y="1001" on="1"/>
        <pt x="320" y="1032" on="0"/>
        <pt x="302" y="1069" on="0"/>
        <pt x="275" y="1089" on="0"/>
        <pt x="239" y="1097" on="0"/>
        <pt x="197" y="1099" on="0"/>
        <pt x="152" y="1099" on="0"/>
        <pt x="129" y="1102" on="1"/>
        <pt x="104" y="1105" on="0"/>
        <pt x="86" y="1127" on="0"/>
        <pt x="86" y="1141" on="1"/>
        <pt x="86" y="1153" on="0"/>
        <pt x="109" y="1178" on="0"/>
        <pt x="147" y="1178" on="1"/>
        <pt x="161" y="1178" on="0"/>
        <pt x="224" y="1174" on="0"/>
        <pt x="272" y="1174" on="1"/>
        <pt x="330" y="1174" on="0"/>
      </contour>
      <contour>
        <pt x="719" y="539" on="1"/>
        <pt x="739" y="539" on="0"/>
        <pt x="758" y="525" on="0"/>
        <pt x="758" y="516" on="1"/>
        <pt x="758" y="498" on="0"/>
        <pt x="718" y="479" on="0"/>
        <pt x="692" y="473" on="1"/>
        <pt x="660" y="465" on="0"/>
        <pt x="594" y="455" on="0"/>
        <pt x="547" y="449" on="1"/>
        <pt x="547" y="406" on="0"/>
        <pt x="549" y="298" on="0"/>
        <pt x="554" y="184" on="0"/>
        <pt x="562" y="73" on="0"/>
        <pt x="567" y="27" on="1"/>
        <pt x="572" y="-14" on="0"/>
        <pt x="593" y="-67" on="0"/>
        <pt x="626" y="-99" on="0"/>
        <pt x="672" y="-111" on="0"/>
        <pt x="702" y="-111" on="1"/>
        <pt x="730" y="-111" on="0"/>
        <pt x="802" y="-92" on="0"/>
        <pt x="878" y="-57" on="0"/>
        <pt x="951" y="-10" on="0"/>
        <pt x="981" y="18" on="1"/>
        <pt x="1018" y="54" on="0"/>
        <pt x="1082" y="152" on="0"/>
        <pt x="1129" y="284" on="0"/>
        <pt x="1155" y="456" on="0"/>
        <pt x="1155" y="567" on="1"/>
        <pt x="1155" y="687" on="0"/>
        <pt x="1091" y="897" on="0"/>
        <pt x="967" y="1053" on="0"/>
        <pt x="787" y="1143" on="0"/>
        <pt x="670" y="1143" on="1"/>
        <pt x="636" y="1143" on="0"/>
        <pt x="578" y="1131" on="0"/>
        <pt x="567" y="1120" on="1"/>
        <pt x="559" y="1112" on="0"/>
        <pt x="550" y="1075" on="0"/>
        <pt x="546" y="1033" on="0"/>
        <pt x="545" y="991" on="0"/>
        <pt x="545" y="977" on="1"/>
        <pt x="545" y="514" on="1"/>
        <pt x="611" y="525" on="0"/>
        <pt x="699" y="539" on="0"/>
      </contour>
    </TTGlyph>
    <TTGlyph name="Euro" xMin="-10" yMin="-94" xMax="1724" yMax="1640">
      <contour>
        <pt x="1040" y="1016" on="1"/>
        <pt x="1063" y="1016" on="0"/>
        <pt x="1063" y="999" on="1"/>
        <pt x="1063" y="988" on="0"/>
        <pt x="1047" y="972" on="0"/>
        <pt x="1024" y="961" on="1"/>
        <pt x="1017" y="957" on="0"/>
        <pt x="962" y="937" on="0"/>
        <pt x="883" y="908" on="0"/>
        <pt x="786" y="873" on="0"/>
        <pt x="687" y="838" on="0"/>
        <pt x="595" y="806" on="0"/>
        <pt x="559" y="793" on="1"/>
        <pt x="557" y="764" on="0"/>
        <pt x="555" y="705" on="0"/>
        <pt x="555" y="676" on="1"/>
        <pt x="634" y="701" on="0"/>
        <pt x="770" y="748" on="0"/>
        <pt x="876" y="785" on="0"/>
        <pt x="950" y="807" on="0"/>
        <pt x="967" y="807" on="1"/>
        <pt x="976" y="807" on="0"/>
        <pt x="981" y="800" on="0"/>
        <pt x="981" y="797" on="1"/>
        <pt x="981" y="790" on="0"/>
        <pt x="967" y="772" on="0"/>
        <pt x="944" y="758" on="1"/>
        <pt x="915" y="741" on="0"/>
        <pt x="823" y="698" on="0"/>
        <pt x="715" y="651" on="0"/>
        <pt x="604" y="606" on="0"/>
        <pt x="557" y="588" on="1"/>
        <pt x="564" y="461" on="0"/>
        <pt x="623" y="262" on="0"/>
        <pt x="732" y="124" on="0"/>
        <pt x="893" y="51" on="0"/>
        <pt x="1001" y="51" on="1"/>
        <pt x="1079" y="51" on="0"/>
        <pt x="1194" y="97" on="0"/>
        <pt x="1275" y="170" on="0"/>
        <pt x="1327" y="263" on="0"/>
        <pt x="1356" y="356" on="0"/>
        <pt x="1367" y="441" on="0"/>
        <pt x="1368" y="471" on="1"/>
        <pt x="1368" y="497" on="0"/>
        <pt x="1379" y="526" on="0"/>
        <pt x="1393" y="526" on="1"/>
        <pt x="1404" y="526" on="0"/>
        <pt x="1417" y="501" on="0"/>
        <pt x="1417" y="473" on="1"/>
        <pt x="1417" y="458" on="0"/>
        <pt x="1414" y="393" on="0"/>
        <pt x="1400" y="307" on="0"/>
        <pt x="1371" y="208" on="0"/>
        <pt x="1320" y="109" on="0"/>
        <pt x="1244" y="18" on="0"/>
        <pt x="1133" y="-52" on="0"/>
        <pt x="985" y="-94" on="0"/>
        <pt x="889" y="-94" on="1"/>
        <pt x="755" y="-94" on="0"/>
        <pt x="542" y="1" on="0"/>
        <pt x="384" y="159" on="0"/>
        <pt x="283" y="366" on="0"/>
        <pt x="262" y="477" on="1"/>
        <pt x="177" y="445" on="0"/>
        <pt x="67" y="410" on="0"/>
        <pt x="39" y="410" on="1"/>
        <pt x="20" y="410" on="0"/>
        <pt x="-10" y="432" on="0"/>
        <pt x="-10" y="455" on="1"/>
        <pt x="-10" y="484" on="0"/>
        <pt x="35" y="516" on="0"/>
        <pt x="82" y="528" on="1"/>
        <pt x="128" y="539" on="0"/>
        <pt x="210" y="562" on="0"/>
        <pt x="248" y="573" on="1"/>
        <pt x="246" y="590" on="0"/>
        <pt x="246" y="624" on="0"/>
        <pt x="246" y="641" on="1"/>
        <pt x="246" y="688" on="1"/>
        <pt x="193" y="671" on="0"/>
        <pt x="103" y="649" on="0"/>
        <pt x="78" y="649" on="1"/>
        <pt x="61" y="649" on="0"/>
        <pt x="41" y="666" on="0"/>
        <pt x="41" y="678" on="1"/>
        <pt x="41" y="695" on="0"/>
        <pt x="66" y="715" on="0"/>
        <pt x="88" y="721" on="1"/>
        <pt x="254" y="768" on="1"/>
        <pt x="275" y="935" on="0"/>
        <pt x="410" y="1219" on="0"/>
        <pt x="618" y="1426" on="0"/>
        <pt x="888" y="1542" on="0"/>
        <pt x="1044" y="1542" on="1"/>
        <pt x="1145" y="1542" on="0"/>
        <pt x="1284" y="1504" on="0"/>
        <pt x="1384" y="1457" on="0"/>
        <pt x="1458" y="1419" on="0"/>
        <pt x="1493" y="1419" on="1"/>
        <pt x="1520" y="1419" on="0"/>
        <pt x="1566" y="1452" on="0"/>
        <pt x="1605" y="1501" on="0"/>
        <pt x="1638" y="1558" on="0"/>
        <pt x="1667" y="1607" on="0"/>
        <pt x="1693" y="1640" on="0"/>
        <pt x="1706" y="1640" on="1"/>
        <pt x="1715" y="1640" on="0"/>
        <pt x="1724" y="1627" on="0"/>
        <pt x="1724" y="1618" on="1"/>
        <pt x="1724" y="1597" on="0"/>
        <pt x="1700" y="1543" on="0"/>
        <pt x="1665" y="1472" on="0"/>
        <pt x="1624" y="1382" on="0"/>
        <pt x="1606" y="1327" on="1"/>
        <pt x="1586" y="1268" on="0"/>
        <pt x="1561" y="1173" on="0"/>
        <pt x="1545" y="1093" on="0"/>
        <pt x="1536" y="1025" on="0"/>
        <pt x="1532" y="993" on="1"/>
        <pt x="1529" y="969" on="0"/>
        <pt x="1518" y="938" on="0"/>
        <pt x="1507" y="938" on="1"/>
        <pt x="1495" y="938" on="0"/>
        <pt x="1484" y="976" on="0"/>
        <pt x="1481" y="1010" on="1"/>
        <pt x="1478" y="1041" on="0"/>
        <pt x="1463" y="1134" on="0"/>
        <pt x="1430" y="1237" on="0"/>
        <pt x="1377" y="1340" on="0"/>
        <pt x="1295" y="1422" on="0"/>
        <pt x="1179" y="1473" on="0"/>
        <pt x="1100" y="1473" on="1"/>
        <pt x="992" y="1473" on="0"/>
        <pt x="812" y="1381" on="0"/>
        <pt x="675" y="1218" on="0"/>
        <pt x="585" y="994" on="0"/>
        <pt x="567" y="862" on="1"/>
        <pt x="598" y="870" on="1"/>
        <pt x="707" y="903" on="0"/>
        <pt x="859" y="957" on="0"/>
        <pt x="961" y="995" on="0"/>
        <pt x="1022" y="1016" on="0"/>
      </contour>
    </TTGlyph>
    <TTGlyph name="F" xMin="20" yMin="-78" xMax="1133" yMax="1724">
      <contour>
        <pt x="1079" y="1724" on="1"/>
        <pt x="1102" y="1724" on="0"/>
        <pt x="1133" y="1697" on="0"/>
        <pt x="1133" y="1659" on="1"/>
        <pt x="1133" y="1632" on="0"/>
        <pt x="1119" y="1545" on="0"/>
        <pt x="1101" y="1457" on="0"/>
        <pt x="1084" y="1384" on="0"/>
        <pt x="1081" y="1370" on="1"/>
        <pt x="1079" y="1361" on="0"/>
        <pt x="1068" y="1317" on="0"/>
        <pt x="1051" y="1263" on="0"/>
        <pt x="1032" y="1205" on="0"/>
        <pt x="1012" y="1157" on="0"/>
        <pt x="993" y="1126" on="0"/>
        <pt x="985" y="1126" on="1"/>
        <pt x="980" y="1126" on="0"/>
        <pt x="973" y="1136" on="0"/>
        <pt x="973" y="1153" on="1"/>
        <pt x="973" y="1170" on="0"/>
        <pt x="979" y="1231" on="0"/>
        <pt x="985" y="1306" on="0"/>
        <pt x="991" y="1387" on="0"/>
        <pt x="991" y="1423" on="1"/>
        <pt x="991" y="1478" on="0"/>
        <pt x="968" y="1541" on="0"/>
        <pt x="925" y="1574" on="0"/>
        <pt x="864" y="1583" on="0"/>
        <pt x="827" y="1583" on="1"/>
        <pt x="778" y="1583" on="0"/>
        <pt x="659" y="1570" on="0"/>
        <pt x="606" y="1556" on="1"/>
        <pt x="562" y="1545" on="0"/>
        <pt x="535" y="1491" on="0"/>
        <pt x="535" y="1448" on="1"/>
        <pt x="535" y="1441" on="0"/>
        <pt x="537" y="1343" on="0"/>
        <pt x="541" y="1189" on="0"/>
        <pt x="546" y="990" on="0"/>
        <pt x="549" y="883" on="1"/>
        <pt x="577" y="885" on="0"/>
        <pt x="635" y="892" on="0"/>
        <pt x="655" y="901" on="1"/>
        <pt x="676" y="910" on="0"/>
        <pt x="705" y="939" on="0"/>
        <pt x="723" y="972" on="0"/>
        <pt x="734" y="1006" on="0"/>
        <pt x="737" y="1020" on="1"/>
        <pt x="753" y="1084" on="0"/>
        <pt x="771" y="1137" on="0"/>
        <pt x="786" y="1137" on="1"/>
        <pt x="805" y="1137" on="0"/>
        <pt x="805" y="1100" on="1"/>
        <pt x="805" y="1082" on="0"/>
        <pt x="797" y="1032" on="0"/>
        <pt x="786" y="969" on="0"/>
        <pt x="778" y="893" on="0"/>
        <pt x="778" y="850" on="1"/>
        <pt x="778" y="811" on="0"/>
        <pt x="781" y="729" on="0"/>
        <pt x="785" y="659" on="0"/>
        <pt x="788" y="604" on="0"/>
        <pt x="788" y="592" on="1"/>
        <pt x="788" y="558" on="0"/>
        <pt x="775" y="524" on="0"/>
        <pt x="764" y="524" on="1"/>
        <pt x="752" y="524" on="0"/>
        <pt x="736" y="561" on="0"/>
        <pt x="735" y="614" on="1"/>
        <pt x="734" y="653" on="0"/>
        <pt x="727" y="718" on="0"/>
        <pt x="708" y="767" on="0"/>
        <pt x="674" y="800" on="0"/>
        <pt x="647" y="809" on="1"/>
        <pt x="630" y="814" on="0"/>
        <pt x="577" y="817" on="0"/>
        <pt x="551" y="817" on="1"/>
        <pt x="554" y="710" on="0"/>
        <pt x="561" y="498" on="0"/>
        <pt x="567" y="317" on="0"/>
        <pt x="573" y="181" on="0"/>
        <pt x="575" y="150" on="1"/>
        <pt x="578" y="102" on="0"/>
        <pt x="596" y="43" on="0"/>
        <pt x="626" y="7" on="0"/>
        <pt x="666" y="-11" on="0"/>
        <pt x="692" y="-18" on="1"/>
        <pt x="701" y="-21" on="0"/>
        <pt x="723" y="-25" on="0"/>
        <pt x="744" y="-33" on="0"/>
        <pt x="758" y="-44" on="0"/>
        <pt x="758" y="-53" on="1"/>
        <pt x="758" y="-62" on="0"/>
        <pt x="747" y="-72" on="0"/>
        <pt x="730" y="-77" on="0"/>
        <pt x="711" y="-78" on="0"/>
        <pt x="702" y="-78" on="1"/>
        <pt x="687" y="-78" on="0"/>
        <pt x="633" y="-71" on="0"/>
        <pt x="563" y="-64" on="0"/>
        <pt x="483" y="-57" on="0"/>
        <pt x="442" y="-57" on="1"/>
        <pt x="405" y="-57" on="0"/>
        <pt x="337" y="-62" on="0"/>
        <pt x="265" y="-69" on="0"/>
        <pt x="187" y="-74" on="0"/>
        <pt x="141" y="-74" on="1"/>
        <pt x="113" y="-74" on="0"/>
        <pt x="79" y="-68" on="0"/>
        <pt x="61" y="-59" on="0"/>
        <pt x="55" y="-47" on="0"/>
        <pt x="55" y="-41" on="1"/>
        <pt x="55" y="-18" on="0"/>
        <pt x="92" y="-12" on="1"/>
        <pt x="101" y="-11" on="0"/>
        <pt x="141" y="-8" on="0"/>
        <pt x="190" y="-4" on="0"/>
        <pt x="242" y="3" on="0"/>
        <pt x="262" y="8" on="1"/>
        <pt x="283" y="14" on="0"/>
        <pt x="325" y="35" on="0"/>
        <pt x="357" y="72" on="0"/>
        <pt x="377" y="133" on="0"/>
        <pt x="377" y="180" on="1"/>
        <pt x="377" y="260" on="0"/>
        <pt x="364" y="468" on="0"/>
        <pt x="343" y="693" on="0"/>
        <pt x="316" y="920" on="0"/>
        <pt x="287" y="1123" on="0"/>
        <pt x="259" y="1284" on="0"/>
        <pt x="248" y="1331" on="1"/>
        <pt x="239" y="1369" on="0"/>
        <pt x="205" y="1416" on="0"/>
        <pt x="162" y="1443" on="0"/>
        <pt x="111" y="1456" on="0"/>
        <pt x="84" y="1460" on="1"/>
        <pt x="55" y="1465" on="0"/>
        <pt x="20" y="1481" on="0"/>
        <pt x="20" y="1499" on="1"/>
        <pt x="20" y="1516" on="0"/>
        <pt x="47" y="1528" on="0"/>
        <pt x="66" y="1528" on="1"/>
        <pt x="151" y="1528" on="0"/>
        <pt x="407" y="1552" on="0"/>
        <pt x="569" y="1589" on="1"/>
        <pt x="694" y="1617" on="0"/>
        <pt x="863" y="1667" on="0"/>
        <pt x="977" y="1703" on="0"/>
        <pt x="1050" y="1724" on="0"/>
      </contour>
    </TTGlyph>
    <TTGlyph name="G" xMin="10" yMin="-45" xMax="1546" yMax="1497">
      <contour>
        <pt x="788" y="1335" on="1"/>
        <pt x="868" y="1335" on="0"/>
        <pt x="988" y="1315" on="0"/>
        <pt x="1087" y="1290" on="0"/>
        <pt x="1173" y="1270" on="0"/>
        <pt x="1219" y="1270" on="1"/>
        <pt x="1314" y="1270" on="0"/>
        <pt x="1399" y="1358" on="1"/>
        <pt x="1423" y="1383" on="0"/>
        <pt x="1458" y="1433" on="0"/>
        <pt x="1486" y="1472" on="0"/>
        <pt x="1511" y="1497" on="0"/>
        <pt x="1524" y="1497" on="1"/>
        <pt x="1546" y="1497" on="0"/>
        <pt x="1546" y="1473" on="1"/>
        <pt x="1546" y="1458" on="0"/>
        <pt x="1504" y="1392" on="0"/>
        <pt x="1446" y="1308" on="0"/>
        <pt x="1385" y="1218" on="0"/>
        <pt x="1366" y="1180" on="1"/>
        <pt x="1347" y="1141" on="0"/>
        <pt x="1320" y="1079" on="0"/>
        <pt x="1296" y="1018" on="0"/>
        <pt x="1272" y="953" on="0"/>
        <pt x="1257" y="911" on="1"/>
        <pt x="1245" y="876" on="0"/>
        <pt x="1217" y="834" on="0"/>
        <pt x="1198" y="834" on="1"/>
        <pt x="1174" y="834" on="0"/>
        <pt x="1174" y="874" on="1"/>
        <pt x="1174" y="890" on="0"/>
        <pt x="1184" y="953" on="0"/>
        <pt x="1184" y="991" on="1"/>
        <pt x="1184" y="1135" on="0"/>
        <pt x="984" y="1286" on="0"/>
        <pt x="799" y="1286" on="1"/>
        <pt x="748" y="1286" on="0"/>
        <pt x="635" y="1258" on="0"/>
        <pt x="525" y="1195" on="0"/>
        <pt x="425" y="1094" on="0"/>
        <pt x="350" y="947" on="0"/>
        <pt x="305" y="750" on="0"/>
        <pt x="305" y="623" on="1"/>
        <pt x="305" y="548" on="0"/>
        <pt x="325" y="412" on="0"/>
        <pt x="361" y="294" on="0"/>
        <pt x="409" y="198" on="0"/>
        <pt x="438" y="164" on="1"/>
        <pt x="475" y="120" on="0"/>
        <pt x="559" y="66" on="0"/>
        <pt x="644" y="36" on="0"/>
        <pt x="724" y="25" on="0"/>
        <pt x="758" y="25" on="1"/>
        <pt x="820" y="25" on="0"/>
        <pt x="919" y="48" on="0"/>
        <pt x="995" y="85" on="0"/>
        <pt x="1048" y="132" on="0"/>
        <pt x="1065" y="156" on="1"/>
        <pt x="1079" y="175" on="0"/>
        <pt x="1099" y="225" on="0"/>
        <pt x="1112" y="278" on="0"/>
        <pt x="1118" y="331" on="0"/>
        <pt x="1118" y="354" on="1"/>
        <pt x="1118" y="393" on="0"/>
        <pt x="1109" y="465" on="0"/>
        <pt x="1080" y="519" on="0"/>
        <pt x="1028" y="551" on="0"/>
        <pt x="985" y="551" on="1"/>
        <pt x="928" y="551" on="0"/>
        <pt x="835" y="535" on="0"/>
        <pt x="784" y="535" on="1"/>
        <pt x="763" y="535" on="0"/>
        <pt x="739" y="549" on="0"/>
        <pt x="739" y="563" on="1"/>
        <pt x="739" y="576" on="0"/>
        <pt x="759" y="596" on="0"/>
        <pt x="793" y="596" on="1"/>
        <pt x="848" y="596" on="0"/>
        <pt x="1023" y="611" on="0"/>
        <pt x="1145" y="633" on="1"/>
        <pt x="1212" y="645" on="0"/>
        <pt x="1309" y="671" on="0"/>
        <pt x="1378" y="692" on="0"/>
        <pt x="1426" y="705" on="0"/>
        <pt x="1446" y="705" on="1"/>
        <pt x="1473" y="705" on="0"/>
        <pt x="1473" y="688" on="1"/>
        <pt x="1473" y="679" on="0"/>
        <pt x="1461" y="667" on="0"/>
        <pt x="1440" y="656" on="0"/>
        <pt x="1412" y="644" on="0"/>
        <pt x="1397" y="635" on="1"/>
        <pt x="1366" y="616" on="0"/>
        <pt x="1335" y="546" on="0"/>
        <pt x="1335" y="477" on="1"/>
        <pt x="1335" y="441" on="0"/>
        <pt x="1341" y="357" on="0"/>
        <pt x="1348" y="278" on="0"/>
        <pt x="1357" y="210" on="0"/>
        <pt x="1360" y="190" on="1"/>
        <pt x="1365" y="163" on="0"/>
        <pt x="1372" y="110" on="0"/>
        <pt x="1372" y="96" on="1"/>
        <pt x="1372" y="85" on="0"/>
        <pt x="1364" y="72" on="0"/>
        <pt x="1356" y="72" on="1"/>
        <pt x="1344" y="72" on="0"/>
        <pt x="1313" y="90" on="0"/>
        <pt x="1274" y="113" on="0"/>
        <pt x="1230" y="131" on="0"/>
        <pt x="1206" y="131" on="1"/>
        <pt x="1175" y="131" on="0"/>
        <pt x="1116" y="105" on="0"/>
        <pt x="1050" y="66" on="0"/>
        <pt x="970" y="20" on="0"/>
        <pt x="863" y="-19" on="0"/>
        <pt x="724" y="-45" on="0"/>
        <pt x="633" y="-45" on="1"/>
        <pt x="503" y="-45" on="0"/>
        <pt x="276" y="42" on="0"/>
        <pt x="107" y="204" on="0"/>
        <pt x="10" y="432" on="0"/>
        <pt x="10" y="573" on="1"/>
        <pt x="10" y="705" on="0"/>
        <pt x="73" y="917" on="0"/>
        <pt x="179" y="1080" on="0"/>
        <pt x="315" y="1198" on="0"/>
        <pt x="389" y="1237" on="1"/>
        <pt x="445" y="1267" on="0"/>
        <pt x="556" y="1305" on="0"/>
        <pt x="660" y="1327" on="0"/>
        <pt x="751" y="1335" on="0"/>
      </contour>
    </TTGlyph>
    <TTGlyph name="H" xMin="0" yMin="-266" xMax="1522" yMax="1794">
      <contour>
        <pt x="88" y="1794" on="1"/>
        <pt x="106" y="1794" on="0"/>
        <pt x="165" y="1774" on="0"/>
        <pt x="246" y="1745" on="0"/>
        <pt x="347" y="1714" on="0"/>
        <pt x="406" y="1702" on="1"/>
        <pt x="464" y="1690" on="0"/>
        <pt x="593" y="1675" on="0"/>
        <pt x="707" y="1666" on="0"/>
        <pt x="794" y="1660" on="0"/>
        <pt x="809" y="1659" on="1"/>
        <pt x="823" y="1657" on="0"/>
        <pt x="840" y="1650" on="0"/>
        <pt x="840" y="1640" on="1"/>
        <pt x="840" y="1629" on="0"/>
        <pt x="822" y="1622" on="0"/>
        <pt x="811" y="1622" on="1"/>
        <pt x="789" y="1622" on="0"/>
        <pt x="704" y="1628" on="0"/>
        <pt x="657" y="1628" on="1"/>
        <pt x="622" y="1628" on="0"/>
        <pt x="569" y="1615" on="0"/>
        <pt x="534" y="1585" on="0"/>
        <pt x="514" y="1536" on="0"/>
        <pt x="512" y="1499" on="1"/>
        <pt x="510" y="1478" on="0"/>
        <pt x="509" y="1411" on="0"/>
        <pt x="508" y="1329" on="0"/>
        <pt x="508" y="1236" on="0"/>
        <pt x="508" y="1188" on="1"/>
        <pt x="508" y="1130" on="0"/>
        <pt x="508" y="1020" on="0"/>
        <pt x="508" y="928" on="0"/>
        <pt x="509" y="864" on="0"/>
        <pt x="510" y="852" on="1"/>
        <pt x="511" y="826" on="0"/>
        <pt x="521" y="794" on="0"/>
        <pt x="539" y="776" on="0"/>
        <pt x="563" y="770" on="0"/>
        <pt x="578" y="770" on="1"/>
        <pt x="606" y="770" on="0"/>
        <pt x="686" y="775" on="0"/>
        <pt x="777" y="783" on="0"/>
        <pt x="869" y="794" on="0"/>
        <pt x="948" y="803" on="0"/>
        <pt x="1008" y="811" on="0"/>
        <pt x="1020" y="813" on="1"/>
        <pt x="1054" y="819" on="0"/>
        <pt x="1094" y="853" on="0"/>
        <pt x="1113" y="901" on="0"/>
        <pt x="1118" y="962" on="0"/>
        <pt x="1118" y="995" on="1"/>
        <pt x="1118" y="1040" on="0"/>
        <pt x="1111" y="1135" on="0"/>
        <pt x="1101" y="1221" on="0"/>
        <pt x="1090" y="1291" on="0"/>
        <pt x="1087" y="1309" on="1"/>
        <pt x="1081" y="1348" on="0"/>
        <pt x="1057" y="1391" on="0"/>
        <pt x="1028" y="1412" on="0"/>
        <pt x="997" y="1417" on="0"/>
        <pt x="985" y="1417" on="1"/>
        <pt x="951" y="1417" on="0"/>
        <pt x="880" y="1413" on="0"/>
        <pt x="860" y="1413" on="1"/>
        <pt x="840" y="1413" on="0"/>
        <pt x="819" y="1429" on="0"/>
        <pt x="819" y="1442" on="1"/>
        <pt x="819" y="1453" on="0"/>
        <pt x="836" y="1473" on="0"/>
        <pt x="868" y="1475" on="1"/>
        <pt x="898" y="1476" on="0"/>
        <pt x="973" y="1481" on="0"/>
        <pt x="1056" y="1490" on="0"/>
        <pt x="1142" y="1502" on="0"/>
        <pt x="1184" y="1511" on="1"/>
        <pt x="1222" y="1520" on="0"/>
        <pt x="1309" y="1545" on="0"/>
        <pt x="1392" y="1568" on="0"/>
        <pt x="1464" y="1585" on="0"/>
        <pt x="1487" y="1585" on="1"/>
        <pt x="1510" y="1585" on="0"/>
        <pt x="1522" y="1571" on="0"/>
        <pt x="1522" y="1563" on="1"/>
        <pt x="1522" y="1549" on="0"/>
        <pt x="1499" y="1538" on="0"/>
        <pt x="1485" y="1538" on="1"/>
        <pt x="1478" y="1538" on="0"/>
        <pt x="1454" y="1536" on="0"/>
        <pt x="1428" y="1531" on="0"/>
        <pt x="1402" y="1523" on="0"/>
        <pt x="1393" y="1516" on="1"/>
        <pt x="1377" y="1503" on="0"/>
        <pt x="1350" y="1458" on="0"/>
        <pt x="1343" y="1413" on="1"/>
        <pt x="1338" y="1377" on="0"/>
        <pt x="1333" y="1268" on="0"/>
        <pt x="1329" y="1148" on="0"/>
        <pt x="1326" y="1028" on="0"/>
        <pt x="1325" y="981" on="1"/>
        <pt x="1324" y="957" on="0"/>
        <pt x="1321" y="864" on="0"/>
        <pt x="1319" y="743" on="0"/>
        <pt x="1316" y="600" on="0"/>
        <pt x="1314" y="453" on="0"/>
        <pt x="1313" y="306" on="0"/>
        <pt x="1313" y="242" on="1"/>
        <pt x="1313" y="188" on="0"/>
        <pt x="1313" y="98" on="0"/>
        <pt x="1315" y="66" on="1"/>
        <pt x="1316" y="34" on="0"/>
        <pt x="1331" y="-7" on="0"/>
        <pt x="1351" y="-32" on="0"/>
        <pt x="1374" y="-45" on="0"/>
        <pt x="1384" y="-49" on="1"/>
        <pt x="1406" y="-57" on="0"/>
        <pt x="1456" y="-65" on="0"/>
        <pt x="1485" y="-72" on="1"/>
        <pt x="1499" y="-75" on="0"/>
        <pt x="1507" y="-84" on="0"/>
        <pt x="1507" y="-90" on="1"/>
        <pt x="1507" y="-92" on="0"/>
        <pt x="1505" y="-99" on="0"/>
        <pt x="1498" y="-105" on="0"/>
        <pt x="1482" y="-109" on="0"/>
        <pt x="1468" y="-109" on="1"/>
        <pt x="1456" y="-109" on="0"/>
        <pt x="1395" y="-104" on="0"/>
        <pt x="1319" y="-97" on="0"/>
        <pt x="1239" y="-92" on="0"/>
        <pt x="1208" y="-92" on="1"/>
        <pt x="1167" y="-92" on="0"/>
        <pt x="1087" y="-99" on="0"/>
        <pt x="1015" y="-108" on="0"/>
        <pt x="951" y="-115" on="0"/>
        <pt x="926" y="-115" on="1"/>
        <pt x="884" y="-115" on="0"/>
        <pt x="860" y="-94" on="0"/>
        <pt x="860" y="-82" on="1"/>
        <pt x="860" y="-66" on="0"/>
        <pt x="885" y="-57" on="0"/>
        <pt x="903" y="-57" on="1"/>
        <pt x="960" y="-55" on="0"/>
        <pt x="1037" y="-48" on="0"/>
        <pt x="1071" y="-33" on="1"/>
        <pt x="1096" y="-21" on="0"/>
        <pt x="1127" y="12" on="0"/>
        <pt x="1142" y="51" on="0"/>
        <pt x="1147" y="92" on="0"/>
        <pt x="1147" y="111" on="1"/>
        <pt x="1147" y="126" on="0"/>
        <pt x="1143" y="204" on="0"/>
        <pt x="1136" y="309" on="0"/>
        <pt x="1127" y="428" on="0"/>
        <pt x="1117" y="541" on="0"/>
        <pt x="1108" y="635" on="0"/>
        <pt x="1104" y="662" on="1"/>
        <pt x="1099" y="692" on="0"/>
        <pt x="1084" y="727" on="0"/>
        <pt x="1063" y="745" on="0"/>
        <pt x="1035" y="750" on="0"/>
        <pt x="1018" y="750" on="1"/>
        <pt x="1000" y="750" on="0"/>
        <pt x="927" y="744" on="0"/>
        <pt x="836" y="735" on="0"/>
        <pt x="737" y="723" on="0"/>
        <pt x="650" y="711" on="0"/>
        <pt x="582" y="699" on="0"/>
        <pt x="569" y="694" on="1"/>
        <pt x="550" y="688" on="0"/>
        <pt x="528" y="668" on="0"/>
        <pt x="518" y="645" on="0"/>
        <pt x="515" y="620" on="0"/>
        <pt x="514" y="608" on="1"/>
        <pt x="514" y="579" on="0"/>
        <pt x="515" y="479" on="0"/>
        <pt x="516" y="358" on="0"/>
        <pt x="518" y="225" on="0"/>
        <pt x="519" y="101" on="0"/>
        <pt x="520" y="-4" on="0"/>
        <pt x="520" y="-37" on="1"/>
        <pt x="520" y="-84" on="0"/>
        <pt x="532" y="-142" on="0"/>
        <pt x="552" y="-177" on="0"/>
        <pt x="580" y="-198" on="0"/>
        <pt x="596" y="-207" on="1"/>
        <pt x="613" y="-216" on="0"/>
        <pt x="643" y="-231" on="0"/>
        <pt x="643" y="-244" on="1"/>
        <pt x="643" y="-252" on="0"/>
        <pt x="630" y="-258" on="0"/>
        <pt x="621" y="-258" on="1"/>
        <pt x="600" y="-258" on="0"/>
        <pt x="555" y="-246" on="0"/>
        <pt x="495" y="-233" on="0"/>
        <pt x="412" y="-221" on="0"/>
        <pt x="354" y="-221" on="1"/>
        <pt x="294" y="-221" on="0"/>
        <pt x="193" y="-235" on="0"/>
        <pt x="113" y="-252" on="0"/>
        <pt x="55" y="-266" on="0"/>
        <pt x="37" y="-266" on="1"/>
        <pt x="0" y="-266" on="0"/>
        <pt x="0" y="-240" on="1"/>
        <pt x="0" y="-224" on="0"/>
        <pt x="17" y="-210" on="0"/>
        <pt x="31" y="-205" on="1"/>
        <pt x="37" y="-203" on="0"/>
        <pt x="65" y="-197" on="0"/>
        <pt x="104" y="-190" on="0"/>
        <pt x="150" y="-180" on="0"/>
        <pt x="174" y="-174" on="1"/>
        <pt x="206" y="-166" on="0"/>
        <pt x="242" y="-138" on="0"/>
        <pt x="259" y="-103" on="0"/>
        <pt x="263" y="-63" on="0"/>
        <pt x="264" y="-43" on="1"/>
        <pt x="264" y="-37" on="0"/>
        <pt x="266" y="32" on="0"/>
        <pt x="270" y="137" on="0"/>
        <pt x="274" y="272" on="0"/>
        <pt x="278" y="417" on="0"/>
        <pt x="280" y="562" on="0"/>
        <pt x="281" y="627" on="1"/>
        <pt x="281" y="642" on="0"/>
        <pt x="282" y="711" on="0"/>
        <pt x="282" y="807" on="0"/>
        <pt x="283" y="925" on="0"/>
        <pt x="283" y="989" on="1"/>
        <pt x="283" y="1074" on="0"/>
        <pt x="282" y="1250" on="0"/>
        <pt x="279" y="1403" on="0"/>
        <pt x="274" y="1519" on="0"/>
        <pt x="270" y="1544" on="1"/>
        <pt x="266" y="1573" on="0"/>
        <pt x="252" y="1618" on="0"/>
        <pt x="228" y="1654" on="0"/>
        <pt x="195" y="1684" on="0"/>
        <pt x="172" y="1698" on="1"/>
        <pt x="150" y="1711" on="0"/>
        <pt x="110" y="1731" on="0"/>
        <pt x="79" y="1747" on="0"/>
        <pt x="61" y="1764" on="0"/>
        <pt x="61" y="1774" on="1"/>
        <pt x="61" y="1783" on="0"/>
        <pt x="73" y="1794" on="0"/>
      </contour>
    </TTGlyph>
    <TTGlyph name="I" xMin="-102" yMin="-373" xMax="1018" yMax="1733">
      <contour>
        <pt x="918" y="1733" on="1"/>
        <pt x="952" y="1733" on="0"/>
        <pt x="991" y="1726" on="0"/>
        <pt x="1012" y="1716" on="0"/>
        <pt x="1018" y="1703" on="0"/>
        <pt x="1018" y="1696" on="1"/>
        <pt x="1018" y="1679" on="0"/>
        <pt x="975" y="1659" on="0"/>
        <pt x="926" y="1659" on="1"/>
        <pt x="876" y="1659" on="0"/>
        <pt x="790" y="1653" on="0"/>
        <pt x="752" y="1642" on="1"/>
        <pt x="718" y="1633" on="0"/>
        <pt x="662" y="1598" on="0"/>
        <pt x="617" y="1540" on="0"/>
        <pt x="583" y="1456" on="0"/>
        <pt x="571" y="1397" on="1"/>
        <pt x="558" y="1333" on="0"/>
        <pt x="531" y="1131" on="0"/>
        <pt x="504" y="886" on="0"/>
        <pt x="480" y="614" on="0"/>
        <pt x="462" y="346" on="0"/>
        <pt x="451" y="98" on="0"/>
        <pt x="451" y="0" on="1"/>
        <pt x="451" y="-56" on="0"/>
        <pt x="470" y="-121" on="0"/>
        <pt x="499" y="-155" on="0"/>
        <pt x="531" y="-167" on="0"/>
        <pt x="543" y="-170" on="1"/>
        <pt x="571" y="-178" on="0"/>
        <pt x="643" y="-180" on="0"/>
        <pt x="668" y="-180" on="1"/>
        <pt x="717" y="-180" on="0"/>
        <pt x="717" y="-207" on="1"/>
        <pt x="717" y="-219" on="0"/>
        <pt x="694" y="-240" on="0"/>
        <pt x="655" y="-240" on="1"/>
        <pt x="635" y="-240" on="0"/>
        <pt x="584" y="-238" on="0"/>
        <pt x="553" y="-238" on="1"/>
        <pt x="510" y="-238" on="0"/>
        <pt x="402" y="-245" on="0"/>
        <pt x="336" y="-254" on="1"/>
        <pt x="271" y="-263" on="0"/>
        <pt x="145" y="-303" on="0"/>
        <pt x="35" y="-343" on="0"/>
        <pt x="-51" y="-373" on="0"/>
        <pt x="-76" y="-373" on="1"/>
        <pt x="-102" y="-373" on="0"/>
        <pt x="-102" y="-350" on="1"/>
        <pt x="-102" y="-333" on="0"/>
        <pt x="-78" y="-324" on="1"/>
        <pt x="-70" y="-321" on="0"/>
        <pt x="-4" y="-298" on="0"/>
        <pt x="78" y="-268" on="0"/>
        <pt x="156" y="-237" on="0"/>
        <pt x="176" y="-225" on="1"/>
        <pt x="206" y="-208" on="0"/>
        <pt x="245" y="-166" on="0"/>
        <pt x="269" y="-115" on="0"/>
        <pt x="280" y="-55" on="0"/>
        <pt x="283" y="-20" on="1"/>
        <pt x="285" y="20" on="0"/>
        <pt x="289" y="168" on="0"/>
        <pt x="292" y="360" on="0"/>
        <pt x="293" y="584" on="0"/>
        <pt x="293" y="700" on="1"/>
        <pt x="293" y="794" on="0"/>
        <pt x="292" y="979" on="0"/>
        <pt x="291" y="1146" on="0"/>
        <pt x="288" y="1286" on="0"/>
        <pt x="287" y="1337" on="1"/>
        <pt x="285" y="1412" on="0"/>
        <pt x="268" y="1507" on="0"/>
        <pt x="242" y="1566" on="0"/>
        <pt x="209" y="1598" on="0"/>
        <pt x="190" y="1610" on="1"/>
        <pt x="160" y="1630" on="0"/>
        <pt x="59" y="1649" on="0"/>
        <pt x="8" y="1649" on="1"/>
        <pt x="-15" y="1649" on="0"/>
        <pt x="-35" y="1666" on="0"/>
        <pt x="-35" y="1677" on="1"/>
        <pt x="-35" y="1683" on="0"/>
        <pt x="-31" y="1694" on="0"/>
        <pt x="-19" y="1704" on="0"/>
        <pt x="6" y="1710" on="0"/>
        <pt x="27" y="1710" on="1"/>
        <pt x="54" y="1710" on="0"/>
        <pt x="141" y="1704" on="0"/>
        <pt x="245" y="1698" on="0"/>
        <pt x="361" y="1692" on="0"/>
        <pt x="418" y="1692" on="1"/>
        <pt x="479" y="1692" on="0"/>
        <pt x="609" y="1705" on="0"/>
        <pt x="739" y="1720" on="0"/>
        <pt x="863" y="1733" on="0"/>
      </contour>
    </TTGlyph>
    <TTGlyph name="Iacute" xMin="-102" yMin="-373" xMax="1018" yMax="2228">
      <component glyphName="I" x="0" y="0" flags="0x204"/>
      <component glyphName="acute" x="403" y="276" flags="0x4"/>
    </TTGlyph>
    <TTGlyph name="Icircumflex" xMin="-102" yMin="-373" xMax="1018" yMax="2275">
      <component glyphName="I" x="0" y="0" flags="0x204"/>
      <component glyphName="circumflex" x="18" y="475" flags="0x4"/>
    </TTGlyph>
    <TTGlyph name="Idieresis" xMin="-102" yMin="-373" xMax="1018" yMax="2136">
      <component glyphName="I" x="0" y="0" flags="0x204"/>
      <component glyphName="dieresis.case" x="70" y="303" flags="0x4"/>
    </TTGlyph>
    <TTGlyph name="Igrave" xMin="-102" yMin="-373" xMax="1018" yMax="2234">
      <component glyphName="I" x="0" y="0" flags="0x204"/>
      <component glyphName="grave" x="76" y="299" flags="0x4"/>
    </TTGlyph>
    <TTGlyph name="J" xMin="10" yMin="-524" xMax="1391" yMax="1878">
      <contour>
        <pt x="1364" y="1878" on="1"/>
        <pt x="1378" y="1878" on="0"/>
        <pt x="1391" y="1868" on="0"/>
        <pt x="1391" y="1860" on="1"/>
        <pt x="1391" y="1846" on="0"/>
        <pt x="1362" y="1828" on="0"/>
        <pt x="1337" y="1819" on="1"/>
        <pt x="1314" y="1809" on="0"/>
        <pt x="1231" y="1783" on="0"/>
        <pt x="1180" y="1755" on="1"/>
        <pt x="1157" y="1742" on="0"/>
        <pt x="1114" y="1708" on="0"/>
        <pt x="1079" y="1657" on="0"/>
        <pt x="1054" y="1585" on="0"/>
        <pt x="1049" y="1534" on="1"/>
        <pt x="1042" y="1481" on="0"/>
        <pt x="1040" y="1347" on="0"/>
        <pt x="1040" y="1264" on="1"/>
        <pt x="1040" y="1193" on="0"/>
        <pt x="1038" y="1022" on="0"/>
        <pt x="1027" y="813" on="0"/>
        <pt x="1006" y="562" on="0"/>
        <pt x="987" y="412" on="1"/>
        <pt x="974" y="309" on="0"/>
        <pt x="923" y="90" on="0"/>
        <pt x="845" y="-118" on="0"/>
        <pt x="737" y="-303" on="0"/>
        <pt x="596" y="-443" on="0"/>
        <pt x="420" y="-524" on="0"/>
        <pt x="313" y="-524" on="1"/>
        <pt x="237" y="-524" on="0"/>
        <pt x="124" y="-473" on="0"/>
        <pt x="48" y="-389" on="0"/>
        <pt x="10" y="-281" on="0"/>
        <pt x="10" y="-223" on="1"/>
        <pt x="10" y="-146" on="0"/>
        <pt x="59" y="-41" on="0"/>
        <pt x="134" y="24" on="0"/>
        <pt x="225" y="53" on="0"/>
        <pt x="266" y="53" on="1"/>
        <pt x="360" y="53" on="0"/>
        <pt x="475" y="-39" on="0"/>
        <pt x="475" y="-123" on="1"/>
        <pt x="475" y="-200" on="0"/>
        <pt x="399" y="-285" on="0"/>
        <pt x="336" y="-285" on="1"/>
        <pt x="298" y="-285" on="0"/>
        <pt x="235" y="-264" on="0"/>
        <pt x="203" y="-264" on="1"/>
        <pt x="165" y="-264" on="0"/>
        <pt x="125" y="-305" on="0"/>
        <pt x="125" y="-342" on="1"/>
        <pt x="125" y="-375" on="0"/>
        <pt x="153" y="-428" on="0"/>
        <pt x="203" y="-465" on="0"/>
        <pt x="270" y="-485" on="0"/>
        <pt x="309" y="-485" on="1"/>
        <pt x="411" y="-485" on="0"/>
        <pt x="566" y="-377" on="0"/>
        <pt x="680" y="-193" on="0"/>
        <pt x="756" y="51" on="0"/>
        <pt x="802" y="321" on="0"/>
        <pt x="821" y="603" on="0"/>
        <pt x="821" y="733" on="1"/>
        <pt x="821" y="893" on="0"/>
        <pt x="807" y="1170" on="0"/>
        <pt x="781" y="1387" on="0"/>
        <pt x="745" y="1536" on="0"/>
        <pt x="723" y="1569" on="1"/>
        <pt x="704" y="1598" on="0"/>
        <pt x="653" y="1631" on="0"/>
        <pt x="597" y="1647" on="0"/>
        <pt x="538" y="1651" on="0"/>
        <pt x="510" y="1651" on="1"/>
        <pt x="487" y="1651" on="0"/>
        <pt x="459" y="1662" on="0"/>
        <pt x="459" y="1679" on="1"/>
        <pt x="459" y="1692" on="0"/>
        <pt x="479" y="1708" on="0"/>
        <pt x="502" y="1710" on="1"/>
        <pt x="524" y="1711" on="0"/>
        <pt x="607" y="1714" on="0"/>
        <pt x="717" y="1722" on="0"/>
        <pt x="850" y="1738" on="0"/>
        <pt x="922" y="1753" on="1"/>
        <pt x="1010" y="1771" on="0"/>
        <pt x="1151" y="1814" on="0"/>
        <pt x="1260" y="1852" on="0"/>
        <pt x="1338" y="1878" on="0"/>
      </contour>
    </TTGlyph>
    <TTGlyph name="K" xMin="18" yMin="-131" xMax="1817" yMax="1710">
      <contour>
        <pt x="897" y="1657" on="1"/>
        <pt x="914" y="1657" on="0"/>
        <pt x="949" y="1641" on="0"/>
        <pt x="1002" y="1616" on="0"/>
        <pt x="1080" y="1586" on="0"/>
        <pt x="1139" y="1573" on="1"/>
        <pt x="1172" y="1566" on="0"/>
        <pt x="1242" y="1558" on="0"/>
        <pt x="1310" y="1555" on="0"/>
        <pt x="1374" y="1554" on="0"/>
        <pt x="1401" y="1554" on="1"/>
        <pt x="1416" y="1554" on="0"/>
        <pt x="1444" y="1552" on="0"/>
        <pt x="1467" y="1546" on="0"/>
        <pt x="1481" y="1534" on="0"/>
        <pt x="1481" y="1524" on="1"/>
        <pt x="1481" y="1513" on="0"/>
        <pt x="1471" y="1500" on="0"/>
        <pt x="1456" y="1493" on="0"/>
        <pt x="1438" y="1491" on="0"/>
        <pt x="1430" y="1491" on="1"/>
        <pt x="1408" y="1491" on="0"/>
        <pt x="1358" y="1495" on="0"/>
        <pt x="1329" y="1495" on="1"/>
        <pt x="1238" y="1495" on="0"/>
        <pt x="1109" y="1434" on="0"/>
        <pt x="1063" y="1386" on="1"/>
        <pt x="1051" y="1374" on="0"/>
        <pt x="1004" y="1323" on="0"/>
        <pt x="949" y="1261" on="0"/>
        <pt x="891" y="1192" on="0"/>
        <pt x="843" y="1132" on="0"/>
        <pt x="813" y="1087" on="0"/>
        <pt x="813" y="1079" on="1"/>
        <pt x="813" y="1064" on="0"/>
        <pt x="842" y="977" on="0"/>
        <pt x="895" y="853" on="0"/>
        <pt x="973" y="704" on="0"/>
        <pt x="1071" y="554" on="0"/>
        <pt x="1187" y="413" on="0"/>
        <pt x="1320" y="304" on="0"/>
        <pt x="1466" y="238" on="0"/>
        <pt x="1544" y="238" on="1"/>
        <pt x="1589" y="238" on="0"/>
        <pt x="1659" y="266" on="0"/>
        <pt x="1705" y="315" on="0"/>
        <pt x="1729" y="383" on="0"/>
        <pt x="1729" y="422" on="1"/>
        <pt x="1729" y="460" on="0"/>
        <pt x="1706" y="535" on="0"/>
        <pt x="1683" y="569" on="1"/>
        <pt x="1666" y="594" on="0"/>
        <pt x="1637" y="625" on="0"/>
        <pt x="1615" y="646" on="0"/>
        <pt x="1602" y="663" on="0"/>
        <pt x="1602" y="674" on="1"/>
        <pt x="1602" y="682" on="0"/>
        <pt x="1612" y="698" on="0"/>
        <pt x="1626" y="698" on="1"/>
        <pt x="1651" y="698" on="0"/>
        <pt x="1718" y="655" on="0"/>
        <pt x="1776" y="576" on="0"/>
        <pt x="1817" y="463" on="0"/>
        <pt x="1817" y="393" on="1"/>
        <pt x="1817" y="362" on="0"/>
        <pt x="1805" y="288" on="0"/>
        <pt x="1774" y="214" on="0"/>
        <pt x="1721" y="146" on="0"/>
        <pt x="1641" y="93" on="0"/>
        <pt x="1531" y="61" on="0"/>
        <pt x="1458" y="61" on="1"/>
        <pt x="1353" y="61" on="0"/>
        <pt x="1169" y="132" on="0"/>
        <pt x="1010" y="249" on="0"/>
        <pt x="877" y="399" on="0"/>
        <pt x="823" y="477" on="1"/>
        <pt x="697" y="660" on="0"/>
        <pt x="608" y="893" on="1"/>
        <pt x="498" y="756" on="1"/>
        <pt x="499" y="681" on="0"/>
        <pt x="500" y="518" on="0"/>
        <pt x="503" y="360" on="0"/>
        <pt x="510" y="214" on="0"/>
        <pt x="516" y="154" on="1"/>
        <pt x="522" y="92" on="0"/>
        <pt x="560" y="11" on="0"/>
        <pt x="608" y="-40" on="0"/>
        <pt x="656" y="-67" on="0"/>
        <pt x="672" y="-74" on="1"/>
        <pt x="706" y="-89" on="0"/>
        <pt x="745" y="-108" on="0"/>
        <pt x="745" y="-119" on="1"/>
        <pt x="745" y="-124" on="0"/>
        <pt x="737" y="-131" on="0"/>
        <pt x="723" y="-131" on="1"/>
        <pt x="691" y="-131" on="0"/>
        <pt x="610" y="-105" on="0"/>
        <pt x="515" y="-73" on="0"/>
        <pt x="410" y="-47" on="0"/>
        <pt x="354" y="-47" on="1"/>
        <pt x="314" y="-47" on="0"/>
        <pt x="254" y="-53" on="0"/>
        <pt x="225" y="-53" on="1"/>
        <pt x="196" y="-53" on="0"/>
        <pt x="170" y="-42" on="0"/>
        <pt x="170" y="-31" on="1"/>
        <pt x="170" y="-21" on="0"/>
        <pt x="190" y="-11" on="0"/>
        <pt x="221" y="0" on="0"/>
        <pt x="258" y="17" on="0"/>
        <pt x="276" y="35" on="1"/>
        <pt x="299" y="58" on="0"/>
        <pt x="307" y="135" on="0"/>
        <pt x="307" y="180" on="1"/>
        <pt x="307" y="215" on="0"/>
        <pt x="302" y="348" on="0"/>
        <pt x="293" y="518" on="0"/>
        <pt x="281" y="715" on="0"/>
        <pt x="268" y="913" on="0"/>
        <pt x="256" y="1101" on="0"/>
        <pt x="245" y="1254" on="0"/>
        <pt x="237" y="1360" on="0"/>
        <pt x="236" y="1378" on="1"/>
        <pt x="229" y="1442" on="0"/>
        <pt x="204" y="1514" on="0"/>
        <pt x="172" y="1534" on="1"/>
        <pt x="163" y="1540" on="0"/>
        <pt x="135" y="1548" on="0"/>
        <pt x="105" y="1554" on="0"/>
        <pt x="74" y="1556" on="0"/>
        <pt x="61" y="1556" on="1"/>
        <pt x="55" y="1556" on="0"/>
        <pt x="40" y="1558" on="0"/>
        <pt x="27" y="1563" on="0"/>
        <pt x="18" y="1573" on="0"/>
        <pt x="18" y="1581" on="1"/>
        <pt x="18" y="1595" on="0"/>
        <pt x="38" y="1608" on="0"/>
        <pt x="53" y="1610" on="1"/>
        <pt x="95" y="1614" on="0"/>
        <pt x="167" y="1615" on="0"/>
        <pt x="240" y="1617" on="0"/>
        <pt x="318" y="1621" on="0"/>
        <pt x="365" y="1628" on="1"/>
        <pt x="438" y="1639" on="0"/>
        <pt x="534" y="1667" on="0"/>
        <pt x="597" y="1693" on="0"/>
        <pt x="636" y="1710" on="0"/>
        <pt x="653" y="1710" on="1"/>
        <pt x="674" y="1710" on="0"/>
        <pt x="674" y="1692" on="1"/>
        <pt x="674" y="1681" on="0"/>
        <pt x="652" y="1666" on="0"/>
        <pt x="641" y="1661" on="1"/>
        <pt x="626" y="1653" on="0"/>
        <pt x="589" y="1636" on="0"/>
        <pt x="567" y="1622" on="1"/>
        <pt x="524" y="1594" on="0"/>
        <pt x="493" y="1509" on="0"/>
        <pt x="489" y="1444" on="1"/>
        <pt x="488" y="1435" on="0"/>
        <pt x="487" y="1409" on="0"/>
        <pt x="487" y="1381" on="0"/>
        <pt x="487" y="1353" on="0"/>
        <pt x="487" y="1341" on="1"/>
        <pt x="487" y="1245" on="0"/>
        <pt x="496" y="1012" on="0"/>
        <pt x="498" y="881" on="1"/>
        <pt x="498" y="844" on="1"/>
        <pt x="515" y="862" on="0"/>
        <pt x="579" y="934" on="0"/>
        <pt x="660" y="1025" on="0"/>
        <pt x="750" y="1125" on="0"/>
        <pt x="832" y="1220" on="0"/>
        <pt x="900" y="1301" on="0"/>
        <pt x="920" y="1327" on="1"/>
        <pt x="954" y="1372" on="0"/>
        <pt x="985" y="1439" on="0"/>
        <pt x="985" y="1466" on="1"/>
        <pt x="985" y="1489" on="0"/>
        <pt x="968" y="1527" on="0"/>
        <pt x="958" y="1538" on="1"/>
        <pt x="945" y="1554" on="0"/>
        <pt x="916" y="1581" on="0"/>
        <pt x="891" y="1605" on="0"/>
        <pt x="874" y="1625" on="0"/>
        <pt x="874" y="1634" on="1"/>
        <pt x="874" y="1644" on="0"/>
        <pt x="885" y="1657" on="0"/>
      </contour>
    </TTGlyph>
    <TTGlyph name="L" xMin="41" yMin="51" xMax="1319" yMax="1544">
      <contour>
        <pt x="80" y="1544" on="1"/>
        <pt x="117" y="1543" on="0"/>
        <pt x="199" y="1527" on="0"/>
        <pt x="301" y="1505" on="0"/>
        <pt x="426" y="1483" on="0"/>
        <pt x="506" y="1477" on="1"/>
        <pt x="548" y="1474" on="0"/>
        <pt x="611" y="1470" on="0"/>
        <pt x="637" y="1470" on="1"/>
        <pt x="667" y="1470" on="0"/>
        <pt x="717" y="1473" on="0"/>
        <pt x="766" y="1478" on="0"/>
        <pt x="820" y="1481" on="0"/>
        <pt x="854" y="1481" on="1"/>
        <pt x="902" y="1481" on="0"/>
        <pt x="930" y="1463" on="0"/>
        <pt x="930" y="1448" on="1"/>
        <pt x="930" y="1432" on="0"/>
        <pt x="903" y="1419" on="0"/>
        <pt x="879" y="1417" on="1"/>
        <pt x="860" y="1415" on="0"/>
        <pt x="811" y="1412" on="0"/>
        <pt x="788" y="1409" on="1"/>
        <pt x="769" y="1406" on="0"/>
        <pt x="732" y="1395" on="0"/>
        <pt x="700" y="1372" on="0"/>
        <pt x="676" y="1331" on="0"/>
        <pt x="670" y="1298" on="1"/>
        <pt x="661" y="1248" on="0"/>
        <pt x="641" y="1084" on="0"/>
        <pt x="623" y="892" on="0"/>
        <pt x="607" y="686" on="0"/>
        <pt x="595" y="500" on="0"/>
        <pt x="588" y="348" on="0"/>
        <pt x="588" y="307" on="1"/>
        <pt x="588" y="242" on="0"/>
        <pt x="623" y="185" on="0"/>
        <pt x="657" y="174" on="1"/>
        <pt x="667" y="171" on="0"/>
        <pt x="705" y="165" on="0"/>
        <pt x="754" y="161" on="0"/>
        <pt x="811" y="158" on="0"/>
        <pt x="840" y="158" on="1"/>
        <pt x="925" y="158" on="0"/>
        <pt x="1039" y="186" on="0"/>
        <pt x="1108" y="244" on="0"/>
        <pt x="1137" y="330" on="0"/>
        <pt x="1137" y="389" on="1"/>
        <pt x="1137" y="441" on="0"/>
        <pt x="1121" y="542" on="0"/>
        <pt x="1101" y="628" on="0"/>
        <pt x="1085" y="696" on="0"/>
        <pt x="1085" y="715" on="1"/>
        <pt x="1085" y="726" on="0"/>
        <pt x="1093" y="741" on="0"/>
        <pt x="1102" y="741" on="1"/>
        <pt x="1114" y="741" on="0"/>
        <pt x="1130" y="720" on="0"/>
        <pt x="1137" y="705" on="1"/>
        <pt x="1149" y="670" on="0"/>
        <pt x="1168" y="607" on="0"/>
        <pt x="1188" y="539" on="0"/>
        <pt x="1212" y="461" on="0"/>
        <pt x="1229" y="412" on="1"/>
        <pt x="1266" y="305" on="0"/>
        <pt x="1319" y="168" on="0"/>
        <pt x="1319" y="137" on="1"/>
        <pt x="1319" y="122" on="0"/>
        <pt x="1279" y="104" on="0"/>
        <pt x="1223" y="104" on="1"/>
        <pt x="1173" y="104" on="0"/>
        <pt x="1005" y="104" on="0"/>
        <pt x="809" y="101" on="0"/>
        <pt x="604" y="95" on="0"/>
        <pt x="518" y="90" on="1"/>
        <pt x="448" y="85" on="0"/>
        <pt x="346" y="72" on="0"/>
        <pt x="261" y="60" on="0"/>
        <pt x="184" y="51" on="0"/>
        <pt x="139" y="51" on="1"/>
        <pt x="108" y="51" on="0"/>
        <pt x="86" y="64" on="0"/>
        <pt x="86" y="78" on="1"/>
        <pt x="86" y="90" on="0"/>
        <pt x="109" y="101" on="0"/>
        <pt x="125" y="104" on="1"/>
        <pt x="130" y="105" on="0"/>
        <pt x="164" y="109" on="0"/>
        <pt x="207" y="117" on="0"/>
        <pt x="255" y="129" on="0"/>
        <pt x="274" y="137" on="1"/>
        <pt x="321" y="157" on="0"/>
        <pt x="357" y="247" on="0"/>
        <pt x="362" y="315" on="1"/>
        <pt x="366" y="363" on="0"/>
        <pt x="369" y="503" on="0"/>
        <pt x="369" y="584" on="1"/>
        <pt x="369" y="674" on="0"/>
        <pt x="367" y="864" on="0"/>
        <pt x="362" y="1037" on="0"/>
        <pt x="357" y="1180" on="0"/>
        <pt x="354" y="1225" on="1"/>
        <pt x="351" y="1270" on="0"/>
        <pt x="338" y="1337" on="0"/>
        <pt x="319" y="1385" on="0"/>
        <pt x="294" y="1416" on="0"/>
        <pt x="279" y="1427" on="1"/>
        <pt x="265" y="1437" on="0"/>
        <pt x="227" y="1453" on="0"/>
        <pt x="186" y="1464" on="0"/>
        <pt x="145" y="1472" on="0"/>
        <pt x="127" y="1475" on="1"/>
        <pt x="101" y="1479" on="0"/>
        <pt x="67" y="1487" on="0"/>
        <pt x="48" y="1497" on="0"/>
        <pt x="41" y="1509" on="0"/>
        <pt x="41" y="1516" on="1"/>
        <pt x="41" y="1534" on="0"/>
        <pt x="64" y="1544" on="0"/>
      </contour>
    </TTGlyph>
    <TTGlyph name="M" xMin="0" yMin="-106" xMax="2294" yMax="1503">
      <contour>
        <pt x="569" y="1014" on="1"/>
        <pt x="558" y="1080" on="0"/>
        <pt x="498" y="1157" on="0"/>
        <pt x="467" y="1174" on="1"/>
        <pt x="442" y="1188" on="0"/>
        <pt x="393" y="1202" on="0"/>
        <pt x="375" y="1208" on="1"/>
        <pt x="356" y="1215" on="0"/>
        <pt x="338" y="1231" on="0"/>
        <pt x="338" y="1245" on="1"/>
        <pt x="338" y="1274" on="0"/>
        <pt x="377" y="1274" on="1"/>
        <pt x="395" y="1274" on="0"/>
        <pt x="429" y="1266" on="0"/>
        <pt x="477" y="1256" on="0"/>
        <pt x="543" y="1243" on="0"/>
        <pt x="592" y="1239" on="1"/>
        <pt x="637" y="1235" on="0"/>
        <pt x="699" y="1234" on="0"/>
        <pt x="742" y="1233" on="0"/>
        <pt x="772" y="1230" on="0"/>
        <pt x="784" y="1225" on="1"/>
        <pt x="802" y="1217" on="0"/>
        <pt x="861" y="1155" on="0"/>
        <pt x="934" y="1065" on="0"/>
        <pt x="1016" y="955" on="0"/>
        <pt x="1097" y="842" on="0"/>
        <pt x="1174" y="736" on="0"/>
        <pt x="1237" y="654" on="0"/>
        <pt x="1282" y="604" on="0"/>
        <pt x="1290" y="604" on="1"/>
        <pt x="1307" y="604" on="0"/>
        <pt x="1406" y="789" on="0"/>
        <pt x="1497" y="973" on="1"/>
        <pt x="1522" y="1024" on="0"/>
        <pt x="1575" y="1139" on="0"/>
        <pt x="1626" y="1252" on="0"/>
        <pt x="1672" y="1356" on="0"/>
        <pt x="1711" y="1436" on="0"/>
        <pt x="1741" y="1485" on="0"/>
        <pt x="1749" y="1487" on="1"/>
        <pt x="1754" y="1489" on="0"/>
        <pt x="1765" y="1489" on="0"/>
        <pt x="1772" y="1489" on="1"/>
        <pt x="1790" y="1489" on="0"/>
        <pt x="1854" y="1487" on="0"/>
        <pt x="1905" y="1487" on="1"/>
        <pt x="1936" y="1487" on="0"/>
        <pt x="1986" y="1492" on="0"/>
        <pt x="2025" y="1498" on="0"/>
        <pt x="2057" y="1503" on="0"/>
        <pt x="2071" y="1503" on="1"/>
        <pt x="2092" y="1503" on="0"/>
        <pt x="2105" y="1491" on="0"/>
        <pt x="2105" y="1483" on="1"/>
        <pt x="2105" y="1465" on="0"/>
        <pt x="2075" y="1456" on="1"/>
        <pt x="2046" y="1447" on="0"/>
        <pt x="1941" y="1428" on="0"/>
        <pt x="1876" y="1405" on="1"/>
        <pt x="1836" y="1391" on="0"/>
        <pt x="1804" y="1318" on="0"/>
        <pt x="1804" y="1264" on="1"/>
        <pt x="1804" y="1225" on="0"/>
        <pt x="1817" y="1104" on="0"/>
        <pt x="1840" y="957" on="0"/>
        <pt x="1872" y="792" on="0"/>
        <pt x="1909" y="625" on="0"/>
        <pt x="1950" y="467" on="0"/>
        <pt x="1992" y="333" on="0"/>
        <pt x="2033" y="232" on="0"/>
        <pt x="2052" y="207" on="1"/>
        <pt x="2070" y="183" on="0"/>
        <pt x="2107" y="149" on="0"/>
        <pt x="2152" y="125" on="0"/>
        <pt x="2205" y="107" on="0"/>
        <pt x="2238" y="98" on="1"/>
        <pt x="2270" y="90" on="0"/>
        <pt x="2294" y="72" on="0"/>
        <pt x="2294" y="59" on="1"/>
        <pt x="2294" y="45" on="0"/>
        <pt x="2261" y="27" on="0"/>
        <pt x="2226" y="27" on="1"/>
        <pt x="2184" y="27" on="0"/>
        <pt x="2093" y="33" on="0"/>
        <pt x="2038" y="33" on="1"/>
        <pt x="1949" y="33" on="0"/>
        <pt x="1802" y="7" on="0"/>
        <pt x="1681" y="-25" on="0"/>
        <pt x="1583" y="-51" on="0"/>
        <pt x="1542" y="-51" on="1"/>
        <pt x="1531" y="-51" on="0"/>
        <pt x="1509" y="-43" on="0"/>
        <pt x="1509" y="-29" on="1"/>
        <pt x="1509" y="-14" on="0"/>
        <pt x="1545" y="5" on="0"/>
        <pt x="1602" y="22" on="0"/>
        <pt x="1672" y="40" on="0"/>
        <pt x="1706" y="55" on="1"/>
        <pt x="1741" y="71" on="0"/>
        <pt x="1772" y="122" on="0"/>
        <pt x="1772" y="162" on="1"/>
        <pt x="1772" y="185" on="0"/>
        <pt x="1757" y="283" on="0"/>
        <pt x="1733" y="413" on="0"/>
        <pt x="1702" y="563" on="0"/>
        <pt x="1669" y="713" on="0"/>
        <pt x="1636" y="852" on="0"/>
        <pt x="1610" y="958" on="0"/>
        <pt x="1591" y="1022" on="0"/>
        <pt x="1589" y="1022" on="1"/>
        <pt x="1586" y="1022" on="0"/>
        <pt x="1555" y="968" on="0"/>
        <pt x="1509" y="878" on="0"/>
        <pt x="1451" y="762" on="0"/>
        <pt x="1392" y="640" on="0"/>
        <pt x="1334" y="520" on="0"/>
        <pt x="1286" y="421" on="0"/>
        <pt x="1254" y="354" on="0"/>
        <pt x="1249" y="346" on="1"/>
        <pt x="1239" y="327" on="0"/>
        <pt x="1217" y="285" on="0"/>
        <pt x="1194" y="250" on="0"/>
        <pt x="1174" y="227" on="0"/>
        <pt x="1167" y="227" on="1"/>
        <pt x="1161" y="227" on="0"/>
        <pt x="1142" y="246" on="0"/>
        <pt x="1122" y="274" on="0"/>
        <pt x="1101" y="306" on="0"/>
        <pt x="1094" y="319" on="1"/>
        <pt x="1068" y="364" on="0"/>
        <pt x="998" y="487" on="0"/>
        <pt x="921" y="622" on="0"/>
        <pt x="846" y="758" on="0"/>
        <pt x="781" y="873" on="0"/>
        <pt x="735" y="956" on="0"/>
        <pt x="727" y="971" on="1"/>
        <pt x="710" y="1001" on="0"/>
        <pt x="686" y="1042" on="0"/>
        <pt x="669" y="1066" on="0"/>
        <pt x="657" y="1077" on="0"/>
        <pt x="651" y="1077" on="1"/>
        <pt x="643" y="1077" on="0"/>
        <pt x="643" y="1061" on="1"/>
        <pt x="643" y="1045" on="0"/>
        <pt x="649" y="990" on="0"/>
        <pt x="651" y="969" on="1"/>
        <pt x="661" y="872" on="0"/>
        <pt x="668" y="703" on="0"/>
        <pt x="668" y="625" on="1"/>
        <pt x="668" y="555" on="0"/>
        <pt x="652" y="392" on="0"/>
        <pt x="614" y="229" on="0"/>
        <pt x="549" y="79" on="0"/>
        <pt x="449" y="-37" on="0"/>
        <pt x="312" y="-106" on="0"/>
        <pt x="221" y="-106" on="1"/>
        <pt x="168" y="-106" on="0"/>
        <pt x="86" y="-72" on="0"/>
        <pt x="29" y="-15" on="0"/>
        <pt x="0" y="58" on="0"/>
        <pt x="0" y="98" on="1"/>
        <pt x="0" y="126" on="0"/>
        <pt x="15" y="182" on="0"/>
        <pt x="49" y="225" on="0"/>
        <pt x="101" y="252" on="0"/>
        <pt x="139" y="252" on="1"/>
        <pt x="169" y="252" on="0"/>
        <pt x="216" y="231" on="0"/>
        <pt x="253" y="200" on="0"/>
        <pt x="283" y="162" on="0"/>
        <pt x="295" y="145" on="1"/>
        <pt x="337" y="88" on="0"/>
        <pt x="387" y="88" on="1"/>
        <pt x="431" y="88" on="0"/>
        <pt x="495" y="142" on="0"/>
        <pt x="542" y="233" on="0"/>
        <pt x="572" y="351" on="0"/>
        <pt x="589" y="479" on="0"/>
        <pt x="596" y="608" on="0"/>
        <pt x="596" y="664" on="1"/>
        <pt x="596" y="763" on="0"/>
        <pt x="580" y="943" on="0"/>
      </contour>
    </TTGlyph>
    <TTGlyph name="N" xMin="0" yMin="-438" xMax="1638" yMax="1475">
      <contour>
        <pt x="475" y="1468" on="1"/>
        <pt x="496" y="1460" on="0"/>
        <pt x="567" y="1395" on="0"/>
        <pt x="658" y="1295" on="0"/>
        <pt x="769" y="1169" on="0"/>
        <pt x="831" y="1102" on="1"/>
        <pt x="877" y="1052" on="0"/>
        <pt x="968" y="949" on="0"/>
        <pt x="1052" y="853" on="0"/>
        <pt x="1127" y="769" on="0"/>
        <pt x="1188" y="706" on="0"/>
        <pt x="1234" y="670" on="0"/>
        <pt x="1247" y="670" on="1"/>
        <pt x="1255" y="670" on="0"/>
        <pt x="1267" y="704" on="0"/>
        <pt x="1276" y="760" on="0"/>
        <pt x="1282" y="830" on="0"/>
        <pt x="1286" y="902" on="0"/>
        <pt x="1288" y="970" on="0"/>
        <pt x="1288" y="995" on="1"/>
        <pt x="1288" y="1029" on="0"/>
        <pt x="1285" y="1113" on="0"/>
        <pt x="1279" y="1192" on="0"/>
        <pt x="1268" y="1257" on="0"/>
        <pt x="1260" y="1274" on="1"/>
        <pt x="1248" y="1298" on="0"/>
        <pt x="1218" y="1330" on="0"/>
        <pt x="1174" y="1351" on="0"/>
        <pt x="1112" y="1363" on="0"/>
        <pt x="1067" y="1368" on="1"/>
        <pt x="1038" y="1371" on="0"/>
        <pt x="1016" y="1385" on="0"/>
        <pt x="1016" y="1399" on="1"/>
        <pt x="1016" y="1413" on="0"/>
        <pt x="1038" y="1421" on="0"/>
        <pt x="1051" y="1421" on="1"/>
        <pt x="1061" y="1421" on="0"/>
        <pt x="1102" y="1418" on="0"/>
        <pt x="1158" y="1415" on="0"/>
        <pt x="1223" y="1413" on="0"/>
        <pt x="1257" y="1413" on="1"/>
        <pt x="1312" y="1413" on="0"/>
        <pt x="1420" y="1429" on="0"/>
        <pt x="1514" y="1448" on="0"/>
        <pt x="1588" y="1464" on="0"/>
        <pt x="1608" y="1464" on="1"/>
        <pt x="1638" y="1464" on="0"/>
        <pt x="1638" y="1440" on="1"/>
        <pt x="1638" y="1424" on="0"/>
        <pt x="1613" y="1410" on="0"/>
        <pt x="1599" y="1407" on="1"/>
        <pt x="1581" y="1403" on="0"/>
        <pt x="1551" y="1398" on="0"/>
        <pt x="1523" y="1392" on="0"/>
        <pt x="1493" y="1383" on="0"/>
        <pt x="1475" y="1376" on="1"/>
        <pt x="1460" y="1371" on="0"/>
        <pt x="1431" y="1351" on="0"/>
        <pt x="1405" y="1318" on="0"/>
        <pt x="1384" y="1269" on="0"/>
        <pt x="1378" y="1235" on="1"/>
        <pt x="1372" y="1199" on="0"/>
        <pt x="1363" y="1070" on="0"/>
        <pt x="1355" y="911" on="0"/>
        <pt x="1350" y="736" on="0"/>
        <pt x="1345" y="573" on="0"/>
        <pt x="1342" y="434" on="0"/>
        <pt x="1341" y="391" on="1"/>
        <pt x="1338" y="232" on="0"/>
        <pt x="1325" y="80" on="0"/>
        <pt x="1311" y="80" on="1"/>
        <pt x="1303" y="80" on="0"/>
        <pt x="1258" y="121" on="0"/>
        <pt x="1196" y="190" on="0"/>
        <pt x="1120" y="281" on="0"/>
        <pt x="1040" y="380" on="0"/>
        <pt x="960" y="483" on="0"/>
        <pt x="890" y="574" on="0"/>
        <pt x="833" y="649" on="0"/>
        <pt x="817" y="672" on="1"/>
        <pt x="621" y="942" on="0"/>
        <pt x="412" y="1219" on="0"/>
        <pt x="387" y="1219" on="1"/>
        <pt x="382" y="1219" on="0"/>
        <pt x="377" y="1159" on="0"/>
        <pt x="374" y="1057" on="0"/>
        <pt x="373" y="921" on="0"/>
        <pt x="373" y="844" on="1"/>
        <pt x="373" y="745" on="0"/>
        <pt x="374" y="534" on="0"/>
        <pt x="374" y="346" on="0"/>
        <pt x="375" y="201" on="0"/>
        <pt x="375" y="168" on="1"/>
        <pt x="375" y="109" on="0"/>
        <pt x="378" y="-15" on="0"/>
        <pt x="387" y="-126" on="0"/>
        <pt x="403" y="-217" on="0"/>
        <pt x="416" y="-242" on="1"/>
        <pt x="434" y="-277" on="0"/>
        <pt x="476" y="-325" on="0"/>
        <pt x="523" y="-359" on="0"/>
        <pt x="575" y="-381" on="0"/>
        <pt x="602" y="-389" on="1"/>
        <pt x="625" y="-397" on="0"/>
        <pt x="647" y="-409" on="0"/>
        <pt x="647" y="-420" on="1"/>
        <pt x="647" y="-438" on="0"/>
        <pt x="616" y="-438" on="1"/>
        <pt x="598" y="-438" on="0"/>
        <pt x="546" y="-426" on="0"/>
        <pt x="485" y="-409" on="0"/>
        <pt x="417" y="-389" on="0"/>
        <pt x="383" y="-381" on="1"/>
        <pt x="345" y="-372" on="0"/>
        <pt x="269" y="-362" on="0"/>
        <pt x="233" y="-362" on="1"/>
        <pt x="209" y="-362" on="0"/>
        <pt x="158" y="-365" on="0"/>
        <pt x="114" y="-368" on="0"/>
        <pt x="82" y="-371" on="0"/>
        <pt x="76" y="-371" on="1"/>
        <pt x="57" y="-371" on="0"/>
        <pt x="20" y="-365" on="0"/>
        <pt x="20" y="-348" on="1"/>
        <pt x="20" y="-336" on="0"/>
        <pt x="46" y="-328" on="0"/>
        <pt x="68" y="-328" on="1"/>
        <pt x="97" y="-328" on="0"/>
        <pt x="170" y="-313" on="0"/>
        <pt x="201" y="-293" on="1"/>
        <pt x="243" y="-265" on="0"/>
        <pt x="287" y="-172" on="0"/>
        <pt x="295" y="-100" on="1"/>
        <pt x="299" y="-66" on="0"/>
        <pt x="304" y="7" on="0"/>
        <pt x="307" y="96" on="0"/>
        <pt x="309" y="210" on="0"/>
        <pt x="309" y="285" on="1"/>
        <pt x="309" y="317" on="0"/>
        <pt x="307" y="390" on="0"/>
        <pt x="307" y="430" on="1"/>
        <pt x="307" y="457" on="0"/>
        <pt x="306" y="554" on="0"/>
        <pt x="306" y="678" on="0"/>
        <pt x="304" y="821" on="0"/>
        <pt x="300" y="965" on="0"/>
        <pt x="294" y="1104" on="0"/>
        <pt x="284" y="1221" on="0"/>
        <pt x="270" y="1307" on="0"/>
        <pt x="260" y="1327" on="1"/>
        <pt x="249" y="1349" on="0"/>
        <pt x="211" y="1373" on="0"/>
        <pt x="159" y="1385" on="0"/>
        <pt x="94" y="1388" on="0"/>
        <pt x="57" y="1389" on="1"/>
        <pt x="33" y="1389" on="0"/>
        <pt x="0" y="1402" on="0"/>
        <pt x="0" y="1423" on="1"/>
        <pt x="0" y="1439" on="0"/>
        <pt x="22" y="1454" on="0"/>
        <pt x="39" y="1454" on="1"/>
        <pt x="125" y="1454" on="1"/>
        <pt x="186" y="1454" on="0"/>
        <pt x="279" y="1460" on="1"/>
        <pt x="322" y="1463" on="0"/>
        <pt x="407" y="1475" on="0"/>
        <pt x="438" y="1475" on="1"/>
        <pt x="449" y="1475" on="0"/>
        <pt x="469" y="1472" on="0"/>
      </contour>
    </TTGlyph>
    <TTGlyph name="Ntilde" xMin="0" yMin="-438" xMax="1638" yMax="1966">
      <component glyphName="N" x="0" y="0" flags="0x204"/>
      <component glyphName="tilde" x="547" y="166" flags="0x4"/>
    </TTGlyph>
    <TTGlyph name="O" xMin="10" yMin="47" xMax="1518" yMax="1561">
      <contour>
        <pt x="731" y="1561" on="1"/>
        <pt x="908" y="1561" on="0"/>
        <pt x="1198" y="1449" on="0"/>
        <pt x="1405" y="1248" on="0"/>
        <pt x="1518" y="971" on="0"/>
        <pt x="1518" y="805" on="1"/>
        <pt x="1518" y="711" on="0"/>
        <pt x="1478" y="525" on="0"/>
        <pt x="1398" y="357" on="0"/>
        <pt x="1275" y="213" on="0"/>
        <pt x="1110" y="107" on="0"/>
        <pt x="901" y="47" on="0"/>
        <pt x="774" y="47" on="1"/>
        <pt x="585" y="47" on="0"/>
        <pt x="299" y="162" on="0"/>
        <pt x="107" y="367" on="0"/>
        <pt x="10" y="650" on="0"/>
        <pt x="10" y="817" on="1"/>
        <pt x="10" y="980" on="0"/>
        <pt x="116" y="1253" on="0"/>
        <pt x="307" y="1451" on="0"/>
        <pt x="572" y="1561" on="0"/>
      </contour>
      <contour>
        <pt x="690" y="1509" on="1"/>
        <pt x="592" y="1509" on="0"/>
        <pt x="435" y="1421" on="0"/>
        <pt x="324" y="1258" on="0"/>
        <pt x="264" y="1027" on="0"/>
        <pt x="264" y="883" on="1"/>
        <pt x="264" y="800" on="0"/>
        <pt x="287" y="620" on="0"/>
        <pt x="337" y="446" on="0"/>
        <pt x="419" y="290" on="0"/>
        <pt x="537" y="172" on="0"/>
        <pt x="694" y="102" on="0"/>
        <pt x="795" y="102" on="1"/>
        <pt x="915" y="102" on="0"/>
        <pt x="1079" y="199" on="0"/>
        <pt x="1180" y="357" on="0"/>
        <pt x="1225" y="558" on="0"/>
        <pt x="1225" y="662" on="1"/>
        <pt x="1225" y="749" on="0"/>
        <pt x="1206" y="943" on="0"/>
        <pt x="1159" y="1131" on="0"/>
        <pt x="1080" y="1302" on="0"/>
        <pt x="961" y="1432" on="0"/>
        <pt x="798" y="1509" on="0"/>
      </contour>
    </TTGlyph>
    <TTGlyph name="OE" xMin="12" yMin="-342" xMax="2320" yMax="1706">
      <contour>
        <pt x="412" y="1442" on="1"/>
        <pt x="501" y="1484" on="0"/>
        <pt x="671" y="1516" on="0"/>
        <pt x="750" y="1516" on="1"/>
        <pt x="839" y="1516" on="0"/>
        <pt x="1001" y="1474" on="0"/>
        <pt x="1145" y="1398" on="0"/>
        <pt x="1269" y="1293" on="0"/>
        <pt x="1319" y="1231" on="1"/>
        <pt x="1318" y="1251" on="0"/>
        <pt x="1312" y="1300" on="0"/>
        <pt x="1299" y="1351" on="0"/>
        <pt x="1277" y="1400" on="0"/>
        <pt x="1260" y="1421" on="1"/>
        <pt x="1244" y="1440" on="0"/>
        <pt x="1213" y="1464" on="0"/>
        <pt x="1189" y="1480" on="0"/>
        <pt x="1174" y="1491" on="0"/>
        <pt x="1174" y="1499" on="1"/>
        <pt x="1174" y="1507" on="0"/>
        <pt x="1189" y="1516" on="0"/>
        <pt x="1198" y="1516" on="1"/>
        <pt x="1223" y="1516" on="0"/>
        <pt x="1287" y="1513" on="0"/>
        <pt x="1327" y="1513" on="1"/>
        <pt x="1390" y="1513" on="0"/>
        <pt x="1556" y="1530" on="0"/>
        <pt x="1659" y="1550" on="1"/>
        <pt x="1744" y="1567" on="0"/>
        <pt x="1882" y="1620" on="0"/>
        <pt x="1983" y="1670" on="0"/>
        <pt x="2047" y="1706" on="0"/>
        <pt x="2058" y="1706" on="1"/>
        <pt x="2075" y="1706" on="0"/>
        <pt x="2075" y="1675" on="1"/>
        <pt x="2075" y="1657" on="0"/>
        <pt x="2074" y="1630" on="0"/>
        <pt x="2072" y="1603" on="0"/>
        <pt x="2071" y="1570" on="0"/>
        <pt x="2071" y="1546" on="1"/>
        <pt x="2071" y="1506" on="0"/>
        <pt x="2080" y="1427" on="0"/>
        <pt x="2092" y="1356" on="0"/>
        <pt x="2101" y="1297" on="0"/>
        <pt x="2101" y="1276" on="1"/>
        <pt x="2101" y="1264" on="0"/>
        <pt x="2095" y="1249" on="0"/>
        <pt x="2089" y="1249" on="1"/>
        <pt x="2083" y="1249" on="0"/>
        <pt x="2070" y="1267" on="0"/>
        <pt x="2058" y="1296" on="0"/>
        <pt x="2046" y="1331" on="0"/>
        <pt x="2042" y="1348" on="1"/>
        <pt x="2033" y="1380" on="0"/>
        <pt x="2013" y="1438" on="0"/>
        <pt x="1987" y="1481" on="0"/>
        <pt x="1953" y="1507" on="0"/>
        <pt x="1929" y="1507" on="1"/>
        <pt x="1900" y="1507" on="0"/>
        <pt x="1808" y="1491" on="0"/>
        <pt x="1706" y="1466" on="0"/>
        <pt x="1607" y="1437" on="0"/>
        <pt x="1571" y="1425" on="1"/>
        <pt x="1542" y="1416" on="0"/>
        <pt x="1530" y="1385" on="0"/>
        <pt x="1530" y="1366" on="1"/>
        <pt x="1530" y="1363" on="0"/>
        <pt x="1533" y="1312" on="0"/>
        <pt x="1537" y="1233" on="0"/>
        <pt x="1543" y="1134" on="0"/>
        <pt x="1549" y="1030" on="0"/>
        <pt x="1556" y="929" on="0"/>
        <pt x="1561" y="846" on="0"/>
        <pt x="1566" y="789" on="0"/>
        <pt x="1567" y="782" on="1"/>
        <pt x="1572" y="753" on="0"/>
        <pt x="1594" y="739" on="0"/>
        <pt x="1608" y="739" on="1"/>
        <pt x="1615" y="739" on="0"/>
        <pt x="1658" y="742" on="0"/>
        <pt x="1715" y="749" on="0"/>
        <pt x="1779" y="761" on="0"/>
        <pt x="1808" y="770" on="1"/>
        <pt x="1833" y="778" on="0"/>
        <pt x="1873" y="797" on="0"/>
        <pt x="1904" y="826" on="0"/>
        <pt x="1927" y="868" on="0"/>
        <pt x="1937" y="899" on="1"/>
        <pt x="1943" y="918" on="0"/>
        <pt x="1952" y="956" on="0"/>
        <pt x="1960" y="987" on="0"/>
        <pt x="1969" y="1006" on="0"/>
        <pt x="1976" y="1006" on="1"/>
        <pt x="1989" y="1006" on="0"/>
        <pt x="1989" y="983" on="1"/>
        <pt x="1989" y="970" on="0"/>
        <pt x="1981" y="921" on="0"/>
        <pt x="1972" y="858" on="0"/>
        <pt x="1964" y="787" on="0"/>
        <pt x="1964" y="752" on="1"/>
        <pt x="1964" y="707" on="0"/>
        <pt x="1970" y="624" on="0"/>
        <pt x="1976" y="552" on="0"/>
        <pt x="1982" y="494" on="0"/>
        <pt x="1982" y="475" on="1"/>
        <pt x="1982" y="464" on="0"/>
        <pt x="1977" y="451" on="0"/>
        <pt x="1972" y="451" on="1"/>
        <pt x="1961" y="451" on="0"/>
        <pt x="1942" y="508" on="0"/>
        <pt x="1918" y="583" on="0"/>
        <pt x="1887" y="656" on="0"/>
        <pt x="1866" y="672" on="1"/>
        <pt x="1852" y="683" on="0"/>
        <pt x="1811" y="690" on="0"/>
        <pt x="1788" y="690" on="1"/>
        <pt x="1762" y="690" on="0"/>
        <pt x="1710" y="683" on="0"/>
        <pt x="1663" y="673" on="0"/>
        <pt x="1627" y="662" on="0"/>
        <pt x="1618" y="659" on="1"/>
        <pt x="1592" y="650" on="0"/>
        <pt x="1577" y="617" on="0"/>
        <pt x="1577" y="594" on="1"/>
        <pt x="1577" y="587" on="0"/>
        <pt x="1581" y="524" on="0"/>
        <pt x="1588" y="429" on="0"/>
        <pt x="1597" y="311" on="0"/>
        <pt x="1606" y="188" on="0"/>
        <pt x="1616" y="68" on="0"/>
        <pt x="1624" y="-30" on="0"/>
        <pt x="1630" y="-99" on="0"/>
        <pt x="1632" y="-109" on="1"/>
        <pt x="1635" y="-130" on="0"/>
        <pt x="1655" y="-143" on="0"/>
        <pt x="1669" y="-143" on="1"/>
        <pt x="1719" y="-143" on="0"/>
        <pt x="1847" y="-132" on="0"/>
        <pt x="1974" y="-109" on="0"/>
        <pt x="2086" y="-74" on="0"/>
        <pt x="2120" y="-49" on="1"/>
        <pt x="2148" y="-29" on="0"/>
        <pt x="2192" y="31" on="0"/>
        <pt x="2225" y="96" on="0"/>
        <pt x="2248" y="163" on="0"/>
        <pt x="2264" y="219" on="0"/>
        <pt x="2273" y="259" on="0"/>
        <pt x="2275" y="266" on="1"/>
        <pt x="2278" y="276" on="0"/>
        <pt x="2285" y="302" on="0"/>
        <pt x="2293" y="324" on="0"/>
        <pt x="2302" y="340" on="0"/>
        <pt x="2308" y="340" on="1"/>
        <pt x="2316" y="340" on="0"/>
        <pt x="2320" y="317" on="0"/>
        <pt x="2320" y="301" on="1"/>
        <pt x="2320" y="280" on="0"/>
        <pt x="2314" y="230" on="0"/>
        <pt x="2308" y="168" on="0"/>
        <pt x="2302" y="94" on="0"/>
        <pt x="2302" y="49" on="1"/>
        <pt x="2302" y="16" on="0"/>
        <pt x="2304" y="-53" on="0"/>
        <pt x="2307" y="-115" on="0"/>
        <pt x="2310" y="-165" on="0"/>
        <pt x="2310" y="-178" on="1"/>
        <pt x="2310" y="-204" on="0"/>
        <pt x="2292" y="-229" on="0"/>
        <pt x="2269" y="-229" on="1"/>
        <pt x="2245" y="-228" on="0"/>
        <pt x="2162" y="-224" on="0"/>
        <pt x="2052" y="-219" on="0"/>
        <pt x="1919" y="-215" on="0"/>
        <pt x="1845" y="-215" on="1"/>
        <pt x="1684" y="-215" on="0"/>
        <pt x="1433" y="-255" on="0"/>
        <pt x="1246" y="-302" on="0"/>
        <pt x="1118" y="-342" on="0"/>
        <pt x="1081" y="-342" on="1"/>
        <pt x="1073" y="-342" on="0"/>
        <pt x="1063" y="-334" on="0"/>
        <pt x="1063" y="-326" on="1"/>
        <pt x="1063" y="-314" on="0"/>
        <pt x="1091" y="-296" on="0"/>
        <pt x="1134" y="-277" on="0"/>
        <pt x="1188" y="-256" on="0"/>
        <pt x="1214" y="-242" on="1"/>
        <pt x="1245" y="-225" on="0"/>
        <pt x="1287" y="-189" on="0"/>
        <pt x="1313" y="-149" on="0"/>
        <pt x="1327" y="-103" on="0"/>
        <pt x="1329" y="-76" on="1"/>
        <pt x="1332" y="-48" on="0"/>
        <pt x="1333" y="25" on="0"/>
        <pt x="1333" y="63" on="1"/>
        <pt x="1333" y="103" on="0"/>
        <pt x="1331" y="181" on="0"/>
        <pt x="1326" y="243" on="0"/>
        <pt x="1319" y="281" on="0"/>
        <pt x="1315" y="281" on="1"/>
        <pt x="1310" y="281" on="0"/>
        <pt x="1277" y="243" on="0"/>
        <pt x="1218" y="185" on="0"/>
        <pt x="1132" y="119" on="0"/>
        <pt x="1018" y="61" on="0"/>
        <pt x="874" y="23" on="0"/>
        <pt x="786" y="23" on="1"/>
        <pt x="619" y="23" on="0"/>
        <pt x="335" y="131" on="0"/>
        <pt x="128" y="332" on="0"/>
        <pt x="12" y="616" on="0"/>
        <pt x="12" y="793" on="1"/>
        <pt x="12" y="902" on="0"/>
        <pt x="69" y="1101" on="0"/>
        <pt x="174" y="1269" on="0"/>
        <pt x="322" y="1400" on="0"/>
      </contour>
      <contour>
        <pt x="733" y="1430" on="1"/>
        <pt x="632" y="1430" on="0"/>
        <pt x="468" y="1352" on="0"/>
        <pt x="353" y="1217" on="0"/>
        <pt x="291" y="1035" on="0"/>
        <pt x="291" y="932" on="1"/>
        <pt x="291" y="833" on="0"/>
        <pt x="334" y="642" on="0"/>
        <pt x="412" y="471" on="0"/>
        <pt x="521" y="327" on="0"/>
        <pt x="654" y="223" on="0"/>
        <pt x="805" y="164" on="0"/>
        <pt x="887" y="164" on="1"/>
        <pt x="990" y="164" on="0"/>
        <pt x="1153" y="241" on="0"/>
        <pt x="1264" y="375" on="0"/>
        <pt x="1323" y="554" on="0"/>
        <pt x="1323" y="655" on="1"/>
        <pt x="1323" y="756" on="0"/>
        <pt x="1288" y="949" on="0"/>
        <pt x="1220" y="1122" on="0"/>
        <pt x="1119" y="1266" on="0"/>
        <pt x="988" y="1371" on="0"/>
        <pt x="827" y="1430" on="0"/>
      </contour>
    </TTGlyph>
    <TTGlyph name="Oacute" xMin="10" yMin="47" xMax="1518" yMax="2142">
      <component glyphName="O" x="0" y="0" flags="0x204"/>
      <component glyphName="acute" x="545" y="190" flags="0x4"/>
    </TTGlyph>
    <TTGlyph name="Ocircumflex" xMin="10" yMin="47" xMax="1518" yMax="2136">
      <component glyphName="O" x="0" y="0" flags="0x204"/>
      <component glyphName="circumflex" x="217" y="336" flags="0x4"/>
    </TTGlyph>
    <TTGlyph name="Odieresis" xMin="10" yMin="47" xMax="1518" yMax="2073">
      <component glyphName="O" x="0" y="0" flags="0x204"/>
      <component glyphName="dieresis.case" x="342" y="240" flags="0x4"/>
    </TTGlyph>
    <TTGlyph name="Ograve" xMin="10" yMin="47" xMax="1518" yMax="2171">
      <component glyphName="O" x="0" y="0" flags="0x204"/>
      <component glyphName="grave" x="256" y="236" flags="0x4"/>
    </TTGlyph>
    <TTGlyph name="Oslash" xMin="10" yMin="-121" xMax="1518" yMax="1800">
      <contour>
        <pt x="1456" y="1800" on="1"/>
        <pt x="1473" y="1800" on="0"/>
        <pt x="1473" y="1780" on="1"/>
        <pt x="1473" y="1764" on="0"/>
        <pt x="1427" y="1678" on="0"/>
        <pt x="1358" y="1567" on="0"/>
        <pt x="1277" y="1447" on="0"/>
        <pt x="1243" y="1397" on="1"/>
        <pt x="1373" y="1297" on="0"/>
        <pt x="1518" y="994" on="0"/>
        <pt x="1518" y="805" on="1"/>
        <pt x="1518" y="711" on="0"/>
        <pt x="1478" y="525" on="0"/>
        <pt x="1398" y="357" on="0"/>
        <pt x="1275" y="213" on="0"/>
        <pt x="1110" y="107" on="0"/>
        <pt x="901" y="47" on="0"/>
        <pt x="774" y="47" on="1"/>
        <pt x="644" y="47" on="0"/>
        <pt x="429" y="101" on="0"/>
        <pt x="342" y="152" on="1"/>
        <pt x="308" y="104" on="0"/>
        <pt x="247" y="17" on="0"/>
        <pt x="221" y="-18" on="1"/>
        <pt x="187" y="-63" on="0"/>
        <pt x="143" y="-121" on="0"/>
        <pt x="123" y="-121" on="1"/>
        <pt x="114" y="-121" on="0"/>
        <pt x="100" y="-110" on="0"/>
        <pt x="100" y="-96" on="1"/>
        <pt x="100" y="-71" on="0"/>
        <pt x="162" y="32" on="0"/>
        <pt x="213" y="104" on="1"/>
        <pt x="279" y="197" on="1"/>
        <pt x="144" y="299" on="0"/>
        <pt x="10" y="618" on="0"/>
        <pt x="10" y="817" on="1"/>
        <pt x="10" y="980" on="0"/>
        <pt x="116" y="1253" on="0"/>
        <pt x="307" y="1451" on="0"/>
        <pt x="572" y="1561" on="0"/>
        <pt x="731" y="1561" on="1"/>
        <pt x="859" y="1561" on="0"/>
        <pt x="1083" y="1500" on="0"/>
        <pt x="1176" y="1444" on="1"/>
        <pt x="1309" y="1630" on="1"/>
        <pt x="1363" y="1706" on="0"/>
        <pt x="1433" y="1800" on="0"/>
      </contour>
      <contour>
        <pt x="690" y="1509" on="1"/>
        <pt x="592" y="1509" on="0"/>
        <pt x="435" y="1421" on="0"/>
        <pt x="324" y="1258" on="0"/>
        <pt x="264" y="1027" on="0"/>
        <pt x="264" y="883" on="1"/>
        <pt x="264" y="818" on="0"/>
        <pt x="278" y="680" on="0"/>
        <pt x="307" y="541" on="0"/>
        <pt x="354" y="408" on="0"/>
        <pt x="387" y="350" on="1"/>
        <pt x="475" y="475" on="1"/>
        <pt x="533" y="559" on="0"/>
        <pt x="678" y="761" on="0"/>
        <pt x="834" y="976" on="0"/>
        <pt x="996" y="1196" on="0"/>
        <pt x="1071" y="1300" on="1"/>
        <pt x="1040" y="1347" on="0"/>
        <pt x="964" y="1424" on="0"/>
        <pt x="869" y="1479" on="0"/>
        <pt x="757" y="1509" on="0"/>
      </contour>
      <contour>
        <pt x="1225" y="662" on="1"/>
        <pt x="1225" y="728" on="0"/>
        <pt x="1214" y="871" on="0"/>
        <pt x="1189" y="1015" on="0"/>
        <pt x="1148" y="1155" on="0"/>
        <pt x="1118" y="1219" on="1"/>
        <pt x="1070" y="1152" on="0"/>
        <pt x="954" y="991" on="0"/>
        <pt x="828" y="819" on="0"/>
        <pt x="700" y="644" on="0"/>
        <pt x="580" y="480" on="0"/>
        <pt x="474" y="336" on="0"/>
        <pt x="434" y="281" on="1"/>
        <pt x="495" y="201" on="0"/>
        <pt x="673" y="102" on="0"/>
        <pt x="795" y="102" on="1"/>
        <pt x="915" y="102" on="0"/>
        <pt x="1079" y="199" on="0"/>
        <pt x="1180" y="357" on="0"/>
        <pt x="1225" y="558" on="0"/>
      </contour>
    </TTGlyph>
    <TTGlyph name="Otilde" xMin="10" yMin="47" xMax="1518" yMax="2046">
      <component glyphName="O" x="0" y="0" flags="0x204"/>
      <component glyphName="tilde" x="322" y="246" flags="0x4"/>
    </TTGlyph>
    <TTGlyph name="P" xMin="0" yMin="-262" xMax="1276" yMax="1532">
      <contour>
        <pt x="895" y="1532" on="1"/>
        <pt x="957" y="1532" on="0"/>
        <pt x="1092" y="1503" on="0"/>
        <pt x="1204" y="1424" on="0"/>
        <pt x="1276" y="1284" on="0"/>
        <pt x="1276" y="1174" on="1"/>
        <pt x="1276" y="1072" on="0"/>
        <pt x="1229" y="919" on="0"/>
        <pt x="1151" y="808" on="0"/>
        <pt x="1050" y="736" on="0"/>
        <pt x="942" y="693" on="0"/>
        <pt x="834" y="676" on="0"/>
        <pt x="788" y="676" on="1"/>
        <pt x="722" y="676" on="0"/>
        <pt x="628" y="689" on="0"/>
        <pt x="596" y="698" on="1"/>
        <pt x="597" y="647" on="0"/>
        <pt x="598" y="538" on="0"/>
        <pt x="599" y="441" on="0"/>
        <pt x="600" y="366" on="0"/>
        <pt x="600" y="350" on="1"/>
        <pt x="601" y="315" on="0"/>
        <pt x="607" y="210" on="0"/>
        <pt x="620" y="98" on="0"/>
        <pt x="641" y="-9" on="0"/>
        <pt x="657" y="-45" on="1"/>
        <pt x="674" y="-83" on="0"/>
        <pt x="728" y="-137" on="0"/>
        <pt x="791" y="-173" on="0"/>
        <pt x="859" y="-195" on="0"/>
        <pt x="891" y="-201" on="1"/>
        <pt x="907" y="-204" on="0"/>
        <pt x="940" y="-209" on="0"/>
        <pt x="966" y="-216" on="0"/>
        <pt x="983" y="-227" on="0"/>
        <pt x="983" y="-236" on="1"/>
        <pt x="983" y="-248" on="0"/>
        <pt x="963" y="-262" on="0"/>
        <pt x="932" y="-262" on="1"/>
        <pt x="900" y="-262" on="0"/>
        <pt x="802" y="-243" on="0"/>
        <pt x="681" y="-220" on="0"/>
        <pt x="545" y="-201" on="0"/>
        <pt x="477" y="-201" on="1"/>
        <pt x="403" y="-201" on="0"/>
        <pt x="272" y="-217" on="0"/>
        <pt x="169" y="-236" on="0"/>
        <pt x="97" y="-252" on="0"/>
        <pt x="82" y="-252" on="1"/>
        <pt x="78" y="-252" on="0"/>
        <pt x="67" y="-251" on="0"/>
        <pt x="56" y="-247" on="0"/>
        <pt x="49" y="-239" on="0"/>
        <pt x="49" y="-231" on="1"/>
        <pt x="49" y="-220" on="0"/>
        <pt x="76" y="-206" on="0"/>
        <pt x="121" y="-192" on="0"/>
        <pt x="178" y="-173" on="0"/>
        <pt x="207" y="-158" on="1"/>
        <pt x="264" y="-127" on="0"/>
        <pt x="322" y="-27" on="0"/>
        <pt x="336" y="39" on="1"/>
        <pt x="342" y="69" on="0"/>
        <pt x="355" y="183" on="0"/>
        <pt x="367" y="330" on="0"/>
        <pt x="378" y="499" on="0"/>
        <pt x="386" y="668" on="0"/>
        <pt x="391" y="825" on="0"/>
        <pt x="391" y="887" on="1"/>
        <pt x="391" y="1009" on="0"/>
        <pt x="377" y="1195" on="0"/>
        <pt x="354" y="1247" on="1"/>
        <pt x="336" y="1288" on="0"/>
        <pt x="275" y="1337" on="0"/>
        <pt x="202" y="1363" on="0"/>
        <pt x="122" y="1372" on="0"/>
        <pt x="84" y="1374" on="1"/>
        <pt x="34" y="1375" on="0"/>
        <pt x="0" y="1388" on="0"/>
        <pt x="0" y="1407" on="1"/>
        <pt x="0" y="1436" on="0"/>
        <pt x="51" y="1436" on="1"/>
        <pt x="73" y="1436" on="0"/>
        <pt x="169" y="1430" on="0"/>
        <pt x="236" y="1430" on="1"/>
        <pt x="285" y="1430" on="0"/>
        <pt x="401" y="1436" on="0"/>
        <pt x="463" y="1444" on="1"/>
        <pt x="515" y="1450" on="0"/>
        <pt x="596" y="1469" on="0"/>
        <pt x="665" y="1488" on="0"/>
        <pt x="725" y="1507" on="0"/>
        <pt x="787" y="1523" on="0"/>
        <pt x="854" y="1532" on="0"/>
      </contour>
      <contour>
        <pt x="608" y="1227" on="1"/>
        <pt x="604" y="1185" on="0"/>
        <pt x="600" y="1076" on="0"/>
        <pt x="597" y="952" on="0"/>
        <pt x="596" y="818" on="0"/>
        <pt x="596" y="752" on="1"/>
        <pt x="628" y="742" on="0"/>
        <pt x="708" y="733" on="0"/>
        <pt x="764" y="733" on="1"/>
        <pt x="839" y="733" on="0"/>
        <pt x="944" y="805" on="0"/>
        <pt x="1009" y="924" on="0"/>
        <pt x="1038" y="1075" on="0"/>
        <pt x="1038" y="1153" on="1"/>
        <pt x="1038" y="1217" on="0"/>
        <pt x="1015" y="1337" on="0"/>
        <pt x="963" y="1428" on="0"/>
        <pt x="875" y="1483" on="0"/>
        <pt x="811" y="1483" on="1"/>
        <pt x="761" y="1483" on="0"/>
        <pt x="689" y="1447" on="0"/>
        <pt x="641" y="1380" on="0"/>
        <pt x="614" y="1285" on="0"/>
      </contour>
    </TTGlyph>
    <TTGlyph name="Q" xMin="10" yMin="-897" xMax="2345" yMax="1583">
      <contour>
        <pt x="817" y="1583" on="1"/>
        <pt x="912" y="1583" on="0"/>
        <pt x="1105" y="1541" on="0"/>
        <pt x="1283" y="1456" on="0"/>
        <pt x="1438" y="1327" on="0"/>
        <pt x="1552" y="1153" on="0"/>
        <pt x="1618" y="934" on="0"/>
        <pt x="1618" y="801" on="1"/>
        <pt x="1618" y="605" on="0"/>
        <pt x="1524" y="309" on="0"/>
        <pt x="1444" y="203" on="1"/>
        <pt x="1490" y="112" on="0"/>
        <pt x="1565" y="-93" on="0"/>
        <pt x="1597" y="-197" on="1"/>
        <pt x="1638" y="-326" on="0"/>
        <pt x="1724" y="-518" on="0"/>
        <pt x="1824" y="-646" on="0"/>
        <pt x="1945" y="-709" on="0"/>
        <pt x="2021" y="-709" on="1"/>
        <pt x="2097" y="-709" on="0"/>
        <pt x="2231" y="-607" on="0"/>
        <pt x="2273" y="-496" on="1"/>
        <pt x="2288" y="-454" on="0"/>
        <pt x="2303" y="-390" on="0"/>
        <pt x="2313" y="-347" on="0"/>
        <pt x="2322" y="-324" on="0"/>
        <pt x="2331" y="-324" on="1"/>
        <pt x="2339" y="-324" on="0"/>
        <pt x="2345" y="-348" on="0"/>
        <pt x="2345" y="-367" on="1"/>
        <pt x="2345" y="-394" on="0"/>
        <pt x="2334" y="-494" on="0"/>
        <pt x="2299" y="-612" on="0"/>
        <pt x="2237" y="-734" on="0"/>
        <pt x="2134" y="-834" on="0"/>
        <pt x="1985" y="-897" on="0"/>
        <pt x="1882" y="-897" on="1"/>
        <pt x="1759" y="-897" on="0"/>
        <pt x="1586" y="-812" on="0"/>
        <pt x="1466" y="-667" on="0"/>
        <pt x="1390" y="-477" on="0"/>
        <pt x="1338" y="-268" on="0"/>
        <pt x="1302" y="-51" on="0"/>
        <pt x="1282" y="47" on="1"/>
        <pt x="1176" y="-27" on="0"/>
        <pt x="924" y="-96" on="0"/>
        <pt x="791" y="-96" on="1"/>
        <pt x="690" y="-96" on="0"/>
        <pt x="495" y="-48" on="0"/>
        <pt x="321" y="47" on="0"/>
        <pt x="175" y="188" on="0"/>
        <pt x="69" y="375" on="0"/>
        <pt x="10" y="607" on="0"/>
        <pt x="10" y="745" on="1"/>
        <pt x="10" y="929" on="0"/>
        <pt x="129" y="1237" on="0"/>
        <pt x="343" y="1459" on="0"/>
        <pt x="640" y="1583" on="0"/>
      </contour>
      <contour>
        <pt x="1049" y="528" on="1"/>
        <pt x="1135" y="528" on="0"/>
        <pt x="1276" y="448" on="0"/>
        <pt x="1333" y="379" on="1"/>
        <pt x="1349" y="445" on="0"/>
        <pt x="1366" y="594" on="0"/>
        <pt x="1366" y="678" on="1"/>
        <pt x="1366" y="781" on="0"/>
        <pt x="1330" y="985" on="0"/>
        <pt x="1258" y="1170" on="0"/>
        <pt x="1151" y="1328" on="0"/>
        <pt x="1007" y="1445" on="0"/>
        <pt x="827" y="1511" on="0"/>
        <pt x="719" y="1511" on="1"/>
        <pt x="621" y="1511" on="0"/>
        <pt x="448" y="1419" on="0"/>
        <pt x="320" y="1250" on="0"/>
        <pt x="246" y="1011" on="0"/>
        <pt x="246" y="864" on="1"/>
        <pt x="246" y="767" on="0"/>
        <pt x="276" y="577" on="0"/>
        <pt x="334" y="402" on="0"/>
        <pt x="421" y="246" on="0"/>
        <pt x="536" y="122" on="0"/>
        <pt x="679" y="34" on="0"/>
        <pt x="764" y="14" on="1"/>
        <pt x="761" y="34" on="0"/>
        <pt x="756" y="93" on="0"/>
        <pt x="756" y="133" on="1"/>
        <pt x="756" y="199" on="0"/>
        <pt x="782" y="339" on="0"/>
        <pt x="849" y="454" on="0"/>
        <pt x="962" y="528" on="0"/>
      </contour>
      <contour>
        <pt x="895" y="0" on="1"/>
        <pt x="1017" y="0" on="0"/>
        <pt x="1192" y="92" on="0"/>
        <pt x="1249" y="180" on="1"/>
        <pt x="1233" y="238" on="0"/>
        <pt x="1190" y="333" on="0"/>
        <pt x="1133" y="402" on="0"/>
        <pt x="1057" y="440" on="0"/>
        <pt x="1008" y="440" on="1"/>
        <pt x="947" y="440" on="0"/>
        <pt x="872" y="374" on="0"/>
        <pt x="831" y="275" on="0"/>
        <pt x="817" y="159" on="0"/>
        <pt x="817" y="109" on="1"/>
        <pt x="817" y="78" on="0"/>
        <pt x="819" y="20" on="0"/>
        <pt x="821" y="4" on="1"/>
        <pt x="840" y="1" on="0"/>
        <pt x="876" y="0" on="0"/>
      </contour>
    </TTGlyph>
    <TTGlyph name="R" xMin="0" yMin="-100" xMax="1841" yMax="1407">
      <contour>
        <pt x="834" y="1407" on="1"/>
        <pt x="954" y="1407" on="0"/>
        <pt x="1108" y="1338" on="0"/>
        <pt x="1198" y="1231" on="0"/>
        <pt x="1233" y="1102" on="0"/>
        <pt x="1233" y="1042" on="1"/>
        <pt x="1233" y="983" on="0"/>
        <pt x="1203" y="862" on="0"/>
        <pt x="1144" y="756" on="0"/>
        <pt x="1059" y="671" on="0"/>
        <pt x="1004" y="649" on="1"/>
        <pt x="963" y="633" on="1"/>
        <pt x="1012" y="486" on="0"/>
        <pt x="1148" y="276" on="0"/>
        <pt x="1305" y="140" on="0"/>
        <pt x="1476" y="76" on="0"/>
        <pt x="1561" y="76" on="1"/>
        <pt x="1610" y="76" on="0"/>
        <pt x="1691" y="102" on="0"/>
        <pt x="1750" y="153" on="0"/>
        <pt x="1782" y="226" on="0"/>
        <pt x="1782" y="274" on="1"/>
        <pt x="1782" y="310" on="0"/>
        <pt x="1774" y="358" on="0"/>
        <pt x="1765" y="389" on="0"/>
        <pt x="1757" y="407" on="0"/>
        <pt x="1757" y="414" on="1"/>
        <pt x="1757" y="419" on="0"/>
        <pt x="1761" y="426" on="0"/>
        <pt x="1767" y="426" on="1"/>
        <pt x="1776" y="426" on="0"/>
        <pt x="1802" y="397" on="0"/>
        <pt x="1825" y="349" on="0"/>
        <pt x="1841" y="288" on="0"/>
        <pt x="1841" y="256" on="1"/>
        <pt x="1841" y="180" on="0"/>
        <pt x="1797" y="50" on="0"/>
        <pt x="1706" y="-46" on="0"/>
        <pt x="1568" y="-100" on="0"/>
        <pt x="1475" y="-100" on="1"/>
        <pt x="1345" y="-100" on="0"/>
        <pt x="1140" y="-23" on="0"/>
        <pt x="982" y="99" on="0"/>
        <pt x="868" y="250" on="0"/>
        <pt x="788" y="401" on="0"/>
        <pt x="740" y="535" on="0"/>
        <pt x="727" y="578" on="1"/>
        <pt x="698" y="574" on="0"/>
        <pt x="646" y="571" on="0"/>
        <pt x="623" y="571" on="1"/>
        <pt x="595" y="571" on="0"/>
        <pt x="556" y="573" on="0"/>
        <pt x="545" y="575" on="1"/>
        <pt x="547" y="510" on="0"/>
        <pt x="554" y="365" on="0"/>
        <pt x="566" y="231" on="0"/>
        <pt x="584" y="124" on="0"/>
        <pt x="596" y="96" on="1"/>
        <pt x="617" y="49" on="0"/>
        <pt x="683" y="-4" on="0"/>
        <pt x="747" y="-35" on="0"/>
        <pt x="793" y="-53" on="0"/>
        <pt x="793" y="-63" on="1"/>
        <pt x="793" y="-76" on="0"/>
        <pt x="764" y="-76" on="1"/>
        <pt x="732" y="-76" on="0"/>
        <pt x="652" y="-57" on="0"/>
        <pt x="559" y="-35" on="0"/>
        <pt x="455" y="-16" on="0"/>
        <pt x="399" y="-16" on="1"/>
        <pt x="345" y="-16" on="0"/>
        <pt x="231" y="-25" on="0"/>
        <pt x="184" y="-25" on="1"/>
        <pt x="119" y="-25" on="0"/>
        <pt x="63" y="-7" on="0"/>
        <pt x="63" y="14" on="1"/>
        <pt x="63" y="27" on="0"/>
        <pt x="79" y="43" on="0"/>
        <pt x="102" y="43" on="1"/>
        <pt x="128" y="43" on="0"/>
        <pt x="169" y="41" on="0"/>
        <pt x="190" y="41" on="1"/>
        <pt x="239" y="41" on="0"/>
        <pt x="310" y="55" on="0"/>
        <pt x="354" y="98" on="0"/>
        <pt x="375" y="176" on="0"/>
        <pt x="375" y="240" on="1"/>
        <pt x="375" y="266" on="0"/>
        <pt x="371" y="386" on="0"/>
        <pt x="361" y="544" on="0"/>
        <pt x="346" y="724" on="0"/>
        <pt x="326" y="897" on="0"/>
        <pt x="298" y="1047" on="0"/>
        <pt x="281" y="1096" on="1"/>
        <pt x="263" y="1145" on="0"/>
        <pt x="213" y="1201" on="0"/>
        <pt x="150" y="1231" on="0"/>
        <pt x="77" y="1241" on="0"/>
        <pt x="37" y="1245" on="1"/>
        <pt x="20" y="1247" on="0"/>
        <pt x="0" y="1258" on="0"/>
        <pt x="0" y="1272" on="1"/>
        <pt x="0" y="1284" on="0"/>
        <pt x="16" y="1301" on="0"/>
        <pt x="41" y="1303" on="1"/>
        <pt x="69" y="1305" on="0"/>
        <pt x="113" y="1305" on="0"/>
        <pt x="135" y="1305" on="1"/>
        <pt x="165" y="1305" on="0"/>
        <pt x="221" y="1305" on="0"/>
        <pt x="284" y="1308" on="0"/>
        <pt x="361" y="1315" on="0"/>
        <pt x="412" y="1321" on="1"/>
        <pt x="478" y="1328" on="0"/>
        <pt x="587" y="1357" on="0"/>
        <pt x="686" y="1386" on="0"/>
        <pt x="781" y="1407" on="0"/>
      </contour>
      <contour>
        <pt x="543" y="627" on="1"/>
        <pt x="659" y="628" on="0"/>
        <pt x="826" y="692" on="0"/>
        <pt x="934" y="803" on="0"/>
        <pt x="985" y="953" on="0"/>
        <pt x="985" y="1040" on="1"/>
        <pt x="985" y="1195" on="0"/>
        <pt x="871" y="1352" on="0"/>
        <pt x="766" y="1352" on="1"/>
        <pt x="722" y="1352" on="0"/>
        <pt x="654" y="1321" on="0"/>
        <pt x="603" y="1266" on="0"/>
        <pt x="571" y="1189" on="0"/>
        <pt x="563" y="1143" on="1"/>
        <pt x="548" y="1047" on="0"/>
        <pt x="541" y="858" on="0"/>
        <pt x="541" y="770" on="1"/>
      </contour>
    </TTGlyph>
    <TTGlyph name="S" xMin="-18" yMin="-242" xMax="1073" yMax="1686">
      <contour>
        <pt x="647" y="1587" on="1"/>
        <pt x="701" y="1587" on="0"/>
        <pt x="783" y="1567" on="0"/>
        <pt x="846" y="1542" on="0"/>
        <pt x="893" y="1522" on="0"/>
        <pt x="911" y="1522" on="1"/>
        <pt x="924" y="1522" on="0"/>
        <pt x="942" y="1544" on="0"/>
        <pt x="956" y="1576" on="0"/>
        <pt x="966" y="1614" on="0"/>
        <pt x="971" y="1630" on="1"/>
        <pt x="977" y="1653" on="0"/>
        <pt x="992" y="1686" on="0"/>
        <pt x="1006" y="1686" on="1"/>
        <pt x="1022" y="1686" on="0"/>
        <pt x="1022" y="1657" on="1"/>
        <pt x="1022" y="1641" on="0"/>
        <pt x="1015" y="1601" on="0"/>
        <pt x="1004" y="1546" on="0"/>
        <pt x="991" y="1473" on="0"/>
        <pt x="985" y="1425" on="1"/>
        <pt x="977" y="1366" on="0"/>
        <pt x="972" y="1275" on="0"/>
        <pt x="968" y="1214" on="0"/>
        <pt x="961" y="1182" on="0"/>
        <pt x="952" y="1182" on="1"/>
        <pt x="945" y="1182" on="0"/>
        <pt x="937" y="1197" on="0"/>
        <pt x="931" y="1219" on="0"/>
        <pt x="927" y="1241" on="0"/>
        <pt x="926" y="1249" on="1"/>
        <pt x="921" y="1275" on="0"/>
        <pt x="906" y="1338" on="0"/>
        <pt x="880" y="1403" on="0"/>
        <pt x="842" y="1465" on="0"/>
        <pt x="785" y="1513" on="0"/>
        <pt x="707" y="1542" on="0"/>
        <pt x="655" y="1542" on="1"/>
        <pt x="561" y="1542" on="0"/>
        <pt x="457" y="1430" on="0"/>
        <pt x="457" y="1321" on="1"/>
        <pt x="457" y="1266" on="0"/>
        <pt x="510" y="1153" on="0"/>
        <pt x="597" y="1033" on="0"/>
        <pt x="707" y="907" on="0"/>
        <pt x="823" y="773" on="0"/>
        <pt x="933" y="631" on="0"/>
        <pt x="1020" y="479" on="0"/>
        <pt x="1073" y="316" on="0"/>
        <pt x="1073" y="229" on="1"/>
        <pt x="1073" y="109" on="0"/>
        <pt x="995" y="-68" on="0"/>
        <pt x="863" y="-185" on="0"/>
        <pt x="689" y="-242" on="0"/>
        <pt x="594" y="-242" on="1"/>
        <pt x="520" y="-242" on="0"/>
        <pt x="409" y="-207" on="0"/>
        <pt x="320" y="-166" on="0"/>
        <pt x="247" y="-131" on="0"/>
        <pt x="211" y="-131" on="1"/>
        <pt x="183" y="-131" on="0"/>
        <pt x="136" y="-165" on="0"/>
        <pt x="97" y="-206" on="0"/>
        <pt x="68" y="-240" on="0"/>
        <pt x="59" y="-240" on="1"/>
        <pt x="51" y="-240" on="0"/>
        <pt x="47" y="-229" on="0"/>
        <pt x="47" y="-221" on="1"/>
        <pt x="47" y="-213" on="0"/>
        <pt x="53" y="-176" on="0"/>
        <pt x="60" y="-124" on="0"/>
        <pt x="66" y="-58" on="0"/>
        <pt x="66" y="-20" on="1"/>
        <pt x="66" y="48" on="0"/>
        <pt x="40" y="191" on="0"/>
        <pt x="8" y="317" on="0"/>
        <pt x="-18" y="413" on="0"/>
        <pt x="-18" y="434" on="1"/>
        <pt x="-18" y="443" on="0"/>
        <pt x="-11" y="459" on="0"/>
        <pt x="0" y="459" on="1"/>
        <pt x="15" y="459" on="0"/>
        <pt x="41" y="416" on="0"/>
        <pt x="55" y="381" on="1"/>
        <pt x="64" y="357" on="0"/>
        <pt x="93" y="287" on="0"/>
        <pt x="129" y="206" on="0"/>
        <pt x="172" y="118" on="0"/>
        <pt x="197" y="76" on="1"/>
        <pt x="240" y="2" on="0"/>
        <pt x="334" y="-96" on="0"/>
        <pt x="433" y="-155" on="0"/>
        <pt x="535" y="-180" on="0"/>
        <pt x="586" y="-180" on="1"/>
        <pt x="647" y="-180" on="0"/>
        <pt x="736" y="-134" on="0"/>
        <pt x="794" y="-60" on="0"/>
        <pt x="821" y="32" on="0"/>
        <pt x="821" y="78" on="1"/>
        <pt x="821" y="169" on="0"/>
        <pt x="772" y="328" on="0"/>
        <pt x="693" y="473" on="0"/>
        <pt x="591" y="607" on="0"/>
        <pt x="484" y="735" on="0"/>
        <pt x="382" y="861" on="0"/>
        <pt x="303" y="992" on="0"/>
        <pt x="254" y="1131" on="0"/>
        <pt x="254" y="1208" on="1"/>
        <pt x="254" y="1283" on="0"/>
        <pt x="292" y="1397" on="0"/>
        <pt x="355" y="1481" on="0"/>
        <pt x="436" y="1538" on="0"/>
        <pt x="523" y="1572" on="0"/>
        <pt x="610" y="1587" on="0"/>
      </contour>
    </TTGlyph>
    <TTGlyph name="T" xMin="41" yMin="-281" xMax="1411" yMax="1786">
      <contour>
        <pt x="109" y="1786" on="1"/>
        <pt x="130" y="1786" on="0"/>
        <pt x="186" y="1777" on="0"/>
        <pt x="249" y="1765" on="0"/>
        <pt x="317" y="1751" on="0"/>
        <pt x="352" y="1747" on="1"/>
        <pt x="409" y="1739" on="0"/>
        <pt x="519" y="1726" on="0"/>
        <pt x="640" y="1717" on="0"/>
        <pt x="778" y="1712" on="0"/>
        <pt x="862" y="1712" on="1"/>
        <pt x="968" y="1712" on="0"/>
        <pt x="1114" y="1726" on="0"/>
        <pt x="1220" y="1743" on="0"/>
        <pt x="1299" y="1757" on="0"/>
        <pt x="1339" y="1757" on="1"/>
        <pt x="1383" y="1757" on="0"/>
        <pt x="1411" y="1717" on="0"/>
        <pt x="1411" y="1681" on="1"/>
        <pt x="1411" y="1648" on="0"/>
        <pt x="1405" y="1553" on="0"/>
        <pt x="1395" y="1451" on="0"/>
        <pt x="1380" y="1350" on="0"/>
        <pt x="1363" y="1270" on="0"/>
        <pt x="1343" y="1220" on="0"/>
        <pt x="1333" y="1221" on="1"/>
        <pt x="1321" y="1221" on="0"/>
        <pt x="1312" y="1304" on="0"/>
        <pt x="1307" y="1384" on="1"/>
        <pt x="1304" y="1443" on="0"/>
        <pt x="1282" y="1534" on="0"/>
        <pt x="1238" y="1598" on="0"/>
        <pt x="1168" y="1638" on="0"/>
        <pt x="1116" y="1647" on="1"/>
        <pt x="1073" y="1655" on="0"/>
        <pt x="962" y="1659" on="0"/>
        <pt x="903" y="1659" on="1"/>
        <pt x="903" y="369" on="1"/>
        <pt x="903" y="263" on="0"/>
        <pt x="928" y="131" on="0"/>
        <pt x="967" y="53" on="0"/>
        <pt x="1014" y="19" on="0"/>
        <pt x="1036" y="10" on="1"/>
        <pt x="1051" y="4" on="0"/>
        <pt x="1093" y="-4" on="0"/>
        <pt x="1139" y="-10" on="0"/>
        <pt x="1184" y="-13" on="0"/>
        <pt x="1202" y="-14" on="1"/>
        <pt x="1242" y="-16" on="0"/>
        <pt x="1288" y="-24" on="0"/>
        <pt x="1288" y="-41" on="1"/>
        <pt x="1288" y="-48" on="0"/>
        <pt x="1280" y="-62" on="0"/>
        <pt x="1258" y="-73" on="0"/>
        <pt x="1217" y="-80" on="0"/>
        <pt x="1184" y="-80" on="1"/>
        <pt x="1133" y="-80" on="0"/>
        <pt x="1035" y="-76" on="0"/>
        <pt x="985" y="-76" on="1"/>
        <pt x="909" y="-76" on="0"/>
        <pt x="767" y="-97" on="0"/>
        <pt x="629" y="-139" on="0"/>
        <pt x="489" y="-202" on="0"/>
        <pt x="416" y="-244" on="1"/>
        <pt x="393" y="-258" on="0"/>
        <pt x="346" y="-281" on="0"/>
        <pt x="332" y="-281" on="1"/>
        <pt x="319" y="-281" on="0"/>
        <pt x="319" y="-268" on="1"/>
        <pt x="319" y="-257" on="0"/>
        <pt x="350" y="-228" on="0"/>
        <pt x="400" y="-191" on="0"/>
        <pt x="465" y="-141" on="0"/>
        <pt x="500" y="-109" on="1"/>
        <pt x="550" y="-62" on="0"/>
        <pt x="611" y="30" on="0"/>
        <pt x="646" y="130" on="0"/>
        <pt x="661" y="243" on="0"/>
        <pt x="664" y="311" on="1"/>
        <pt x="731" y="1661" on="1"/>
        <pt x="684" y="1662" on="0"/>
        <pt x="621" y="1663" on="0"/>
        <pt x="567" y="1663" on="0"/>
        <pt x="512" y="1663" on="0"/>
        <pt x="475" y="1663" on="1"/>
        <pt x="406" y="1663" on="0"/>
        <pt x="310" y="1650" on="0"/>
        <pt x="245" y="1626" on="0"/>
        <pt x="209" y="1589" on="0"/>
        <pt x="190" y="1540" on="0"/>
        <pt x="186" y="1480" on="0"/>
        <pt x="186" y="1444" on="1"/>
        <pt x="186" y="1405" on="0"/>
        <pt x="195" y="1322" on="0"/>
        <pt x="209" y="1242" on="0"/>
        <pt x="225" y="1171" on="0"/>
        <pt x="233" y="1143" on="1"/>
        <pt x="240" y="1117" on="0"/>
        <pt x="252" y="1077" on="0"/>
        <pt x="252" y="1063" on="1"/>
        <pt x="252" y="1058" on="0"/>
        <pt x="247" y="1044" on="0"/>
        <pt x="238" y="1044" on="1"/>
        <pt x="225" y="1044" on="0"/>
        <pt x="196" y="1082" on="0"/>
        <pt x="168" y="1145" on="0"/>
        <pt x="140" y="1225" on="0"/>
        <pt x="115" y="1310" on="0"/>
        <pt x="93" y="1393" on="0"/>
        <pt x="84" y="1427" on="1"/>
        <pt x="62" y="1512" on="0"/>
        <pt x="41" y="1656" on="0"/>
        <pt x="41" y="1700" on="1"/>
        <pt x="41" y="1740" on="0"/>
        <pt x="68" y="1786" on="0"/>
      </contour>
    </TTGlyph>
    <TTGlyph name="Thorn" xMin="57" yMin="-150" xMax="1024" yMax="1907">
      <contour>
        <pt x="436" y="1507" on="1"/>
        <pt x="445" y="1495" on="0"/>
        <pt x="479" y="1482" on="0"/>
        <pt x="525" y="1475" on="0"/>
        <pt x="582" y="1471" on="0"/>
        <pt x="614" y="1468" on="1"/>
        <pt x="647" y="1464" on="0"/>
        <pt x="733" y="1451" on="0"/>
        <pt x="824" y="1421" on="0"/>
        <pt x="912" y="1370" on="0"/>
        <pt x="981" y="1287" on="0"/>
        <pt x="1024" y="1166" on="0"/>
        <pt x="1024" y="1083" on="1"/>
        <pt x="1024" y="991" on="0"/>
        <pt x="965" y="849" on="0"/>
        <pt x="861" y="752" on="0"/>
        <pt x="720" y="702" on="0"/>
        <pt x="639" y="702" on="1"/>
        <pt x="600" y="702" on="0"/>
        <pt x="528" y="711" on="0"/>
        <pt x="467" y="724" on="0"/>
        <pt x="422" y="737" on="0"/>
        <pt x="410" y="741" on="1"/>
        <pt x="410" y="721" on="0"/>
        <pt x="410" y="633" on="0"/>
        <pt x="410" y="520" on="0"/>
        <pt x="410" y="394" on="0"/>
        <pt x="411" y="279" on="0"/>
        <pt x="411" y="187" on="0"/>
        <pt x="412" y="164" on="1"/>
        <pt x="413" y="126" on="0"/>
        <pt x="419" y="56" on="0"/>
        <pt x="434" y="-6" on="0"/>
        <pt x="465" y="-55" on="0"/>
        <pt x="492" y="-72" on="1"/>
        <pt x="513" y="-84" on="0"/>
        <pt x="562" y="-97" on="0"/>
        <pt x="578" y="-102" on="1"/>
        <pt x="582" y="-103" on="0"/>
        <pt x="595" y="-108" on="0"/>
        <pt x="607" y="-115" on="0"/>
        <pt x="616" y="-126" on="0"/>
        <pt x="616" y="-133" on="1"/>
        <pt x="616" y="-141" on="0"/>
        <pt x="603" y="-150" on="0"/>
        <pt x="586" y="-150" on="1"/>
        <pt x="567" y="-150" on="0"/>
        <pt x="510" y="-140" on="0"/>
        <pt x="441" y="-127" on="0"/>
        <pt x="364" y="-117" on="0"/>
        <pt x="324" y="-117" on="1"/>
        <pt x="282" y="-117" on="0"/>
        <pt x="199" y="-123" on="0"/>
        <pt x="131" y="-131" on="0"/>
        <pt x="83" y="-137" on="0"/>
        <pt x="76" y="-137" on="1"/>
        <pt x="57" y="-137" on="0"/>
        <pt x="57" y="-123" on="1"/>
        <pt x="57" y="-114" on="0"/>
        <pt x="69" y="-100" on="0"/>
        <pt x="87" y="-87" on="0"/>
        <pt x="109" y="-74" on="0"/>
        <pt x="119" y="-66" on="1"/>
        <pt x="147" y="-44" on="0"/>
        <pt x="193" y="23" on="0"/>
        <pt x="203" y="86" on="1"/>
        <pt x="206" y="107" on="0"/>
        <pt x="213" y="201" on="0"/>
        <pt x="219" y="323" on="0"/>
        <pt x="225" y="461" on="0"/>
        <pt x="231" y="593" on="0"/>
        <pt x="235" y="708" on="0"/>
        <pt x="236" y="745" on="1"/>
        <pt x="238" y="830" on="0"/>
        <pt x="244" y="1045" on="0"/>
        <pt x="250" y="1276" on="0"/>
        <pt x="254" y="1505" on="0"/>
        <pt x="254" y="1604" on="1"/>
        <pt x="254" y="1693" on="0"/>
        <pt x="231" y="1788" on="0"/>
        <pt x="205" y="1806" on="1"/>
        <pt x="187" y="1818" on="0"/>
        <pt x="139" y="1827" on="0"/>
        <pt x="97" y="1834" on="0"/>
        <pt x="68" y="1846" on="0"/>
        <pt x="68" y="1862" on="1"/>
        <pt x="68" y="1871" on="0"/>
        <pt x="81" y="1886" on="0"/>
        <pt x="98" y="1886" on="1"/>
        <pt x="119" y="1886" on="0"/>
        <pt x="164" y="1884" on="0"/>
        <pt x="220" y="1882" on="0"/>
        <pt x="288" y="1880" on="0"/>
        <pt x="332" y="1880" on="1"/>
        <pt x="380" y="1880" on="0"/>
        <pt x="458" y="1888" on="0"/>
        <pt x="520" y="1899" on="0"/>
        <pt x="568" y="1907" on="0"/>
        <pt x="586" y="1907" on="1"/>
        <pt x="635" y="1907" on="0"/>
        <pt x="635" y="1876" on="1"/>
        <pt x="635" y="1859" on="0"/>
        <pt x="607" y="1845" on="0"/>
        <pt x="586" y="1845" on="1"/>
        <pt x="532" y="1845" on="0"/>
        <pt x="472" y="1814" on="0"/>
        <pt x="455" y="1776" on="1"/>
        <pt x="449" y="1763" on="0"/>
        <pt x="437" y="1717" on="0"/>
        <pt x="429" y="1663" on="0"/>
        <pt x="424" y="1604" on="0"/>
        <pt x="424" y="1579" on="1"/>
        <pt x="424" y="1554" on="0"/>
        <pt x="430" y="1517" on="0"/>
      </contour>
      <contour>
        <pt x="535" y="776" on="1"/>
        <pt x="599" y="776" on="0"/>
        <pt x="687" y="827" on="0"/>
        <pt x="739" y="910" on="0"/>
        <pt x="762" y="1014" on="0"/>
        <pt x="762" y="1067" on="1"/>
        <pt x="762" y="1137" on="0"/>
        <pt x="738" y="1265" on="0"/>
        <pt x="685" y="1364" on="0"/>
        <pt x="603" y="1423" on="0"/>
        <pt x="545" y="1423" on="1"/>
        <pt x="490" y="1423" on="0"/>
        <pt x="430" y="1381" on="0"/>
        <pt x="401" y="1309" on="0"/>
        <pt x="395" y="1212" on="0"/>
        <pt x="395" y="1157" on="1"/>
        <pt x="395" y="1094" on="0"/>
        <pt x="399" y="967" on="0"/>
        <pt x="401" y="914" on="1"/>
        <pt x="404" y="852" on="0"/>
        <pt x="408" y="795" on="1"/>
        <pt x="425" y="789" on="0"/>
        <pt x="445" y="785" on="1"/>
        <pt x="462" y="781" on="0"/>
        <pt x="509" y="776" on="0"/>
      </contour>
    </TTGlyph>
    <TTGlyph name="U" xMin="0" yMin="86" xMax="1538" yMax="1614">
      <contour>
        <pt x="848" y="1614" on="1"/>
        <pt x="874" y="1614" on="0"/>
        <pt x="874" y="1593" on="1"/>
        <pt x="874" y="1578" on="0"/>
        <pt x="847" y="1554" on="0"/>
        <pt x="813" y="1538" on="1"/>
        <pt x="795" y="1530" on="0"/>
        <pt x="752" y="1508" on="0"/>
        <pt x="707" y="1479" on="0"/>
        <pt x="663" y="1440" on="0"/>
        <pt x="643" y="1415" on="1"/>
        <pt x="617" y="1383" on="0"/>
        <pt x="579" y="1283" on="0"/>
        <pt x="552" y="1156" on="0"/>
        <pt x="539" y="1006" on="0"/>
        <pt x="539" y="924" on="1"/>
        <pt x="539" y="834" on="0"/>
        <pt x="551" y="657" on="0"/>
        <pt x="580" y="497" on="0"/>
        <pt x="628" y="361" on="0"/>
        <pt x="699" y="261" on="0"/>
        <pt x="797" y="205" on="0"/>
        <pt x="862" y="205" on="1"/>
        <pt x="945" y="205" on="0"/>
        <pt x="1064" y="293" on="0"/>
        <pt x="1141" y="431" on="0"/>
        <pt x="1178" y="599" on="0"/>
        <pt x="1178" y="680" on="1"/>
        <pt x="1178" y="701" on="0"/>
        <pt x="1177" y="772" on="0"/>
        <pt x="1174" y="858" on="0"/>
        <pt x="1167" y="950" on="0"/>
        <pt x="1153" y="1036" on="0"/>
        <pt x="1131" y="1107" on="0"/>
        <pt x="1116" y="1128" on="1"/>
        <pt x="1101" y="1149" on="0"/>
        <pt x="1061" y="1183" on="0"/>
        <pt x="1004" y="1211" on="0"/>
        <pt x="926" y="1231" on="0"/>
        <pt x="874" y="1239" on="1"/>
        <pt x="832" y="1245" on="0"/>
        <pt x="788" y="1262" on="0"/>
        <pt x="788" y="1284" on="1"/>
        <pt x="788" y="1303" on="0"/>
        <pt x="823" y="1317" on="0"/>
        <pt x="854" y="1317" on="1"/>
        <pt x="883" y="1317" on="0"/>
        <pt x="952" y="1309" on="0"/>
        <pt x="1031" y="1300" on="0"/>
        <pt x="1119" y="1292" on="0"/>
        <pt x="1167" y="1292" on="1"/>
        <pt x="1211" y="1292" on="0"/>
        <pt x="1299" y="1302" on="0"/>
        <pt x="1380" y="1313" on="0"/>
        <pt x="1451" y="1323" on="0"/>
        <pt x="1479" y="1323" on="1"/>
        <pt x="1514" y="1323" on="0"/>
        <pt x="1538" y="1311" on="0"/>
        <pt x="1538" y="1300" on="1"/>
        <pt x="1538" y="1288" on="0"/>
        <pt x="1510" y="1280" on="0"/>
        <pt x="1487" y="1278" on="1"/>
        <pt x="1463" y="1276" on="0"/>
        <pt x="1408" y="1272" on="0"/>
        <pt x="1354" y="1258" on="0"/>
        <pt x="1307" y="1230" on="0"/>
        <pt x="1292" y="1204" on="1"/>
        <pt x="1272" y="1171" on="0"/>
        <pt x="1255" y="1057" on="0"/>
        <pt x="1249" y="919" on="0"/>
        <pt x="1249" y="770" on="0"/>
        <pt x="1245" y="702" on="1"/>
        <pt x="1243" y="662" on="0"/>
        <pt x="1229" y="539" on="0"/>
        <pt x="1195" y="402" on="0"/>
        <pt x="1135" y="265" on="0"/>
        <pt x="1038" y="155" on="0"/>
        <pt x="898" y="86" on="0"/>
        <pt x="801" y="86" on="1"/>
        <pt x="707" y="86" on="0"/>
        <pt x="553" y="142" on="0"/>
        <pt x="431" y="244" on="0"/>
        <pt x="343" y="385" on="0"/>
        <pt x="315" y="469" on="1"/>
        <pt x="298" y="520" on="0"/>
        <pt x="277" y="647" on="0"/>
        <pt x="264" y="787" on="0"/>
        <pt x="257" y="935" on="0"/>
        <pt x="256" y="1008" on="1"/>
        <pt x="254" y="1071" on="0"/>
        <pt x="246" y="1173" on="0"/>
        <pt x="228" y="1251" on="0"/>
        <pt x="197" y="1304" on="0"/>
        <pt x="172" y="1319" on="1"/>
        <pt x="144" y="1336" on="0"/>
        <pt x="85" y="1350" on="0"/>
        <pt x="39" y="1350" on="1"/>
        <pt x="0" y="1350" on="0"/>
        <pt x="0" y="1378" on="1"/>
        <pt x="0" y="1401" on="0"/>
        <pt x="33" y="1407" on="1"/>
        <pt x="77" y="1414" on="0"/>
        <pt x="166" y="1426" on="0"/>
        <pt x="260" y="1440" on="0"/>
        <pt x="360" y="1457" on="0"/>
        <pt x="414" y="1470" on="1"/>
        <pt x="511" y="1494" on="0"/>
        <pt x="657" y="1545" on="0"/>
        <pt x="762" y="1587" on="0"/>
        <pt x="829" y="1614" on="0"/>
      </contour>
    </TTGlyph>
    <TTGlyph name="Uacute" xMin="0" yMin="86" xMax="1538" yMax="1972">
      <component glyphName="U" x="0" y="0" flags="0x204"/>
      <component glyphName="acute" x="936" y="20" flags="0x4"/>
    </TTGlyph>
    <TTGlyph name="Ucircumflex" xMin="0" yMin="86" xMax="1538" yMax="2089">
      <component glyphName="U" x="0" y="0" flags="0x204"/>
      <component glyphName="circumflex" x="367" y="289" flags="0x4"/>
    </TTGlyph>
    <TTGlyph name="Udieresis" xMin="0" yMin="86" xMax="1538" yMax="2064">
      <component glyphName="U" x="0" y="0" flags="0x204"/>
      <component glyphName="dieresis.case" x="455" y="231" flags="0x4"/>
    </TTGlyph>
    <TTGlyph name="Ugrave" xMin="0" yMin="86" xMax="1538" yMax="2211">
      <component glyphName="U" x="0" y="0" flags="0x204"/>
      <component glyphName="grave" x="446" y="276" flags="0x4"/>
    </TTGlyph>
    <TTGlyph name="V" xMin="8" yMin="31" xMax="1800" yMax="1606">
      <contour>
        <pt x="870" y="1606" on="1"/>
        <pt x="891" y="1606" on="0"/>
        <pt x="891" y="1593" on="1"/>
        <pt x="891" y="1585" on="0"/>
        <pt x="875" y="1572" on="0"/>
        <pt x="846" y="1561" on="1"/>
        <pt x="833" y="1556" on="0"/>
        <pt x="793" y="1541" on="0"/>
        <pt x="749" y="1522" on="0"/>
        <pt x="705" y="1501" on="0"/>
        <pt x="688" y="1491" on="1"/>
        <pt x="670" y="1480" on="0"/>
        <pt x="651" y="1451" on="0"/>
        <pt x="651" y="1430" on="1"/>
        <pt x="651" y="1410" on="0"/>
        <pt x="670" y="1342" on="0"/>
        <pt x="701" y="1258" on="0"/>
        <pt x="743" y="1163" on="0"/>
        <pt x="787" y="1069" on="0"/>
        <pt x="831" y="981" on="0"/>
        <pt x="850" y="946" on="1"/>
        <pt x="872" y="903" on="0"/>
        <pt x="927" y="803" on="0"/>
        <pt x="983" y="701" on="0"/>
        <pt x="1039" y="606" on="0"/>
        <pt x="1086" y="533" on="0"/>
        <pt x="1121" y="489" on="0"/>
        <pt x="1130" y="489" on="1"/>
        <pt x="1139" y="489" on="0"/>
        <pt x="1166" y="534" on="0"/>
        <pt x="1199" y="603" on="0"/>
        <pt x="1234" y="688" on="0"/>
        <pt x="1249" y="729" on="1"/>
        <pt x="1261" y="762" on="0"/>
        <pt x="1290" y="855" on="0"/>
        <pt x="1315" y="951" on="0"/>
        <pt x="1331" y="1037" on="0"/>
        <pt x="1331" y="1063" on="1"/>
        <pt x="1331" y="1086" on="0"/>
        <pt x="1312" y="1113" on="0"/>
        <pt x="1278" y="1126" on="0"/>
        <pt x="1232" y="1130" on="0"/>
        <pt x="1204" y="1130" on="1"/>
        <pt x="1181" y="1130" on="0"/>
        <pt x="1132" y="1128" on="0"/>
        <pt x="1110" y="1128" on="1"/>
        <pt x="1065" y="1128" on="0"/>
        <pt x="1065" y="1155" on="1"/>
        <pt x="1065" y="1169" on="0"/>
        <pt x="1087" y="1181" on="0"/>
        <pt x="1110" y="1184" on="1"/>
        <pt x="1124" y="1185" on="0"/>
        <pt x="1197" y="1191" on="0"/>
        <pt x="1298" y="1207" on="0"/>
        <pt x="1418" y="1239" on="0"/>
        <pt x="1479" y="1268" on="1"/>
        <pt x="1551" y="1302" on="0"/>
        <pt x="1650" y="1371" on="0"/>
        <pt x="1719" y="1428" on="0"/>
        <pt x="1763" y="1464" on="0"/>
        <pt x="1780" y="1464" on="1"/>
        <pt x="1800" y="1464" on="0"/>
        <pt x="1800" y="1444" on="1"/>
        <pt x="1800" y="1428" on="0"/>
        <pt x="1754" y="1382" on="0"/>
        <pt x="1677" y="1308" on="0"/>
        <pt x="1575" y="1202" on="0"/>
        <pt x="1518" y="1126" on="1"/>
        <pt x="1484" y="1081" on="0"/>
        <pt x="1417" y="957" on="0"/>
        <pt x="1351" y="816" on="0"/>
        <pt x="1286" y="663" on="0"/>
        <pt x="1253" y="590" on="1"/>
        <pt x="1187" y="443" on="0"/>
        <pt x="1102" y="232" on="0"/>
        <pt x="1048" y="96" on="0"/>
        <pt x="1018" y="31" on="0"/>
        <pt x="1008" y="31" on="1"/>
        <pt x="999" y="31" on="0"/>
        <pt x="969" y="76" on="0"/>
        <pt x="929" y="156" on="0"/>
        <pt x="879" y="268" on="0"/>
        <pt x="850" y="336" on="1"/>
        <pt x="836" y="368" on="0"/>
        <pt x="786" y="490" on="0"/>
        <pt x="721" y="646" on="0"/>
        <pt x="646" y="823" on="0"/>
        <pt x="566" y="996" on="0"/>
        <pt x="487" y="1154" on="0"/>
        <pt x="451" y="1212" on="1"/>
        <pt x="412" y="1275" on="0"/>
        <pt x="325" y="1366" on="0"/>
        <pt x="256" y="1391" on="1"/>
        <pt x="216" y="1405" on="0"/>
        <pt x="143" y="1416" on="0"/>
        <pt x="98" y="1419" on="1"/>
        <pt x="53" y="1422" on="0"/>
        <pt x="8" y="1438" on="0"/>
        <pt x="8" y="1458" on="1"/>
        <pt x="8" y="1478" on="0"/>
        <pt x="46" y="1495" on="0"/>
        <pt x="88" y="1495" on="1"/>
        <pt x="110" y="1495" on="0"/>
        <pt x="152" y="1493" on="0"/>
        <pt x="196" y="1491" on="0"/>
        <pt x="245" y="1489" on="0"/>
        <pt x="274" y="1489" on="1"/>
        <pt x="341" y="1489" on="0"/>
        <pt x="476" y="1506" on="0"/>
        <pt x="601" y="1532" on="0"/>
        <pt x="712" y="1563" on="0"/>
        <pt x="800" y="1589" on="0"/>
        <pt x="859" y="1606" on="0"/>
      </contour>
    </TTGlyph>
    <TTGlyph name="W" xMin="-61" yMin="-172" xMax="2552" yMax="1575">
      <contour>
        <pt x="586" y="1300" on="1"/>
        <pt x="595" y="1300" on="0"/>
        <pt x="602" y="1290" on="0"/>
        <pt x="602" y="1284" on="1"/>
        <pt x="602" y="1272" on="0"/>
        <pt x="568" y="1228" on="0"/>
        <pt x="526" y="1169" on="0"/>
        <pt x="492" y="1101" on="0"/>
        <pt x="492" y="1067" on="1"/>
        <pt x="492" y="1032" on="0"/>
        <pt x="510" y="946" on="0"/>
        <pt x="537" y="855" on="0"/>
        <pt x="569" y="767" on="0"/>
        <pt x="584" y="731" on="1"/>
        <pt x="589" y="716" on="0"/>
        <pt x="615" y="655" on="0"/>
        <pt x="647" y="581" on="0"/>
        <pt x="684" y="503" on="0"/>
        <pt x="718" y="438" on="0"/>
        <pt x="746" y="397" on="0"/>
        <pt x="754" y="397" on="1"/>
        <pt x="762" y="397" on="0"/>
        <pt x="790" y="432" on="0"/>
        <pt x="827" y="495" on="0"/>
        <pt x="876" y="580" on="0"/>
        <pt x="905" y="631" on="1"/>
        <pt x="950" y="710" on="0"/>
        <pt x="1019" y="836" on="0"/>
        <pt x="1069" y="924" on="0"/>
        <pt x="1101" y="971" on="0"/>
        <pt x="1110" y="971" on="1"/>
        <pt x="1119" y="971" on="0"/>
        <pt x="1148" y="941" on="0"/>
        <pt x="1203" y="863" on="0"/>
        <pt x="1292" y="727" on="0"/>
        <pt x="1362" y="621" on="1"/>
        <pt x="1373" y="604" on="0"/>
        <pt x="1414" y="540" on="0"/>
        <pt x="1464" y="462" on="0"/>
        <pt x="1519" y="381" on="0"/>
        <pt x="1568" y="315" on="0"/>
        <pt x="1607" y="272" on="0"/>
        <pt x="1616" y="272" on="1"/>
        <pt x="1626" y="272" on="0"/>
        <pt x="1662" y="325" on="0"/>
        <pt x="1704" y="402" on="0"/>
        <pt x="1747" y="488" on="0"/>
        <pt x="1763" y="522" on="1"/>
        <pt x="1770" y="537" on="0"/>
        <pt x="1804" y="611" on="0"/>
        <pt x="1849" y="715" on="0"/>
        <pt x="1903" y="842" on="0"/>
        <pt x="1956" y="976" on="0"/>
        <pt x="2006" y="1111" on="0"/>
        <pt x="2045" y="1231" on="0"/>
        <pt x="2068" y="1328" on="0"/>
        <pt x="2068" y="1358" on="1"/>
        <pt x="2068" y="1384" on="0"/>
        <pt x="2034" y="1426" on="0"/>
        <pt x="2003" y="1442" on="1"/>
        <pt x="1956" y="1466" on="0"/>
        <pt x="1883" y="1497" on="0"/>
        <pt x="1832" y="1520" on="0"/>
        <pt x="1806" y="1539" on="0"/>
        <pt x="1806" y="1552" on="1"/>
        <pt x="1806" y="1563" on="0"/>
        <pt x="1822" y="1575" on="0"/>
        <pt x="1833" y="1575" on="1"/>
        <pt x="1848" y="1575" on="0"/>
        <pt x="1896" y="1558" on="0"/>
        <pt x="1975" y="1533" on="0"/>
        <pt x="2094" y="1503" on="0"/>
        <pt x="2181" y="1491" on="1"/>
        <pt x="2250" y="1482" on="0"/>
        <pt x="2366" y="1475" on="0"/>
        <pt x="2417" y="1475" on="1"/>
        <pt x="2448" y="1475" on="0"/>
        <pt x="2490" y="1477" on="0"/>
        <pt x="2503" y="1477" on="1"/>
        <pt x="2531" y="1477" on="0"/>
        <pt x="2552" y="1462" on="0"/>
        <pt x="2552" y="1450" on="1"/>
        <pt x="2552" y="1438" on="0"/>
        <pt x="2536" y="1425" on="0"/>
        <pt x="2513" y="1417" on="0"/>
        <pt x="2486" y="1415" on="0"/>
        <pt x="2474" y="1415" on="1"/>
        <pt x="2422" y="1415" on="0"/>
        <pt x="2349" y="1410" on="0"/>
        <pt x="2294" y="1395" on="0"/>
        <pt x="2250" y="1364" on="0"/>
        <pt x="2228" y="1339" on="1"/>
        <pt x="2205" y="1313" on="0"/>
        <pt x="2145" y="1206" on="0"/>
        <pt x="2077" y="1063" on="0"/>
        <pt x="2002" y="895" on="0"/>
        <pt x="1927" y="722" on="0"/>
        <pt x="1853" y="554" on="0"/>
        <pt x="1819" y="483" on="1"/>
        <pt x="1798" y="439" on="0"/>
        <pt x="1739" y="308" on="0"/>
        <pt x="1673" y="162" on="0"/>
        <pt x="1606" y="17" on="0"/>
        <pt x="1546" y="-99" on="0"/>
        <pt x="1500" y="-172" on="0"/>
        <pt x="1489" y="-172" on="1"/>
        <pt x="1472" y="-172" on="0"/>
        <pt x="1397" y="-29" on="0"/>
        <pt x="1335" y="104" on="1"/>
        <pt x="1297" y="187" on="0"/>
        <pt x="1228" y="346" on="0"/>
        <pt x="1167" y="487" on="0"/>
        <pt x="1117" y="605" on="0"/>
        <pt x="1077" y="691" on="0"/>
        <pt x="1049" y="739" on="0"/>
        <pt x="1042" y="739" on="1"/>
        <pt x="1035" y="739" on="0"/>
        <pt x="1000" y="685" on="0"/>
        <pt x="953" y="601" on="0"/>
        <pt x="901" y="499" on="0"/>
        <pt x="853" y="405" on="0"/>
        <pt x="815" y="329" on="0"/>
        <pt x="807" y="313" on="1"/>
        <pt x="657" y="29" on="1"/>
        <pt x="643" y="4" on="0"/>
        <pt x="624" y="-16" on="0"/>
        <pt x="614" y="-16" on="1"/>
        <pt x="597" y="-16" on="0"/>
        <pt x="582" y="20" on="1"/>
        <pt x="570" y="48" on="0"/>
        <pt x="541" y="122" on="0"/>
        <pt x="510" y="207" on="0"/>
        <pt x="477" y="298" on="0"/>
        <pt x="461" y="342" on="1"/>
        <pt x="432" y="423" on="0"/>
        <pt x="386" y="576" on="0"/>
        <pt x="342" y="713" on="0"/>
        <pt x="296" y="827" on="0"/>
        <pt x="240" y="910" on="0"/>
        <pt x="169" y="956" on="0"/>
        <pt x="123" y="956" on="1"/>
        <pt x="100" y="956" on="0"/>
        <pt x="57" y="951" on="0"/>
        <pt x="18" y="945" on="0"/>
        <pt x="-15" y="940" on="0"/>
        <pt x="-27" y="940" on="1"/>
        <pt x="-61" y="940" on="0"/>
        <pt x="-61" y="965" on="1"/>
        <pt x="-61" y="979" on="0"/>
        <pt x="-43" y="992" on="0"/>
        <pt x="-29" y="997" on="1"/>
        <pt x="-11" y="1003" on="0"/>
        <pt x="49" y="1013" on="0"/>
        <pt x="128" y="1033" on="0"/>
        <pt x="226" y="1067" on="0"/>
        <pt x="283" y="1096" on="1"/>
        <pt x="363" y="1136" on="0"/>
        <pt x="469" y="1210" on="0"/>
        <pt x="538" y="1267" on="0"/>
        <pt x="575" y="1300" on="0"/>
      </contour>
    </TTGlyph>
    <TTGlyph name="X" xMin="0" yMin="-47" xMax="1804" yMax="1577">
      <contour>
        <pt x="909" y="1577" on="1"/>
        <pt x="936" y="1577" on="0"/>
        <pt x="936" y="1559" on="1"/>
        <pt x="936" y="1544" on="0"/>
        <pt x="899" y="1525" on="0"/>
        <pt x="856" y="1500" on="0"/>
        <pt x="819" y="1459" on="0"/>
        <pt x="819" y="1421" on="1"/>
        <pt x="819" y="1388" on="0"/>
        <pt x="841" y="1308" on="0"/>
        <pt x="872" y="1229" on="0"/>
        <pt x="908" y="1157" on="0"/>
        <pt x="922" y="1133" on="1"/>
        <pt x="929" y="1118" on="0"/>
        <pt x="959" y="1065" on="0"/>
        <pt x="995" y="1002" on="0"/>
        <pt x="1036" y="938" on="0"/>
        <pt x="1075" y="885" on="0"/>
        <pt x="1108" y="852" on="0"/>
        <pt x="1118" y="852" on="1"/>
        <pt x="1130" y="852" on="0"/>
        <pt x="1164" y="882" on="0"/>
        <pt x="1204" y="931" on="0"/>
        <pt x="1248" y="995" on="0"/>
        <pt x="1270" y="1030" on="1"/>
        <pt x="1288" y="1059" on="0"/>
        <pt x="1320" y="1118" on="0"/>
        <pt x="1344" y="1174" on="0"/>
        <pt x="1358" y="1223" on="0"/>
        <pt x="1358" y="1243" on="1"/>
        <pt x="1358" y="1269" on="0"/>
        <pt x="1321" y="1306" on="0"/>
        <pt x="1298" y="1323" on="1"/>
        <pt x="1281" y="1335" on="0"/>
        <pt x="1247" y="1356" on="0"/>
        <pt x="1219" y="1373" on="0"/>
        <pt x="1202" y="1389" on="0"/>
        <pt x="1202" y="1397" on="1"/>
        <pt x="1202" y="1411" on="0"/>
        <pt x="1217" y="1411" on="1"/>
        <pt x="1229" y="1411" on="0"/>
        <pt x="1266" y="1392" on="0"/>
        <pt x="1320" y="1362" on="0"/>
        <pt x="1395" y="1326" on="0"/>
        <pt x="1446" y="1309" on="1"/>
        <pt x="1502" y="1290" on="0"/>
        <pt x="1594" y="1272" on="0"/>
        <pt x="1632" y="1266" on="1"/>
        <pt x="1663" y="1259" on="0"/>
        <pt x="1690" y="1248" on="0"/>
        <pt x="1690" y="1239" on="1"/>
        <pt x="1690" y="1223" on="0"/>
        <pt x="1663" y="1223" on="1"/>
        <pt x="1644" y="1223" on="0"/>
        <pt x="1585" y="1235" on="0"/>
        <pt x="1554" y="1235" on="1"/>
        <pt x="1531" y="1235" on="0"/>
        <pt x="1487" y="1222" on="0"/>
        <pt x="1468" y="1208" on="1"/>
        <pt x="1447" y="1193" on="0"/>
        <pt x="1389" y="1122" on="0"/>
        <pt x="1324" y="1031" on="0"/>
        <pt x="1260" y="931" on="0"/>
        <pt x="1210" y="842" on="0"/>
        <pt x="1178" y="776" on="0"/>
        <pt x="1178" y="764" on="1"/>
        <pt x="1178" y="747" on="0"/>
        <pt x="1210" y="668" on="0"/>
        <pt x="1262" y="566" on="0"/>
        <pt x="1326" y="452" on="0"/>
        <pt x="1389" y="344" on="0"/>
        <pt x="1445" y="255" on="0"/>
        <pt x="1462" y="229" on="1"/>
        <pt x="1485" y="195" on="0"/>
        <pt x="1528" y="141" on="0"/>
        <pt x="1578" y="95" on="0"/>
        <pt x="1641" y="55" on="0"/>
        <pt x="1686" y="37" on="1"/>
        <pt x="1711" y="26" on="0"/>
        <pt x="1754" y="11" on="0"/>
        <pt x="1786" y="-2" on="0"/>
        <pt x="1804" y="-14" on="0"/>
        <pt x="1804" y="-23" on="1"/>
        <pt x="1804" y="-31" on="0"/>
        <pt x="1785" y="-43" on="0"/>
        <pt x="1753" y="-43" on="1"/>
        <pt x="1721" y="-43" on="0"/>
        <pt x="1631" y="-29" on="0"/>
        <pt x="1514" y="-12" on="0"/>
        <pt x="1367" y="2" on="0"/>
        <pt x="1278" y="2" on="1"/>
        <pt x="1238" y="2" on="0"/>
        <pt x="1160" y="-1" on="0"/>
        <pt x="1092" y="-4" on="0"/>
        <pt x="1035" y="-6" on="0"/>
        <pt x="1016" y="-6" on="1"/>
        <pt x="991" y="-6" on="0"/>
        <pt x="961" y="3" on="0"/>
        <pt x="961" y="20" on="1"/>
        <pt x="961" y="31" on="0"/>
        <pt x="980" y="47" on="0"/>
        <pt x="1012" y="49" on="1"/>
        <pt x="1025" y="50" on="0"/>
        <pt x="1070" y="50" on="0"/>
        <pt x="1124" y="52" on="0"/>
        <pt x="1182" y="55" on="0"/>
        <pt x="1208" y="59" on="1"/>
        <pt x="1236" y="64" on="0"/>
        <pt x="1270" y="80" on="0"/>
        <pt x="1270" y="94" on="1"/>
        <pt x="1270" y="108" on="0"/>
        <pt x="1249" y="158" on="0"/>
        <pt x="1213" y="224" on="0"/>
        <pt x="1164" y="304" on="0"/>
        <pt x="1137" y="348" on="1"/>
        <pt x="1103" y="402" on="0"/>
        <pt x="1037" y="508" on="0"/>
        <pt x="981" y="591" on="0"/>
        <pt x="938" y="643" on="0"/>
        <pt x="928" y="643" on="1"/>
        <pt x="921" y="643" on="0"/>
        <pt x="878" y="598" on="0"/>
        <pt x="819" y="523" on="0"/>
        <pt x="749" y="425" on="0"/>
        <pt x="715" y="371" on="1"/>
        <pt x="675" y="309" on="0"/>
        <pt x="618" y="191" on="0"/>
        <pt x="618" y="147" on="1"/>
        <pt x="618" y="118" on="0"/>
        <pt x="639" y="71" on="0"/>
        <pt x="657" y="51" on="1"/>
        <pt x="669" y="39" on="0"/>
        <pt x="699" y="19" on="0"/>
        <pt x="724" y="0" on="0"/>
        <pt x="741" y="-18" on="0"/>
        <pt x="741" y="-27" on="1"/>
        <pt x="741" y="-47" on="0"/>
        <pt x="717" y="-47" on="1"/>
        <pt x="699" y="-47" on="0"/>
        <pt x="641" y="-25" on="0"/>
        <pt x="563" y="7" on="0"/>
        <pt x="469" y="42" on="0"/>
        <pt x="416" y="55" on="1"/>
        <pt x="345" y="72" on="0"/>
        <pt x="197" y="80" on="0"/>
        <pt x="123" y="82" on="1"/>
        <pt x="89" y="82" on="0"/>
        <pt x="63" y="94" on="0"/>
        <pt x="63" y="106" on="1"/>
        <pt x="63" y="119" on="0"/>
        <pt x="89" y="133" on="0"/>
        <pt x="129" y="133" on="1"/>
        <pt x="149" y="133" on="0"/>
        <pt x="206" y="135" on="0"/>
        <pt x="271" y="142" on="0"/>
        <pt x="339" y="154" on="0"/>
        <pt x="371" y="164" on="1"/>
        <pt x="416" y="179" on="0"/>
        <pt x="488" y="220" on="0"/>
        <pt x="549" y="274" on="0"/>
        <pt x="604" y="340" on="0"/>
        <pt x="633" y="379" on="1"/>
        <pt x="648" y="400" on="0"/>
        <pt x="692" y="459" on="0"/>
        <pt x="740" y="527" on="0"/>
        <pt x="788" y="598" on="0"/>
        <pt x="826" y="662" on="0"/>
        <pt x="850" y="714" on="0"/>
        <pt x="850" y="729" on="1"/>
        <pt x="850" y="746" on="0"/>
        <pt x="819" y="823" on="0"/>
        <pt x="765" y="925" on="0"/>
        <pt x="692" y="1043" on="0"/>
        <pt x="607" y="1161" on="0"/>
        <pt x="515" y="1270" on="0"/>
        <pt x="469" y="1311" on="1"/>
        <pt x="429" y="1346" on="0"/>
        <pt x="334" y="1394" on="0"/>
        <pt x="227" y="1423" on="0"/>
        <pt x="109" y="1436" on="0"/>
        <pt x="47" y="1436" on="1"/>
        <pt x="0" y="1436" on="0"/>
        <pt x="0" y="1460" on="1"/>
        <pt x="0" y="1471" on="0"/>
        <pt x="18" y="1485" on="0"/>
        <pt x="43" y="1485" on="1"/>
        <pt x="78" y="1485" on="0"/>
        <pt x="154" y="1483" on="0"/>
        <pt x="199" y="1483" on="1"/>
        <pt x="253" y="1483" on="0"/>
        <pt x="395" y="1488" on="0"/>
        <pt x="496" y="1499" on="1"/>
        <pt x="579" y="1508" on="0"/>
        <pt x="715" y="1534" on="0"/>
        <pt x="819" y="1559" on="0"/>
        <pt x="891" y="1577" on="0"/>
      </contour>
    </TTGlyph>
    <TTGlyph name="Y" xMin="20" yMin="-240" xMax="1817" yMax="1755">
      <contour>
        <pt x="733" y="1739" on="1"/>
        <pt x="733" y="1729" on="0"/>
        <pt x="706" y="1712" on="0"/>
        <pt x="662" y="1693" on="0"/>
        <pt x="605" y="1670" on="0"/>
        <pt x="575" y="1655" on="1"/>
        <pt x="555" y="1645" on="0"/>
        <pt x="530" y="1614" on="0"/>
        <pt x="530" y="1591" on="1"/>
        <pt x="530" y="1566" on="0"/>
        <pt x="575" y="1490" on="0"/>
        <pt x="640" y="1406" on="0"/>
        <pt x="711" y="1323" on="0"/>
        <pt x="737" y="1292" on="1"/>
        <pt x="765" y="1258" on="0"/>
        <pt x="844" y="1172" on="0"/>
        <pt x="923" y="1094" on="0"/>
        <pt x="992" y="1041" on="0"/>
        <pt x="1010" y="1040" on="1"/>
        <pt x="1020" y="1039" on="0"/>
        <pt x="1053" y="1064" on="0"/>
        <pt x="1093" y="1104" on="0"/>
        <pt x="1137" y="1155" on="0"/>
        <pt x="1180" y="1209" on="0"/>
        <pt x="1220" y="1259" on="0"/>
        <pt x="1235" y="1278" on="1"/>
        <pt x="1256" y="1304" on="0"/>
        <pt x="1310" y="1376" on="0"/>
        <pt x="1358" y="1448" on="0"/>
        <pt x="1391" y="1512" on="0"/>
        <pt x="1391" y="1530" on="1"/>
        <pt x="1391" y="1541" on="0"/>
        <pt x="1373" y="1561" on="0"/>
        <pt x="1345" y="1580" on="0"/>
        <pt x="1310" y="1596" on="0"/>
        <pt x="1292" y="1602" on="1"/>
        <pt x="1274" y="1608" on="0"/>
        <pt x="1249" y="1624" on="0"/>
        <pt x="1249" y="1636" on="1"/>
        <pt x="1249" y="1646" on="0"/>
        <pt x="1263" y="1655" on="0"/>
        <pt x="1274" y="1655" on="1"/>
        <pt x="1289" y="1655" on="0"/>
        <pt x="1330" y="1641" on="0"/>
        <pt x="1389" y="1621" on="0"/>
        <pt x="1469" y="1599" on="0"/>
        <pt x="1524" y="1591" on="1"/>
        <pt x="1569" y="1585" on="0"/>
        <pt x="1642" y="1578" on="0"/>
        <pt x="1701" y="1575" on="0"/>
        <pt x="1748" y="1575" on="0"/>
        <pt x="1769" y="1575" on="1"/>
        <pt x="1817" y="1575" on="0"/>
        <pt x="1817" y="1554" on="1"/>
        <pt x="1817" y="1530" on="0"/>
        <pt x="1763" y="1530" on="1"/>
        <pt x="1752" y="1530" on="0"/>
        <pt x="1708" y="1532" on="0"/>
        <pt x="1679" y="1532" on="1"/>
        <pt x="1658" y="1532" on="0"/>
        <pt x="1609" y="1531" on="0"/>
        <pt x="1560" y="1524" on="0"/>
        <pt x="1513" y="1510" on="0"/>
        <pt x="1493" y="1497" on="1"/>
        <pt x="1469" y="1482" on="0"/>
        <pt x="1417" y="1427" on="0"/>
        <pt x="1362" y="1360" on="0"/>
        <pt x="1304" y="1283" on="0"/>
        <pt x="1276" y="1245" on="1"/>
        <pt x="1247" y="1207" on="0"/>
        <pt x="1195" y="1135" on="0"/>
        <pt x="1149" y="1070" on="0"/>
        <pt x="1112" y="1015" on="0"/>
        <pt x="1100" y="995" on="1"/>
        <pt x="1078" y="961" on="0"/>
        <pt x="1050" y="905" on="0"/>
        <pt x="1033" y="848" on="0"/>
        <pt x="1026" y="784" on="0"/>
        <pt x="1026" y="743" on="1"/>
        <pt x="1026" y="688" on="0"/>
        <pt x="1029" y="560" on="0"/>
        <pt x="1035" y="428" on="0"/>
        <pt x="1041" y="299" on="0"/>
        <pt x="1049" y="185" on="0"/>
        <pt x="1056" y="94" on="0"/>
        <pt x="1059" y="66" on="1"/>
        <pt x="1068" y="-17" on="0"/>
        <pt x="1109" y="-111" on="0"/>
        <pt x="1141" y="-137" on="1"/>
        <pt x="1155" y="-149" on="0"/>
        <pt x="1193" y="-169" on="0"/>
        <pt x="1227" y="-189" on="0"/>
        <pt x="1251" y="-209" on="0"/>
        <pt x="1251" y="-221" on="1"/>
        <pt x="1251" y="-229" on="0"/>
        <pt x="1240" y="-240" on="0"/>
        <pt x="1225" y="-240" on="1"/>
        <pt x="1203" y="-240" on="0"/>
        <pt x="1132" y="-221" on="0"/>
        <pt x="1038" y="-196" on="0"/>
        <pt x="924" y="-170" on="0"/>
        <pt x="860" y="-162" on="1"/>
        <pt x="804" y="-156" on="0"/>
        <pt x="704" y="-152" on="0"/>
        <pt x="662" y="-152" on="1"/>
        <pt x="615" y="-152" on="0"/>
        <pt x="549" y="-154" on="0"/>
        <pt x="532" y="-154" on="1"/>
        <pt x="505" y="-154" on="0"/>
        <pt x="473" y="-142" on="0"/>
        <pt x="473" y="-127" on="1"/>
        <pt x="473" y="-110" on="0"/>
        <pt x="509" y="-95" on="0"/>
        <pt x="567" y="-86" on="0"/>
        <pt x="642" y="-75" on="0"/>
        <pt x="680" y="-63" on="1"/>
        <pt x="706" y="-55" on="0"/>
        <pt x="741" y="-27" on="0"/>
        <pt x="764" y="11" on="0"/>
        <pt x="777" y="55" on="0"/>
        <pt x="782" y="80" on="1"/>
        <pt x="788" y="107" on="0"/>
        <pt x="802" y="212" on="0"/>
        <pt x="816" y="347" on="0"/>
        <pt x="825" y="500" on="0"/>
        <pt x="825" y="575" on="1"/>
        <pt x="825" y="628" on="0"/>
        <pt x="820" y="722" on="0"/>
        <pt x="809" y="768" on="1"/>
        <pt x="802" y="798" on="0"/>
        <pt x="756" y="888" on="0"/>
        <pt x="687" y="996" on="0"/>
        <pt x="602" y="1115" on="0"/>
        <pt x="511" y="1234" on="0"/>
        <pt x="420" y="1346" on="0"/>
        <pt x="339" y="1438" on="0"/>
        <pt x="273" y="1505" on="0"/>
        <pt x="254" y="1520" on="1"/>
        <pt x="230" y="1538" on="0"/>
        <pt x="188" y="1562" on="0"/>
        <pt x="145" y="1579" on="0"/>
        <pt x="98" y="1590" on="0"/>
        <pt x="68" y="1595" on="1"/>
        <pt x="20" y="1601" on="0"/>
        <pt x="20" y="1624" on="1"/>
        <pt x="20" y="1636" on="0"/>
        <pt x="41" y="1649" on="0"/>
        <pt x="72" y="1649" on="1"/>
        <pt x="124" y="1649" on="0"/>
        <pt x="264" y="1654" on="0"/>
        <pt x="369" y="1669" on="1"/>
        <pt x="451" y="1681" on="0"/>
        <pt x="566" y="1711" on="0"/>
        <pt x="646" y="1737" on="0"/>
        <pt x="696" y="1755" on="0"/>
        <pt x="713" y="1755" on="1"/>
        <pt x="733" y="1755" on="0"/>
      </contour>
    </TTGlyph>
    <TTGlyph name="Yacute" xMin="20" yMin="-240" xMax="1817" yMax="2190">
      <component glyphName="Y" x="0" y="0" flags="0x204"/>
      <component glyphName="acute" x="932" y="238" flags="0x4"/>
    </TTGlyph>
    <TTGlyph name="Z" xMin="102" yMin="-240" xMax="1337" yMax="1495">
      <contour>
        <pt x="201" y="-229" on="1"/>
        <pt x="197" y="-221" on="0"/>
        <pt x="197" y="-211" on="1"/>
        <pt x="197" y="-176" on="0"/>
        <pt x="248" y="2" on="0"/>
        <pt x="299" y="156" on="1"/>
        <pt x="315" y="204" on="0"/>
        <pt x="358" y="350" on="0"/>
        <pt x="406" y="523" on="0"/>
        <pt x="458" y="714" on="0"/>
        <pt x="508" y="899" on="0"/>
        <pt x="552" y="1070" on="0"/>
        <pt x="585" y="1204" on="0"/>
        <pt x="604" y="1291" on="0"/>
        <pt x="604" y="1300" on="1"/>
        <pt x="604" y="1305" on="0"/>
        <pt x="578" y="1314" on="0"/>
        <pt x="534" y="1321" on="0"/>
        <pt x="479" y="1325" on="0"/>
        <pt x="449" y="1325" on="1"/>
        <pt x="419" y="1325" on="0"/>
        <pt x="357" y="1318" on="0"/>
        <pt x="299" y="1299" on="0"/>
        <pt x="246" y="1265" on="0"/>
        <pt x="225" y="1239" on="1"/>
        <pt x="199" y="1206" on="0"/>
        <pt x="170" y="1115" on="0"/>
        <pt x="154" y="1026" on="0"/>
        <pt x="148" y="954" on="0"/>
        <pt x="145" y="940" on="1"/>
        <pt x="139" y="899" on="0"/>
        <pt x="121" y="899" on="1"/>
        <pt x="113" y="899" on="0"/>
        <pt x="102" y="918" on="0"/>
        <pt x="102" y="944" on="1"/>
        <pt x="102" y="974" on="0"/>
        <pt x="109" y="1064" on="0"/>
        <pt x="116" y="1161" on="0"/>
        <pt x="123" y="1255" on="0"/>
        <pt x="123" y="1290" on="1"/>
        <pt x="123" y="1361" on="0"/>
        <pt x="115" y="1449" on="0"/>
        <pt x="115" y="1475" on="1"/>
        <pt x="115" y="1495" on="0"/>
        <pt x="123" y="1495" on="1"/>
        <pt x="130" y="1495" on="0"/>
        <pt x="179" y="1461" on="0"/>
        <pt x="281" y="1420" on="0"/>
        <pt x="449" y="1386" on="0"/>
        <pt x="575" y="1386" on="1"/>
        <pt x="653" y="1386" on="0"/>
        <pt x="781" y="1402" on="0"/>
        <pt x="878" y="1422" on="0"/>
        <pt x="945" y="1438" on="0"/>
        <pt x="961" y="1438" on="1"/>
        <pt x="977" y="1438" on="0"/>
        <pt x="977" y="1421" on="1"/>
        <pt x="977" y="1398" on="0"/>
        <pt x="940" y="1297" on="0"/>
        <pt x="915" y="1225" on="1"/>
        <pt x="892" y="1158" on="0"/>
        <pt x="823" y="977" on="0"/>
        <pt x="741" y="761" on="0"/>
        <pt x="651" y="515" on="0"/>
        <pt x="606" y="385" on="1"/>
        <pt x="565" y="264" on="0"/>
        <pt x="505" y="90" on="0"/>
        <pt x="467" y="-28" on="0"/>
        <pt x="449" y="-94" on="0"/>
        <pt x="449" y="-106" on="1"/>
        <pt x="449" y="-117" on="0"/>
        <pt x="467" y="-121" on="0"/>
        <pt x="479" y="-121" on="1"/>
        <pt x="509" y="-121" on="0"/>
        <pt x="618" y="-107" on="0"/>
        <pt x="746" y="-84" on="0"/>
        <pt x="878" y="-53" on="0"/>
        <pt x="930" y="-35" on="1"/>
        <pt x="1004" y="-10" on="0"/>
        <pt x="1091" y="69" on="0"/>
        <pt x="1136" y="165" on="0"/>
        <pt x="1149" y="273" on="0"/>
        <pt x="1149" y="326" on="1"/>
        <pt x="1149" y="352" on="0"/>
        <pt x="1145" y="409" on="0"/>
        <pt x="1139" y="465" on="0"/>
        <pt x="1135" y="514" on="0"/>
        <pt x="1135" y="532" on="1"/>
        <pt x="1135" y="565" on="0"/>
        <pt x="1147" y="565" on="1"/>
        <pt x="1157" y="565" on="0"/>
        <pt x="1174" y="524" on="0"/>
        <pt x="1193" y="448" on="0"/>
        <pt x="1219" y="337" on="0"/>
        <pt x="1237" y="268" on="1"/>
        <pt x="1257" y="194" on="0"/>
        <pt x="1293" y="70" on="0"/>
        <pt x="1321" y="-24" on="0"/>
        <pt x="1337" y="-89" on="0"/>
        <pt x="1337" y="-104" on="1"/>
        <pt x="1337" y="-121" on="0"/>
        <pt x="1321" y="-121" on="1"/>
        <pt x="1307" y="-121" on="0"/>
        <pt x="1254" y="-113" on="0"/>
        <pt x="1183" y="-102" on="0"/>
        <pt x="1097" y="-94" on="0"/>
        <pt x="1051" y="-94" on="1"/>
        <pt x="989" y="-94" on="0"/>
        <pt x="830" y="-113" on="0"/>
        <pt x="654" y="-145" on="0"/>
        <pt x="469" y="-186" on="0"/>
        <pt x="379" y="-207" on="1"/>
        <pt x="329" y="-219" on="0"/>
        <pt x="254" y="-240" on="0"/>
        <pt x="231" y="-240" on="1"/>
        <pt x="220" y="-240" on="0"/>
        <pt x="206" y="-236" on="0"/>
      </contour>
    </TTGlyph>
    <TTGlyph name="a" xMin="31" yMin="-205" xMax="1149" yMax="1276">
      <contour>
        <pt x="309" y="721" on="1"/>
        <pt x="272" y="721" on="0"/>
        <pt x="207" y="749" on="0"/>
        <pt x="159" y="805" on="0"/>
        <pt x="131" y="889" on="0"/>
        <pt x="131" y="946" on="1"/>
        <pt x="131" y="1008" on="0"/>
        <pt x="166" y="1127" on="0"/>
        <pt x="240" y="1220" on="0"/>
        <pt x="355" y="1276" on="0"/>
        <pt x="436" y="1276" on="1"/>
        <pt x="503" y="1276" on="0"/>
        <pt x="606" y="1241" on="0"/>
        <pt x="684" y="1182" on="0"/>
        <pt x="739" y="1104" on="0"/>
        <pt x="777" y="1019" on="0"/>
        <pt x="802" y="932" on="0"/>
        <pt x="811" y="893" on="1"/>
        <pt x="816" y="871" on="0"/>
        <pt x="831" y="790" on="0"/>
        <pt x="849" y="684" on="0"/>
        <pt x="869" y="563" on="0"/>
        <pt x="889" y="439" on="0"/>
        <pt x="908" y="322" on="0"/>
        <pt x="924" y="225" on="0"/>
        <pt x="935" y="156" on="0"/>
        <pt x="938" y="143" on="1"/>
        <pt x="944" y="112" on="0"/>
        <pt x="959" y="48" on="0"/>
        <pt x="982" y="-5" on="0"/>
        <pt x="1016" y="-39" on="0"/>
        <pt x="1042" y="-39" on="1"/>
        <pt x="1057" y="-39" on="0"/>
        <pt x="1079" y="-25" on="0"/>
        <pt x="1092" y="-1" on="0"/>
        <pt x="1098" y="29" on="0"/>
        <pt x="1098" y="45" on="1"/>
        <pt x="1098" y="64" on="0"/>
        <pt x="1096" y="103" on="0"/>
        <pt x="1096" y="117" on="1"/>
        <pt x="1096" y="132" on="0"/>
        <pt x="1104" y="154" on="0"/>
        <pt x="1116" y="154" on="1"/>
        <pt x="1127" y="154" on="0"/>
        <pt x="1140" y="129" on="0"/>
        <pt x="1147" y="96" on="0"/>
        <pt x="1149" y="63" on="0"/>
        <pt x="1149" y="55" on="1"/>
        <pt x="1149" y="20" on="0"/>
        <pt x="1137" y="-68" on="0"/>
        <pt x="1118" y="-109" on="1"/>
        <pt x="1100" y="-151" on="0"/>
        <pt x="1016" y="-205" on="0"/>
        <pt x="961" y="-205" on="1"/>
        <pt x="913" y="-205" on="0"/>
        <pt x="844" y="-177" on="0"/>
        <pt x="795" y="-135" on="0"/>
        <pt x="762" y="-87" on="0"/>
        <pt x="752" y="-66" on="1"/>
        <pt x="724" y="-12" on="0"/>
        <pt x="695" y="117" on="0"/>
        <pt x="686" y="176" on="1"/>
        <pt x="671" y="151" on="0"/>
        <pt x="610" y="77" on="0"/>
        <pt x="520" y="9" on="0"/>
        <pt x="402" y="-39" on="0"/>
        <pt x="330" y="-39" on="1"/>
        <pt x="250" y="-39" on="0"/>
        <pt x="137" y="6" on="0"/>
        <pt x="65" y="83" on="0"/>
        <pt x="31" y="186" on="0"/>
        <pt x="31" y="244" on="1"/>
        <pt x="31" y="306" on="0"/>
        <pt x="77" y="432" on="0"/>
        <pt x="182" y="534" on="0"/>
        <pt x="351" y="598" on="0"/>
        <pt x="473" y="598" on="1"/>
        <pt x="501" y="598" on="0"/>
        <pt x="554" y="593" on="0"/>
        <pt x="597" y="587" on="0"/>
        <pt x="628" y="581" on="0"/>
        <pt x="635" y="580" on="1"/>
        <pt x="629" y="666" on="0"/>
        <pt x="620" y="752" on="1"/>
        <pt x="616" y="788" on="0"/>
        <pt x="607" y="868" on="0"/>
        <pt x="597" y="949" on="0"/>
        <pt x="585" y="1027" on="0"/>
        <pt x="578" y="1061" on="1"/>
        <pt x="562" y="1138" on="0"/>
        <pt x="469" y="1229" on="0"/>
        <pt x="397" y="1229" on="1"/>
        <pt x="358" y="1229" on="0"/>
        <pt x="299" y="1201" on="0"/>
        <pt x="258" y="1157" on="0"/>
        <pt x="238" y="1102" on="0"/>
        <pt x="238" y="1075" on="1"/>
        <pt x="238" y="1046" on="0"/>
        <pt x="266" y="1007" on="0"/>
        <pt x="307" y="977" on="0"/>
        <pt x="355" y="950" on="0"/>
        <pt x="396" y="915" on="0"/>
        <pt x="424" y="866" on="0"/>
        <pt x="424" y="829" on="1"/>
        <pt x="424" y="780" on="0"/>
        <pt x="357" y="721" on="0"/>
      </contour>
      <contour>
        <pt x="643" y="518" on="1"/>
        <pt x="636" y="521" on="0"/>
        <pt x="601" y="530" on="0"/>
        <pt x="553" y="539" on="0"/>
        <pt x="498" y="545" on="0"/>
        <pt x="471" y="545" on="1"/>
        <pt x="418" y="545" on="0"/>
        <pt x="327" y="515" on="0"/>
        <pt x="261" y="456" on="0"/>
        <pt x="223" y="367" on="0"/>
        <pt x="223" y="309" on="1"/>
        <pt x="223" y="256" on="0"/>
        <pt x="258" y="187" on="0"/>
        <pt x="313" y="147" on="0"/>
        <pt x="380" y="131" on="0"/>
        <pt x="412" y="131" on="1"/>
        <pt x="463" y="131" on="0"/>
        <pt x="555" y="163" on="0"/>
        <pt x="625" y="205" on="0"/>
        <pt x="669" y="245" on="0"/>
        <pt x="674" y="252" on="1"/>
        <pt x="667" y="319" on="0"/>
        <pt x="661" y="374" on="1"/>
        <pt x="658" y="398" on="0"/>
        <pt x="653" y="444" on="0"/>
        <pt x="648" y="484" on="0"/>
        <pt x="644" y="512" on="0"/>
      </contour>
    </TTGlyph>
</ttFont>
